<?xml version="1.0" encoding="utf-8" standalone="no"?>
<!DOCTYPE svg PUBLIC "-//W3C//DTD SVG 1.1//EN"
  "http://www.w3.org/Graphics/SVG/1.1/DTD/svg11.dtd">
<svg xmlns:xlink="http://www.w3.org/1999/xlink" width="1800pt" height="504pt" viewBox="0 0 1800 504" xmlns="http://www.w3.org/2000/svg" version="1.1">
 <metadata>
  <rdf:RDF xmlns:dc="http://purl.org/dc/elements/1.1/" xmlns:cc="http://creativecommons.org/ns#" xmlns:rdf="http://www.w3.org/1999/02/22-rdf-syntax-ns#">
   <cc:Work>
    <dc:type rdf:resource="http://purl.org/dc/dcmitype/StillImage"/>
    <dc:date>2023-09-06T23:18:47.048630</dc:date>
    <dc:format>image/svg+xml</dc:format>
    <dc:creator>
     <cc:Agent>
      <dc:title>Matplotlib v3.7.1, https://matplotlib.org/</dc:title>
     </cc:Agent>
    </dc:creator>
   </cc:Work>
  </rdf:RDF>
 </metadata>
 <defs>
  <style type="text/css">*{stroke-linejoin: round; stroke-linecap: butt}</style>
 </defs>
 <g id="figure_1">
  <g id="patch_1">
   <path d="M 0 504 
L 1800 504 
L 1800 0 
L 0 0 
z
" style="fill: #ffffff"/>
  </g>
  <g id="axes_1">
   <g id="patch_2">
    <path d="M 225 448.56 
L 592.105263 448.56 
L 592.105263 60.48 
L 225 60.48 
z
" style="fill: #ffffff"/>
   </g>
   <g id="PolyCollection_1">
    <defs>
     <path id="m98b59e1d86" d="M 259.725089 -55.451035 
L 259.725089 -55.44 
L 261.084593 -55.44 
L 262.444098 -55.44 
L 263.803602 -55.44 
L 265.163107 -55.44 
L 266.522612 -55.44 
L 267.882116 -55.44 
L 269.241621 -55.44 
L 270.601125 -55.44 
L 271.96063 -55.44 
L 273.320135 -55.44 
L 274.679639 -55.44 
L 276.039144 -55.44 
L 277.398648 -55.44 
L 278.758153 -55.44 
L 280.117658 -55.44 
L 281.477162 -55.44 
L 282.836667 -55.44 
L 284.196171 -55.44 
L 285.555676 -55.44 
L 286.915181 -55.44 
L 288.274685 -55.44 
L 289.63419 -55.44 
L 290.993694 -55.44 
L 292.353199 -55.44 
L 293.712704 -55.44 
L 295.072208 -55.44 
L 296.431713 -55.44 
L 297.791217 -55.44 
L 299.150722 -55.44 
L 300.510226 -55.44 
L 301.869731 -55.44 
L 303.229236 -55.44 
L 304.58874 -55.44 
L 305.948245 -55.44 
L 307.307749 -55.44 
L 308.667254 -55.44 
L 310.026759 -55.44 
L 311.386263 -55.44 
L 312.745768 -55.44 
L 314.105272 -55.44 
L 315.464777 -55.44 
L 316.824282 -55.44 
L 318.183786 -55.44 
L 319.543291 -55.44 
L 320.902795 -55.44 
L 322.2623 -55.44 
L 323.621805 -55.44 
L 324.981309 -55.44 
L 326.340814 -55.44 
L 327.700318 -55.44 
L 329.059823 -55.44 
L 330.419328 -55.44 
L 331.778832 -55.44 
L 333.138337 -55.44 
L 334.497841 -55.44 
L 335.857346 -55.44 
L 337.216851 -55.44 
L 338.576355 -55.44 
L 339.93586 -55.44 
L 341.295364 -55.44 
L 342.654869 -55.44 
L 344.014373 -55.44 
L 345.373878 -55.44 
L 346.733383 -55.44 
L 348.092887 -55.44 
L 349.452392 -55.44 
L 350.811896 -55.44 
L 352.171401 -55.44 
L 353.530906 -55.44 
L 354.89041 -55.44 
L 356.249915 -55.44 
L 357.609419 -55.44 
L 358.968924 -55.44 
L 360.328429 -55.44 
L 361.687933 -55.44 
L 363.047438 -55.44 
L 364.406942 -55.44 
L 365.766447 -55.44 
L 367.125952 -55.44 
L 368.485456 -55.44 
L 369.844961 -55.44 
L 371.204465 -55.44 
L 372.56397 -55.44 
L 373.923475 -55.44 
L 375.282979 -55.44 
L 376.642484 -55.44 
L 378.001988 -55.44 
L 379.361493 -55.44 
L 380.720998 -55.44 
L 382.080502 -55.44 
L 383.440007 -55.44 
L 384.799511 -55.44 
L 386.159016 -55.44 
L 387.518521 -55.44 
L 388.878025 -55.44 
L 390.23753 -55.44 
L 391.597034 -55.44 
L 392.956539 -55.44 
L 394.316043 -55.44 
L 395.675548 -55.44 
L 397.035053 -55.44 
L 398.394557 -55.44 
L 399.754062 -55.44 
L 401.113566 -55.44 
L 402.473071 -55.44 
L 403.832576 -55.44 
L 405.19208 -55.44 
L 406.551585 -55.44 
L 407.911089 -55.44 
L 409.270594 -55.44 
L 410.630099 -55.44 
L 411.989603 -55.44 
L 413.349108 -55.44 
L 414.708612 -55.44 
L 416.068117 -55.44 
L 417.427622 -55.44 
L 418.787126 -55.44 
L 420.146631 -55.44 
L 421.506135 -55.44 
L 422.86564 -55.44 
L 424.225145 -55.44 
L 425.584649 -55.44 
L 426.944154 -55.44 
L 428.303658 -55.44 
L 429.663163 -55.44 
L 431.022668 -55.44 
L 432.382172 -55.44 
L 433.741677 -55.44 
L 435.101181 -55.44 
L 436.460686 -55.44 
L 437.820191 -55.44 
L 439.179695 -55.44 
L 440.5392 -55.44 
L 441.898704 -55.44 
L 443.258209 -55.44 
L 444.617713 -55.44 
L 445.977218 -55.44 
L 447.336723 -55.44 
L 448.696227 -55.44 
L 450.055732 -55.44 
L 451.415236 -55.44 
L 452.774741 -55.44 
L 454.134246 -55.44 
L 455.49375 -55.44 
L 456.853255 -55.44 
L 458.212759 -55.44 
L 459.572264 -55.44 
L 460.931769 -55.44 
L 462.291273 -55.44 
L 463.650778 -55.44 
L 465.010282 -55.44 
L 466.369787 -55.44 
L 467.729292 -55.44 
L 469.088796 -55.44 
L 470.448301 -55.44 
L 471.807805 -55.44 
L 473.16731 -55.44 
L 474.526815 -55.44 
L 475.886319 -55.44 
L 477.245824 -55.44 
L 478.605328 -55.44 
L 479.964833 -55.44 
L 481.324338 -55.44 
L 482.683842 -55.44 
L 484.043347 -55.44 
L 485.402851 -55.44 
L 486.762356 -55.44 
L 488.12186 -55.44 
L 489.481365 -55.44 
L 490.84087 -55.44 
L 492.200374 -55.44 
L 493.559879 -55.44 
L 494.919383 -55.44 
L 496.278888 -55.44 
L 497.638393 -55.44 
L 498.997897 -55.44 
L 500.357402 -55.44 
L 501.716906 -55.44 
L 503.076411 -55.44 
L 504.435916 -55.44 
L 505.79542 -55.44 
L 507.154925 -55.44 
L 508.514429 -55.44 
L 509.873934 -55.44 
L 511.233439 -55.44 
L 512.592943 -55.44 
L 513.952448 -55.44 
L 515.311952 -55.44 
L 516.671457 -55.44 
L 518.030962 -55.44 
L 519.390466 -55.44 
L 520.749971 -55.44 
L 522.109475 -55.44 
L 523.46898 -55.44 
L 524.828485 -55.44 
L 526.187989 -55.44 
L 527.547494 -55.44 
L 528.906998 -55.44 
L 530.266503 -55.44 
L 530.266503 -55.459976 
L 530.266503 -55.459976 
L 528.906998 -55.47447 
L 527.547494 -55.497494 
L 526.187989 -55.532715 
L 524.828485 -55.58459 
L 523.46898 -55.65815 
L 522.109475 -55.75856 
L 520.749971 -55.890505 
L 519.390466 -56.057438 
L 518.030962 -56.26086 
L 516.671457 -56.499782 
L 515.311952 -56.770578 
L 513.952448 -57.067309 
L 512.592943 -57.382541 
L 511.233439 -57.708504 
L 509.873934 -58.03831 
L 508.514429 -58.366931 
L 507.154925 -58.691663 
L 505.79542 -59.011939 
L 504.435916 -59.328567 
L 503.076411 -59.642604 
L 501.716906 -59.954187 
L 500.357402 -60.261627 
L 498.997897 -60.560923 
L 497.638393 -60.845774 
L 496.278888 -61.107979 
L 494.919383 -61.338118 
L 493.559879 -61.526414 
L 492.200374 -61.663731 
L 490.84087 -61.742698 
L 489.481365 -61.758975 
L 488.12186 -61.712556 
L 486.762356 -61.608958 
L 485.402851 -61.460052 
L 484.043347 -61.284295 
L 482.683842 -61.106196 
L 481.324338 -60.954978 
L 479.964833 -60.862546 
L 478.605328 -60.861031 
L 477.245824 -60.980248 
L 475.886319 -61.245477 
L 474.526815 -61.675885 
L 473.16731 -62.283812 
L 471.807805 -63.074941 
L 470.448301 -64.04913 
L 469.088796 -65.201523 
L 467.729292 -66.523424 
L 466.369787 -68.002518 
L 465.010282 -69.622241 
L 463.650778 -71.36046 
L 462.291273 -73.187974 
L 460.931769 -75.067562 
L 459.572264 -76.954306 
L 458.212759 -78.797584 
L 456.853255 -80.544693 
L 455.49375 -82.145474 
L 454.134246 -83.556993 
L 452.774741 -84.747216 
L 451.415236 -85.69692 
L 450.055732 -86.399617 
L 448.696227 -86.859887 
L 447.336723 -87.090991 
L 445.977218 -87.112823 
L 444.617713 -86.95107 
L 443.258209 -86.638016 
L 441.898704 -86.214851 
L 440.5392 -85.734887 
L 439.179695 -85.26675 
L 437.820191 -84.896588 
L 436.460686 -84.728464 
L 435.101181 -84.882393 
L 433.741677 -85.489827 
L 432.382172 -86.686809 
L 431.022668 -88.605374 
L 429.663163 -91.364164 
L 428.303658 -95.059409 
L 426.944154 -99.757533 
L 425.584649 -105.490346 
L 424.225145 -112.253338 
L 422.86564 -120.006864 
L 421.506135 -128.679291 
L 420.146631 -138.170681 
L 418.787126 -148.355519 
L 417.427622 -159.08342 
L 416.068117 -170.17772 
L 414.708612 -181.432971 
L 413.349108 -192.613438 
L 411.989603 -203.455198 
L 410.630099 -213.674224 
L 409.270594 -222.981777 
L 407.911089 -231.1068 
L 406.551585 -237.8231 
L 405.19208 -242.977573 
L 403.832576 -246.514803 
L 402.473071 -248.493448 
L 401.113566 -249.090866 
L 399.754062 -248.594189 
L 398.394557 -247.378191 
L 397.035053 -245.872361 
L 395.675548 -244.521192 
L 394.316043 -243.742563 
L 392.956539 -243.889179 
L 391.597034 -245.217364 
L 390.23753 -247.866411 
L 388.878025 -251.850316 
L 387.518521 -257.062418 
L 386.159016 -263.292301 
L 384.799511 -270.253218 
L 383.440007 -277.617317 
L 382.080502 -285.054902 
L 380.720998 -292.273035 
L 379.361493 -299.048148 
L 378.001988 -305.247396 
L 376.642484 -310.83456 
L 375.282979 -315.858435 
L 373.923475 -320.424641 
L 372.56397 -324.655108 
L 371.204465 -328.642278 
L 369.844961 -332.406732 
L 368.485456 -335.866845 
L 367.125952 -338.827263 
L 365.766447 -340.989569 
L 364.406942 -341.984324 
L 363.047438 -341.419399 
L 361.687933 -338.936186 
L 360.328429 -334.263574 
L 358.968924 -327.259963 
L 357.609419 -317.936061 
L 356.249915 -306.455188 
L 354.89041 -293.112414 
L 353.530906 -278.297877 
L 352.171401 -262.452197 
L 350.811896 -246.022338 
L 349.452392 -229.42488 
L 348.092887 -213.020836 
L 346.733383 -197.103046 
L 345.373878 -181.894554 
L 344.014373 -167.554787 
L 342.654869 -154.189978 
L 341.295364 -141.864726 
L 339.93586 -130.612568 
L 338.576355 -120.444324 
L 337.216851 -111.353836 
L 335.857346 -103.32115 
L 334.497841 -96.313607 
L 333.138337 -90.2855 
L 331.778832 -85.177163 
L 330.419328 -80.914404 
L 329.059823 -77.40911 
L 327.700318 -74.561587 
L 326.340814 -72.264775 
L 324.981309 -70.40998 
L 323.621805 -68.893375 
L 322.2623 -67.622239 
L 320.902795 -66.519915 
L 319.543291 -65.528674 
L 318.183786 -64.610085 
L 316.824282 -63.742984 
L 315.464777 -62.919619 
L 314.105272 -62.140863 
L 312.745768 -61.411498 
L 311.386263 -60.736468 
L 310.026759 -60.118646 
L 308.667254 -59.558254 
L 307.307749 -59.053642 
L 305.948245 -58.602834 
L 304.58874 -58.205138 
L 303.229236 -57.862189 
L 301.869731 -57.578055 
L 300.510226 -57.358311 
L 299.150722 -57.208319 
L 297.791217 -57.131132 
L 296.431713 -57.12554 
L 295.072208 -57.184736 
L 293.712704 -57.295929 
L 292.353199 -57.441048 
L 290.993694 -57.598426 
L 289.63419 -57.745202 
L 288.274685 -57.86001 
L 286.915181 -57.925491 
L 285.555676 -57.930214 
L 284.196171 -57.869702 
L 282.836667 -57.746463 
L 281.477162 -57.569081 
L 280.117658 -57.350591 
L 278.758153 -57.106485 
L 277.398648 -56.852658 
L 276.039144 -56.603634 
L 274.679639 -56.371253 
L 273.320135 -56.163937 
L 271.96063 -55.986523 
L 270.601125 -55.840557 
L 269.241621 -55.724925 
L 267.882116 -55.636634 
L 266.522612 -55.571611 
L 265.163107 -55.525405 
L 263.803602 -55.493712 
L 262.444098 -55.472727 
L 261.084593 -55.459313 
L 259.725089 -55.451035 
z
" style="stroke: #ff0000"/>
    </defs>
    <g clip-path="url(#pd3fdd2ed81)">
     <use xlink:href="#m98b59e1d86" x="0" y="504" style="fill: #ff0000; fill-opacity: 0.25; stroke: #ff0000"/>
    </g>
   </g>
   <g id="PolyCollection_2">
    <defs>
     <path id="md9cebd8fce" d="M 318.768862 -55.44099 
L 318.768862 -55.44 
L 320.188566 -55.44 
L 321.608271 -55.44 
L 323.027975 -55.44 
L 324.447679 -55.44 
L 325.867383 -55.44 
L 327.287087 -55.44 
L 328.706791 -55.44 
L 330.126495 -55.44 
L 331.546199 -55.44 
L 332.965903 -55.44 
L 334.385607 -55.44 
L 335.805312 -55.44 
L 337.225016 -55.44 
L 338.64472 -55.44 
L 340.064424 -55.44 
L 341.484128 -55.44 
L 342.903832 -55.44 
L 344.323536 -55.44 
L 345.74324 -55.44 
L 347.162944 -55.44 
L 348.582648 -55.44 
L 350.002353 -55.44 
L 351.422057 -55.44 
L 352.841761 -55.44 
L 354.261465 -55.44 
L 355.681169 -55.44 
L 357.100873 -55.44 
L 358.520577 -55.44 
L 359.940281 -55.44 
L 361.359985 -55.44 
L 362.779689 -55.44 
L 364.199393 -55.44 
L 365.619098 -55.44 
L 367.038802 -55.44 
L 368.458506 -55.44 
L 369.87821 -55.44 
L 371.297914 -55.44 
L 372.717618 -55.44 
L 374.137322 -55.44 
L 375.557026 -55.44 
L 376.97673 -55.44 
L 378.396434 -55.44 
L 379.816139 -55.44 
L 381.235843 -55.44 
L 382.655547 -55.44 
L 384.075251 -55.44 
L 385.494955 -55.44 
L 386.914659 -55.44 
L 388.334363 -55.44 
L 389.754067 -55.44 
L 391.173771 -55.44 
L 392.593475 -55.44 
L 394.01318 -55.44 
L 395.432884 -55.44 
L 396.852588 -55.44 
L 398.272292 -55.44 
L 399.691996 -55.44 
L 401.1117 -55.44 
L 402.531404 -55.44 
L 403.951108 -55.44 
L 405.370812 -55.44 
L 406.790516 -55.44 
L 408.210221 -55.44 
L 409.629925 -55.44 
L 411.049629 -55.44 
L 412.469333 -55.44 
L 413.889037 -55.44 
L 415.308741 -55.44 
L 416.728445 -55.44 
L 418.148149 -55.44 
L 419.567853 -55.44 
L 420.987557 -55.44 
L 422.407262 -55.44 
L 423.826966 -55.44 
L 425.24667 -55.44 
L 426.666374 -55.44 
L 428.086078 -55.44 
L 429.505782 -55.44 
L 430.925486 -55.44 
L 432.34519 -55.44 
L 433.764894 -55.44 
L 435.184598 -55.44 
L 436.604303 -55.44 
L 438.024007 -55.44 
L 439.443711 -55.44 
L 440.863415 -55.44 
L 442.283119 -55.44 
L 443.702823 -55.44 
L 445.122527 -55.44 
L 446.542231 -55.44 
L 447.961935 -55.44 
L 449.381639 -55.44 
L 450.801344 -55.44 
L 452.221048 -55.44 
L 453.640752 -55.44 
L 455.060456 -55.44 
L 456.48016 -55.44 
L 457.899864 -55.44 
L 459.319568 -55.44 
L 460.739272 -55.44 
L 462.158976 -55.44 
L 463.57868 -55.44 
L 464.998384 -55.44 
L 466.418089 -55.44 
L 467.837793 -55.44 
L 469.257497 -55.44 
L 470.677201 -55.44 
L 472.096905 -55.44 
L 473.516609 -55.44 
L 474.936313 -55.44 
L 476.356017 -55.44 
L 477.775721 -55.44 
L 479.195425 -55.44 
L 480.61513 -55.44 
L 482.034834 -55.44 
L 483.454538 -55.44 
L 484.874242 -55.44 
L 486.293946 -55.44 
L 487.71365 -55.44 
L 489.133354 -55.44 
L 490.553058 -55.44 
L 491.972762 -55.44 
L 493.392466 -55.44 
L 494.812171 -55.44 
L 496.231875 -55.44 
L 497.651579 -55.44 
L 499.071283 -55.44 
L 500.490987 -55.44 
L 501.910691 -55.44 
L 503.330395 -55.44 
L 504.750099 -55.44 
L 506.169803 -55.44 
L 507.589507 -55.44 
L 509.009212 -55.44 
L 510.428916 -55.44 
L 511.84862 -55.44 
L 513.268324 -55.44 
L 514.688028 -55.44 
L 516.107732 -55.44 
L 517.527436 -55.44 
L 518.94714 -55.44 
L 520.366844 -55.44 
L 521.786548 -55.44 
L 523.206253 -55.44 
L 524.625957 -55.44 
L 526.045661 -55.44 
L 527.465365 -55.44 
L 528.885069 -55.44 
L 530.304773 -55.44 
L 531.724477 -55.44 
L 533.144181 -55.44 
L 534.563885 -55.44 
L 535.983589 -55.44 
L 537.403294 -55.44 
L 538.822998 -55.44 
L 540.242702 -55.44 
L 541.662406 -55.44 
L 543.08211 -55.44 
L 544.501814 -55.44 
L 545.921518 -55.44 
L 547.341222 -55.44 
L 548.760926 -55.44 
L 550.18063 -55.44 
L 551.600334 -55.44 
L 553.020039 -55.44 
L 554.439743 -55.44 
L 555.859447 -55.44 
L 557.279151 -55.44 
L 558.698855 -55.44 
L 560.118559 -55.44 
L 561.538263 -55.44 
L 562.957967 -55.44 
L 564.377671 -55.44 
L 565.797375 -55.44 
L 567.21708 -55.44 
L 568.636784 -55.44 
L 570.056488 -55.44 
L 571.476192 -55.44 
L 572.895896 -55.44 
L 574.3156 -55.44 
L 575.735304 -55.44 
L 577.155008 -55.44 
L 578.574712 -55.44 
L 579.994416 -55.44 
L 581.414121 -55.44 
L 582.833825 -55.44 
L 584.253529 -55.44 
L 585.673233 -55.44 
L 587.092937 -55.44 
L 588.512641 -55.44 
L 589.932345 -55.44 
L 591.352049 -55.44 
L 592.771753 -55.44 
L 594.191457 -55.44 
L 595.611162 -55.44 
L 597.030866 -55.44 
L 598.45057 -55.44 
L 599.870274 -55.44 
L 601.289978 -55.44 
L 601.289978 -55.440616 
L 601.289978 -55.440616 
L 599.870274 -55.441957 
L 598.45057 -55.445236 
L 597.030866 -55.451808 
L 595.611162 -55.462441 
L 594.191457 -55.47594 
L 592.771753 -55.488508 
L 591.352049 -55.495174 
L 589.932345 -55.49289 
L 588.512641 -55.482742 
L 587.092937 -55.46918 
L 585.673233 -55.457074 
L 584.253529 -55.44938 
L 582.833825 -55.447026 
L 581.414121 -55.450099 
L 579.994416 -55.458465 
L 578.574712 -55.47099 
L 577.155008 -55.484415 
L 575.735304 -55.493794 
L 574.3156 -55.495118 
L 572.895896 -55.488307 
L 571.476192 -55.477883 
L 570.056488 -55.470859 
L 568.636784 -55.473895 
L 567.21708 -55.491671 
L 565.797375 -55.526513 
L 564.377671 -55.578246 
L 562.957967 -55.64402 
L 561.538263 -55.718789 
L 560.118559 -55.797197 
L 558.698855 -55.87622 
L 557.279151 -55.956401 
L 555.859447 -56.040351 
L 554.439743 -56.130412 
L 553.020039 -56.228362 
L 551.600334 -56.336081 
L 550.18063 -56.453007 
L 548.760926 -56.57069 
L 547.341222 -56.672121 
L 545.921518 -56.741323 
L 544.501814 -56.776259 
L 543.08211 -56.791315 
L 541.662406 -56.805688 
L 540.242702 -56.829203 
L 538.822998 -56.858537 
L 537.403294 -56.884417 
L 535.983589 -56.900293 
L 534.563885 -56.904572 
L 533.144181 -56.896824 
L 531.724477 -56.874676 
L 530.304773 -56.836354 
L 528.885069 -56.78614 
L 527.465365 -56.735869 
L 526.045661 -56.70018 
L 524.625957 -56.689611 
L 523.206253 -56.706263 
L 521.786548 -56.743598 
L 520.366844 -56.790006 
L 518.94714 -56.835884 
L 517.527436 -56.882873 
L 516.107732 -56.949181 
L 514.688028 -57.061992 
L 513.268324 -57.236836 
L 511.84862 -57.459772 
L 510.428916 -57.690901 
L 509.009212 -57.889567 
L 507.589507 -58.042292 
L 506.169803 -58.173632 
L 504.750099 -58.334112 
L 503.330395 -58.573429 
L 501.910691 -58.914731 
L 500.490987 -59.345458 
L 499.071283 -59.828808 
L 497.651579 -60.323844 
L 496.231875 -60.798461 
L 494.812171 -61.232848 
L 493.392466 -61.623465 
L 491.972762 -61.991186 
L 490.553058 -62.381915 
L 489.133354 -62.848044 
L 487.71365 -63.416805 
L 486.293946 -64.065405 
L 484.874242 -64.719615 
L 483.454538 -65.27843 
L 482.034834 -65.651768 
L 480.61513 -65.791237 
L 479.195425 -65.703372 
L 477.775721 -65.448935 
L 476.356017 -65.131176 
L 474.936313 -64.868058 
L 473.516609 -64.752456 
L 472.096905 -64.822285 
L 470.677201 -65.058396 
L 469.257497 -65.404578 
L 467.837793 -65.79433 
L 466.418089 -66.178956 
L 464.998384 -66.553599 
L 463.57868 -66.965578 
L 462.158976 -67.489414 
L 460.739272 -68.179433 
L 459.319568 -69.038836 
L 457.899864 -70.036971 
L 456.48016 -71.160619 
L 455.060456 -72.445288 
L 453.640752 -73.949193 
L 452.221048 -75.693587 
L 450.801344 -77.626499 
L 449.381639 -79.635919 
L 447.961935 -81.590297 
L 446.542231 -83.376945 
L 445.122527 -84.929489 
L 443.702823 -86.238412 
L 442.283119 -87.334405 
L 440.863415 -88.261674 
L 439.443711 -89.083628 
L 438.024007 -89.921169 
L 436.604303 -90.95877 
L 435.184598 -92.374108 
L 433.764894 -94.239763 
L 432.34519 -96.485996 
L 430.925486 -98.957153 
L 429.505782 -101.517172 
L 428.086078 -104.130218 
L 426.666374 -106.860421 
L 425.24667 -109.77961 
L 423.826966 -112.834558 
L 422.407262 -115.783879 
L 420.987557 -118.306076 
L 419.567853 -120.250961 
L 418.148149 -121.839248 
L 416.728445 -123.607035 
L 415.308741 -126.105143 
L 413.889037 -129.592135 
L 412.469333 -133.961427 
L 411.049629 -138.923436 
L 409.629925 -144.25547 
L 408.210221 -149.92909 
L 406.790516 -156.086039 
L 405.370812 -162.958462 
L 403.951108 -170.808876 
L 402.531404 -179.882828 
L 401.1117 -190.337326 
L 399.691996 -202.143918 
L 398.272292 -215.020291 
L 396.852588 -228.46456 
L 395.432884 -241.909717 
L 394.01318 -254.915731 
L 392.593475 -267.28372 
L 391.173771 -279.052901 
L 389.754067 -290.426441 
L 388.334363 -301.671642 
L 386.914659 -313.004691 
L 385.494955 -324.491642 
L 384.075251 -336.03076 
L 382.655547 -347.427106 
L 381.235843 -358.484609 
L 379.816139 -369.057084 
L 378.396434 -379.072843 
L 376.97673 -388.534752 
L 375.557026 -397.45051 
L 374.137322 -405.712983 
L 372.717618 -413.041388 
L 371.297914 -419.027111 
L 369.87821 -423.196797 
L 368.458506 -425.04 
L 367.038802 -424.079817 
L 365.619098 -420.029439 
L 364.199393 -412.90315 
L 362.779689 -402.935415 
L 361.359985 -390.368566 
L 359.940281 -375.315276 
L 358.520577 -357.803367 
L 357.100873 -337.920147 
L 355.681169 -315.915113 
L 354.261465 -292.210828 
L 352.841761 -267.362301 
L 351.422057 -242.000149 
L 350.002353 -216.762789 
L 348.582648 -192.245678 
L 347.162944 -169.000474 
L 345.74324 -147.54813 
L 344.323536 -128.340151 
L 342.903832 -111.681031 
L 341.484128 -97.685498 
L 340.064424 -86.296834 
L 338.64472 -77.329717 
L 337.225016 -70.507086 
L 335.805312 -65.493118 
L 334.385607 -61.931032 
L 332.965903 -59.482277 
L 331.546199 -57.855344 
L 330.126495 -56.816002 
L 328.706791 -56.182593 
L 327.287087 -55.817184 
L 325.867383 -55.618898 
L 324.447679 -55.518389 
L 323.027975 -55.471305 
L 321.608271 -55.451226 
L 320.188566 -55.443565 
L 318.768862 -55.44099 
z
" style="stroke: #0000ff"/>
    </defs>
    <g clip-path="url(#pd3fdd2ed81)">
     <use xlink:href="#md9cebd8fce" x="0" y="504" style="fill: #0000ff; fill-opacity: 0.25; stroke: #0000ff"/>
    </g>
   </g>
   <g id="matplotlib.axis_1">
    <g id="xtick_1">
     <g id="line2d_1">
      <defs>
       <path id="mc81cde9b55" d="M 0 0 
L 0 10 
" style="stroke: #000000; stroke-width: 2"/>
      </defs>
      <g>
       <use xlink:href="#mc81cde9b55" x="255.592105" y="448.56" style="stroke: #000000; stroke-width: 2"/>
      </g>
     </g>
     <g id="text_1">
      <!-- 1.5 -->
      <g transform="translate(238.098668 478.776563) scale(0.22 -0.22)">
       <defs>
        <path id="DejaVuSans-31" d="M 794 531 
L 1825 531 
L 1825 4091 
L 703 3866 
L 703 4441 
L 1819 4666 
L 2450 4666 
L 2450 531 
L 3481 531 
L 3481 0 
L 794 0 
L 794 531 
z
" transform="scale(0.015625)"/>
        <path id="DejaVuSans-2e" d="M 684 794 
L 1344 794 
L 1344 0 
L 684 0 
L 684 794 
z
" transform="scale(0.015625)"/>
        <path id="DejaVuSans-35" d="M 691 4666 
L 3169 4666 
L 3169 4134 
L 1269 4134 
L 1269 2991 
Q 1406 3038 1543 3061 
Q 1681 3084 1819 3084 
Q 2600 3084 3056 2656 
Q 3513 2228 3513 1497 
Q 3513 744 3044 326 
Q 2575 -91 1722 -91 
Q 1428 -91 1123 -41 
Q 819 9 494 109 
L 494 744 
Q 775 591 1075 516 
Q 1375 441 1709 441 
Q 2250 441 2565 725 
Q 2881 1009 2881 1497 
Q 2881 1984 2565 2268 
Q 2250 2553 1709 2553 
Q 1456 2553 1204 2497 
Q 953 2441 691 2322 
L 691 4666 
z
" transform="scale(0.015625)"/>
       </defs>
       <use xlink:href="#DejaVuSans-31"/>
       <use xlink:href="#DejaVuSans-2e" x="63.623047"/>
       <use xlink:href="#DejaVuSans-35" x="95.410156"/>
      </g>
     </g>
    </g>
    <g id="xtick_2">
     <g id="line2d_2">
      <g>
       <use xlink:href="#mc81cde9b55" x="306.578947" y="448.56" style="stroke: #000000; stroke-width: 2"/>
      </g>
     </g>
     <g id="text_2">
      <!-- 2.0 -->
      <g transform="translate(289.08551 478.776563) scale(0.22 -0.22)">
       <defs>
        <path id="DejaVuSans-32" d="M 1228 531 
L 3431 531 
L 3431 0 
L 469 0 
L 469 531 
Q 828 903 1448 1529 
Q 2069 2156 2228 2338 
Q 2531 2678 2651 2914 
Q 2772 3150 2772 3378 
Q 2772 3750 2511 3984 
Q 2250 4219 1831 4219 
Q 1534 4219 1204 4116 
Q 875 4013 500 3803 
L 500 4441 
Q 881 4594 1212 4672 
Q 1544 4750 1819 4750 
Q 2544 4750 2975 4387 
Q 3406 4025 3406 3419 
Q 3406 3131 3298 2873 
Q 3191 2616 2906 2266 
Q 2828 2175 2409 1742 
Q 1991 1309 1228 531 
z
" transform="scale(0.015625)"/>
        <path id="DejaVuSans-30" d="M 2034 4250 
Q 1547 4250 1301 3770 
Q 1056 3291 1056 2328 
Q 1056 1369 1301 889 
Q 1547 409 2034 409 
Q 2525 409 2770 889 
Q 3016 1369 3016 2328 
Q 3016 3291 2770 3770 
Q 2525 4250 2034 4250 
z
M 2034 4750 
Q 2819 4750 3233 4129 
Q 3647 3509 3647 2328 
Q 3647 1150 3233 529 
Q 2819 -91 2034 -91 
Q 1250 -91 836 529 
Q 422 1150 422 2328 
Q 422 3509 836 4129 
Q 1250 4750 2034 4750 
z
" transform="scale(0.015625)"/>
       </defs>
       <use xlink:href="#DejaVuSans-32"/>
       <use xlink:href="#DejaVuSans-2e" x="63.623047"/>
       <use xlink:href="#DejaVuSans-30" x="95.410156"/>
      </g>
     </g>
    </g>
    <g id="xtick_3">
     <g id="line2d_3">
      <g>
       <use xlink:href="#mc81cde9b55" x="357.565789" y="448.56" style="stroke: #000000; stroke-width: 2"/>
      </g>
     </g>
     <g id="text_3">
      <!-- 2.5 -->
      <g transform="translate(340.072352 478.776563) scale(0.22 -0.22)">
       <use xlink:href="#DejaVuSans-32"/>
       <use xlink:href="#DejaVuSans-2e" x="63.623047"/>
       <use xlink:href="#DejaVuSans-35" x="95.410156"/>
      </g>
     </g>
    </g>
    <g id="xtick_4">
     <g id="line2d_4">
      <g>
       <use xlink:href="#mc81cde9b55" x="408.552632" y="448.56" style="stroke: #000000; stroke-width: 2"/>
      </g>
     </g>
     <g id="text_4">
      <!-- 3.0 -->
      <g transform="translate(391.059194 478.776563) scale(0.22 -0.22)">
       <defs>
        <path id="DejaVuSans-33" d="M 2597 2516 
Q 3050 2419 3304 2112 
Q 3559 1806 3559 1356 
Q 3559 666 3084 287 
Q 2609 -91 1734 -91 
Q 1441 -91 1130 -33 
Q 819 25 488 141 
L 488 750 
Q 750 597 1062 519 
Q 1375 441 1716 441 
Q 2309 441 2620 675 
Q 2931 909 2931 1356 
Q 2931 1769 2642 2001 
Q 2353 2234 1838 2234 
L 1294 2234 
L 1294 2753 
L 1863 2753 
Q 2328 2753 2575 2939 
Q 2822 3125 2822 3475 
Q 2822 3834 2567 4026 
Q 2313 4219 1838 4219 
Q 1578 4219 1281 4162 
Q 984 4106 628 3988 
L 628 4550 
Q 988 4650 1302 4700 
Q 1616 4750 1894 4750 
Q 2613 4750 3031 4423 
Q 3450 4097 3450 3541 
Q 3450 3153 3228 2886 
Q 3006 2619 2597 2516 
z
" transform="scale(0.015625)"/>
       </defs>
       <use xlink:href="#DejaVuSans-33"/>
       <use xlink:href="#DejaVuSans-2e" x="63.623047"/>
       <use xlink:href="#DejaVuSans-30" x="95.410156"/>
      </g>
     </g>
    </g>
    <g id="xtick_5">
     <g id="line2d_5">
      <g>
       <use xlink:href="#mc81cde9b55" x="459.539474" y="448.56" style="stroke: #000000; stroke-width: 2"/>
      </g>
     </g>
     <g id="text_5">
      <!-- 3.5 -->
      <g transform="translate(442.046036 478.776563) scale(0.22 -0.22)">
       <use xlink:href="#DejaVuSans-33"/>
       <use xlink:href="#DejaVuSans-2e" x="63.623047"/>
       <use xlink:href="#DejaVuSans-35" x="95.410156"/>
      </g>
     </g>
    </g>
    <g id="xtick_6">
     <g id="line2d_6">
      <g>
       <use xlink:href="#mc81cde9b55" x="510.526316" y="448.56" style="stroke: #000000; stroke-width: 2"/>
      </g>
     </g>
     <g id="text_6">
      <!-- 4.0 -->
      <g transform="translate(493.032878 478.776563) scale(0.22 -0.22)">
       <defs>
        <path id="DejaVuSans-34" d="M 2419 4116 
L 825 1625 
L 2419 1625 
L 2419 4116 
z
M 2253 4666 
L 3047 4666 
L 3047 1625 
L 3713 1625 
L 3713 1100 
L 3047 1100 
L 3047 0 
L 2419 0 
L 2419 1100 
L 313 1100 
L 313 1709 
L 2253 4666 
z
" transform="scale(0.015625)"/>
       </defs>
       <use xlink:href="#DejaVuSans-34"/>
       <use xlink:href="#DejaVuSans-2e" x="63.623047"/>
       <use xlink:href="#DejaVuSans-30" x="95.410156"/>
      </g>
     </g>
    </g>
    <g id="xtick_7">
     <g id="line2d_7">
      <g>
       <use xlink:href="#mc81cde9b55" x="561.513158" y="448.56" style="stroke: #000000; stroke-width: 2"/>
      </g>
     </g>
     <g id="text_7">
      <!-- 4.5 -->
      <g transform="translate(544.01972 478.776563) scale(0.22 -0.22)">
       <use xlink:href="#DejaVuSans-34"/>
       <use xlink:href="#DejaVuSans-2e" x="63.623047"/>
       <use xlink:href="#DejaVuSans-35" x="95.410156"/>
      </g>
     </g>
    </g>
   </g>
   <g id="matplotlib.axis_2">
    <g id="ytick_1">
     <g id="line2d_8">
      <defs>
       <path id="mea1290d370" d="M 0 0 
L -10 0 
" style="stroke: #000000; stroke-width: 2"/>
      </defs>
      <g>
       <use xlink:href="#mea1290d370" x="225" y="448.56" style="stroke: #000000; stroke-width: 2"/>
      </g>
     </g>
     <g id="text_8">
      <!-- 0.0 -->
      <g transform="translate(176.513125 456.918281) scale(0.22 -0.22)">
       <use xlink:href="#DejaVuSans-30"/>
       <use xlink:href="#DejaVuSans-2e" x="63.623047"/>
       <use xlink:href="#DejaVuSans-30" x="95.410156"/>
      </g>
     </g>
    </g>
    <g id="ytick_2">
     <g id="line2d_9">
      <g>
       <use xlink:href="#mea1290d370" x="225" y="356.613634" style="stroke: #000000; stroke-width: 2"/>
      </g>
     </g>
     <g id="text_9">
      <!-- 0.5 -->
      <g transform="translate(176.513125 364.971915) scale(0.22 -0.22)">
       <use xlink:href="#DejaVuSans-30"/>
       <use xlink:href="#DejaVuSans-2e" x="63.623047"/>
       <use xlink:href="#DejaVuSans-35" x="95.410156"/>
      </g>
     </g>
    </g>
    <g id="ytick_3">
     <g id="line2d_10">
      <g>
       <use xlink:href="#mea1290d370" x="225" y="264.667267" style="stroke: #000000; stroke-width: 2"/>
      </g>
     </g>
     <g id="text_10">
      <!-- 1.0 -->
      <g transform="translate(176.513125 273.025548) scale(0.22 -0.22)">
       <use xlink:href="#DejaVuSans-31"/>
       <use xlink:href="#DejaVuSans-2e" x="63.623047"/>
       <use xlink:href="#DejaVuSans-30" x="95.410156"/>
      </g>
     </g>
    </g>
    <g id="ytick_4">
     <g id="line2d_11">
      <g>
       <use xlink:href="#mea1290d370" x="225" y="172.720901" style="stroke: #000000; stroke-width: 2"/>
      </g>
     </g>
     <g id="text_11">
      <!-- 1.5 -->
      <g transform="translate(176.513125 181.079182) scale(0.22 -0.22)">
       <use xlink:href="#DejaVuSans-31"/>
       <use xlink:href="#DejaVuSans-2e" x="63.623047"/>
       <use xlink:href="#DejaVuSans-35" x="95.410156"/>
      </g>
     </g>
    </g>
    <g id="ytick_5">
     <g id="line2d_12">
      <g>
       <use xlink:href="#mea1290d370" x="225" y="80.774534" style="stroke: #000000; stroke-width: 2"/>
      </g>
     </g>
     <g id="text_12">
      <!-- 2.0 -->
      <g transform="translate(176.513125 89.132815) scale(0.22 -0.22)">
       <use xlink:href="#DejaVuSans-32"/>
       <use xlink:href="#DejaVuSans-2e" x="63.623047"/>
       <use xlink:href="#DejaVuSans-30" x="95.410156"/>
      </g>
     </g>
    </g>
    <g id="text_13">
     <!-- Density -->
     <g transform="translate(170.433437 273.528594) rotate(-90) scale(0.1 -0.1)">
      <defs>
       <path id="DejaVuSans-44" d="M 1259 4147 
L 1259 519 
L 2022 519 
Q 2988 519 3436 956 
Q 3884 1394 3884 2338 
Q 3884 3275 3436 3711 
Q 2988 4147 2022 4147 
L 1259 4147 
z
M 628 4666 
L 1925 4666 
Q 3281 4666 3915 4102 
Q 4550 3538 4550 2338 
Q 4550 1131 3912 565 
Q 3275 0 1925 0 
L 628 0 
L 628 4666 
z
" transform="scale(0.015625)"/>
       <path id="DejaVuSans-65" d="M 3597 1894 
L 3597 1613 
L 953 1613 
Q 991 1019 1311 708 
Q 1631 397 2203 397 
Q 2534 397 2845 478 
Q 3156 559 3463 722 
L 3463 178 
Q 3153 47 2828 -22 
Q 2503 -91 2169 -91 
Q 1331 -91 842 396 
Q 353 884 353 1716 
Q 353 2575 817 3079 
Q 1281 3584 2069 3584 
Q 2775 3584 3186 3129 
Q 3597 2675 3597 1894 
z
M 3022 2063 
Q 3016 2534 2758 2815 
Q 2500 3097 2075 3097 
Q 1594 3097 1305 2825 
Q 1016 2553 972 2059 
L 3022 2063 
z
" transform="scale(0.015625)"/>
       <path id="DejaVuSans-6e" d="M 3513 2113 
L 3513 0 
L 2938 0 
L 2938 2094 
Q 2938 2591 2744 2837 
Q 2550 3084 2163 3084 
Q 1697 3084 1428 2787 
Q 1159 2491 1159 1978 
L 1159 0 
L 581 0 
L 581 3500 
L 1159 3500 
L 1159 2956 
Q 1366 3272 1645 3428 
Q 1925 3584 2291 3584 
Q 2894 3584 3203 3211 
Q 3513 2838 3513 2113 
z
" transform="scale(0.015625)"/>
       <path id="DejaVuSans-73" d="M 2834 3397 
L 2834 2853 
Q 2591 2978 2328 3040 
Q 2066 3103 1784 3103 
Q 1356 3103 1142 2972 
Q 928 2841 928 2578 
Q 928 2378 1081 2264 
Q 1234 2150 1697 2047 
L 1894 2003 
Q 2506 1872 2764 1633 
Q 3022 1394 3022 966 
Q 3022 478 2636 193 
Q 2250 -91 1575 -91 
Q 1294 -91 989 -36 
Q 684 19 347 128 
L 347 722 
Q 666 556 975 473 
Q 1284 391 1588 391 
Q 1994 391 2212 530 
Q 2431 669 2431 922 
Q 2431 1156 2273 1281 
Q 2116 1406 1581 1522 
L 1381 1569 
Q 847 1681 609 1914 
Q 372 2147 372 2553 
Q 372 3047 722 3315 
Q 1072 3584 1716 3584 
Q 2034 3584 2315 3537 
Q 2597 3491 2834 3397 
z
" transform="scale(0.015625)"/>
       <path id="DejaVuSans-69" d="M 603 3500 
L 1178 3500 
L 1178 0 
L 603 0 
L 603 3500 
z
M 603 4863 
L 1178 4863 
L 1178 4134 
L 603 4134 
L 603 4863 
z
" transform="scale(0.015625)"/>
       <path id="DejaVuSans-74" d="M 1172 4494 
L 1172 3500 
L 2356 3500 
L 2356 3053 
L 1172 3053 
L 1172 1153 
Q 1172 725 1289 603 
Q 1406 481 1766 481 
L 2356 481 
L 2356 0 
L 1766 0 
Q 1100 0 847 248 
Q 594 497 594 1153 
L 594 3053 
L 172 3053 
L 172 3500 
L 594 3500 
L 594 4494 
L 1172 4494 
z
" transform="scale(0.015625)"/>
       <path id="DejaVuSans-79" d="M 2059 -325 
Q 1816 -950 1584 -1140 
Q 1353 -1331 966 -1331 
L 506 -1331 
L 506 -850 
L 844 -850 
Q 1081 -850 1212 -737 
Q 1344 -625 1503 -206 
L 1606 56 
L 191 3500 
L 800 3500 
L 1894 763 
L 2988 3500 
L 3597 3500 
L 2059 -325 
z
" transform="scale(0.015625)"/>
      </defs>
      <use xlink:href="#DejaVuSans-44"/>
      <use xlink:href="#DejaVuSans-65" x="77.001953"/>
      <use xlink:href="#DejaVuSans-6e" x="138.525391"/>
      <use xlink:href="#DejaVuSans-73" x="201.904297"/>
      <use xlink:href="#DejaVuSans-69" x="254.003906"/>
      <use xlink:href="#DejaVuSans-74" x="281.787109"/>
      <use xlink:href="#DejaVuSans-79" x="320.996094"/>
     </g>
    </g>
   </g>
   <g id="patch_3">
    <path d="M 225 448.56 
L 225 60.48 
" style="fill: none; stroke: #000000; stroke-width: 0.8; stroke-linejoin: miter; stroke-linecap: square"/>
   </g>
   <g id="patch_4">
    <path d="M 592.105263 448.56 
L 592.105263 60.48 
" style="fill: none; stroke: #000000; stroke-width: 0.8; stroke-linejoin: miter; stroke-linecap: square"/>
   </g>
   <g id="patch_5">
    <path d="M 225 448.56 
L 592.105263 448.56 
" style="fill: none; stroke: #000000; stroke-width: 0.8; stroke-linejoin: miter; stroke-linecap: square"/>
   </g>
   <g id="patch_6">
    <path d="M 225 60.48 
L 592.105263 60.48 
" style="fill: none; stroke: #000000; stroke-width: 0.8; stroke-linejoin: miter; stroke-linecap: square"/>
   </g>
  </g>
  <g id="axes_2">
   <g id="patch_7">
    <path d="M 738.947368 448.56 
L 1106.052632 448.56 
L 1106.052632 60.48 
L 738.947368 60.48 
z
" style="fill: #ffffff"/>
   </g>
   <g id="PolyCollection_3">
    <defs>
     <path id="m060abb1c3f" d="M 606.293587 -55.446565 
L 606.293587 -55.44 
L 608.947884 -55.44 
L 611.602181 -55.44 
L 614.256478 -55.44 
L 616.910775 -55.44 
L 619.565072 -55.44 
L 622.219369 -55.44 
L 624.873666 -55.44 
L 627.527963 -55.44 
L 630.18226 -55.44 
L 632.836557 -55.44 
L 635.490854 -55.44 
L 638.145151 -55.44 
L 640.799448 -55.44 
L 643.453745 -55.44 
L 646.108042 -55.44 
L 648.762339 -55.44 
L 651.416636 -55.44 
L 654.070933 -55.44 
L 656.72523 -55.44 
L 659.379527 -55.44 
L 662.033824 -55.44 
L 664.688121 -55.44 
L 667.342418 -55.44 
L 669.996715 -55.44 
L 672.651012 -55.44 
L 675.305309 -55.44 
L 677.959606 -55.44 
L 680.613903 -55.44 
L 683.2682 -55.44 
L 685.922497 -55.44 
L 688.576794 -55.44 
L 691.231091 -55.44 
L 693.885388 -55.44 
L 696.539685 -55.44 
L 699.193982 -55.44 
L 701.848279 -55.44 
L 704.502576 -55.44 
L 707.156873 -55.44 
L 709.81117 -55.44 
L 712.465467 -55.44 
L 715.119764 -55.44 
L 717.774061 -55.44 
L 720.428358 -55.44 
L 723.082655 -55.44 
L 725.736952 -55.44 
L 728.391249 -55.44 
L 731.045546 -55.44 
L 733.699843 -55.44 
L 736.35414 -55.44 
L 739.008437 -55.44 
L 741.662734 -55.44 
L 744.317031 -55.44 
L 746.971328 -55.44 
L 749.625625 -55.44 
L 752.279922 -55.44 
L 754.934219 -55.44 
L 757.588516 -55.44 
L 760.242813 -55.44 
L 762.89711 -55.44 
L 765.551407 -55.44 
L 768.205704 -55.44 
L 770.860001 -55.44 
L 773.514298 -55.44 
L 776.168595 -55.44 
L 778.822892 -55.44 
L 781.477189 -55.44 
L 784.131486 -55.44 
L 786.785783 -55.44 
L 789.44008 -55.44 
L 792.094377 -55.44 
L 794.748674 -55.44 
L 797.402971 -55.44 
L 800.057268 -55.44 
L 802.711565 -55.44 
L 805.365862 -55.44 
L 808.020159 -55.44 
L 810.674456 -55.44 
L 813.328753 -55.44 
L 815.98305 -55.44 
L 818.637347 -55.44 
L 821.291644 -55.44 
L 823.945941 -55.44 
L 826.600238 -55.44 
L 829.254535 -55.44 
L 831.908832 -55.44 
L 834.563129 -55.44 
L 837.217426 -55.44 
L 839.871723 -55.44 
L 842.52602 -55.44 
L 845.180317 -55.44 
L 847.834614 -55.44 
L 850.488911 -55.44 
L 853.143208 -55.44 
L 855.797505 -55.44 
L 858.451802 -55.44 
L 861.106099 -55.44 
L 863.760396 -55.44 
L 866.414693 -55.44 
L 869.06899 -55.44 
L 871.723287 -55.44 
L 874.377584 -55.44 
L 877.031881 -55.44 
L 879.686178 -55.44 
L 882.340475 -55.44 
L 884.994772 -55.44 
L 887.649069 -55.44 
L 890.303366 -55.44 
L 892.957663 -55.44 
L 895.61196 -55.44 
L 898.266257 -55.44 
L 900.920554 -55.44 
L 903.574851 -55.44 
L 906.229148 -55.44 
L 908.883445 -55.44 
L 911.537742 -55.44 
L 914.192039 -55.44 
L 916.846336 -55.44 
L 919.500633 -55.44 
L 922.15493 -55.44 
L 924.809227 -55.44 
L 927.463524 -55.44 
L 930.117821 -55.44 
L 932.772118 -55.44 
L 935.426415 -55.44 
L 938.080712 -55.44 
L 940.735009 -55.44 
L 943.389306 -55.44 
L 946.043603 -55.44 
L 948.6979 -55.44 
L 951.352197 -55.44 
L 954.006494 -55.44 
L 956.660791 -55.44 
L 959.315088 -55.44 
L 961.969385 -55.44 
L 964.623682 -55.44 
L 967.277979 -55.44 
L 969.932276 -55.44 
L 972.586573 -55.44 
L 975.24087 -55.44 
L 977.895167 -55.44 
L 980.549464 -55.44 
L 983.203761 -55.44 
L 985.858058 -55.44 
L 988.512355 -55.44 
L 991.166652 -55.44 
L 993.820949 -55.44 
L 996.475246 -55.44 
L 999.129543 -55.44 
L 1001.78384 -55.44 
L 1004.438137 -55.44 
L 1007.092434 -55.44 
L 1009.746731 -55.44 
L 1012.401028 -55.44 
L 1015.055325 -55.44 
L 1017.709622 -55.44 
L 1020.363919 -55.44 
L 1023.018216 -55.44 
L 1025.672513 -55.44 
L 1028.32681 -55.44 
L 1030.981107 -55.44 
L 1033.635404 -55.44 
L 1036.289701 -55.44 
L 1038.943998 -55.44 
L 1041.598295 -55.44 
L 1044.252592 -55.44 
L 1046.906889 -55.44 
L 1049.561186 -55.44 
L 1052.215483 -55.44 
L 1054.86978 -55.44 
L 1057.524077 -55.44 
L 1060.178374 -55.44 
L 1062.832671 -55.44 
L 1065.486968 -55.44 
L 1068.141265 -55.44 
L 1070.795562 -55.44 
L 1073.449859 -55.44 
L 1076.104156 -55.44 
L 1078.758453 -55.44 
L 1081.41275 -55.44 
L 1084.067047 -55.44 
L 1086.721344 -55.44 
L 1089.375641 -55.44 
L 1092.029938 -55.44 
L 1094.684235 -55.44 
L 1097.338532 -55.44 
L 1099.992829 -55.44 
L 1102.647126 -55.44 
L 1105.301423 -55.44 
L 1107.95572 -55.44 
L 1110.610017 -55.44 
L 1113.264314 -55.44 
L 1115.918611 -55.44 
L 1118.572908 -55.44 
L 1121.227205 -55.44 
L 1123.881502 -55.44 
L 1126.535799 -55.44 
L 1129.190096 -55.44 
L 1131.844393 -55.44 
L 1134.49869 -55.44 
L 1134.49869 -55.446565 
L 1134.49869 -55.446565 
L 1131.844393 -55.451556 
L 1129.190096 -55.459583 
L 1126.535799 -55.471951 
L 1123.881502 -55.490189 
L 1121.227205 -55.515902 
L 1118.572908 -55.550515 
L 1115.918611 -55.594921 
L 1113.264314 -55.649086 
L 1110.610017 -55.711691 
L 1107.95572 -55.779915 
L 1105.301423 -55.849481 
L 1102.647126 -55.915015 
L 1099.992829 -55.970725 
L 1097.338532 -56.011308 
L 1094.684235 -56.032917 
L 1092.029938 -56.033987 
L 1089.375641 -56.01575 
L 1086.721344 -55.982335 
L 1084.067047 -55.940448 
L 1081.41275 -55.898759 
L 1078.758453 -55.867154 
L 1076.104156 -55.856052 
L 1073.449859 -55.87593 
L 1070.795562 -55.937144 
L 1068.141265 -56.050025 
L 1065.486968 -56.225185 
L 1062.832671 -56.473868 
L 1060.178374 -56.80818 
L 1057.524077 -57.24099 
L 1054.86978 -57.785356 
L 1052.215483 -58.453423 
L 1049.561186 -59.254904 
L 1046.906889 -60.195507 
L 1044.252592 -61.275828 
L 1041.598295 -62.491381 
L 1038.943998 -63.834287 
L 1036.289701 -65.296848 
L 1033.635404 -66.876683 
L 1030.981107 -68.582548 
L 1028.32681 -70.439519 
L 1025.672513 -72.492078 
L 1023.018216 -74.803916 
L 1020.363919 -77.453891 
L 1017.709622 -80.528428 
L 1015.055325 -84.111514 
L 1012.401028 -88.274104 
L 1009.746731 -93.065072 
L 1007.092434 -98.505648 
L 1004.438137 -104.588651 
L 1001.78384 -111.282697 
L 999.129543 -118.540346 
L 996.475246 -126.307894 
L 993.820949 -134.533879 
L 991.166652 -143.173466 
L 988.512355 -152.186936 
L 985.858058 -161.532216 
L 983.203761 -171.153349 
L 980.549464 -180.968214 
L 977.895167 -190.859248 
L 975.24087 -200.670081 
L 972.586573 -210.209278 
L 969.932276 -219.260337 
L 967.277979 -227.595549 
L 964.623682 -234.990791 
L 961.969385 -241.238961 
L 959.315088 -246.161019 
L 956.660791 -249.615007 
L 954.006494 -251.504059 
L 951.352197 -251.784167 
L 948.6979 -250.471353 
L 946.043603 -247.646583 
L 943.389306 -243.455921 
L 940.735009 -238.103703 
L 938.080712 -231.837829 
L 935.426415 -224.928411 
L 932.772118 -217.643047 
L 930.117821 -210.223242 
L 927.463524 -202.866491 
L 924.809227 -195.717202 
L 922.15493 -188.867473 
L 919.500633 -182.366425 
L 916.846336 -176.234882 
L 914.192039 -170.481337 
L 911.537742 -165.115293 
L 908.883445 -160.155213 
L 906.229148 -155.630009 
L 903.574851 -151.574843 
L 900.920554 -148.023469 
L 898.266257 -145.00012 
L 895.61196 -142.513821 
L 892.957663 -140.557032 
L 890.303366 -139.108972 
L 887.649069 -138.14235 
L 884.994772 -137.630924 
L 882.340475 -137.554881 
L 879.686178 -137.901502 
L 877.031881 -138.659981 
L 874.377584 -139.811159 
L 871.723287 -141.314726 
L 869.06899 -143.097637 
L 866.414693 -145.047635 
L 863.760396 -147.014776 
L 861.106099 -148.821933 
L 858.451802 -150.282997 
L 855.797505 -151.22547 
L 853.143208 -151.512951 
L 850.488911 -151.062969 
L 847.834614 -149.856634 
L 845.180317 -147.938396 
L 842.52602 -145.406196 
L 839.871723 -142.394106 
L 837.217426 -139.050737 
L 834.563129 -135.517157 
L 831.908832 -131.907868 
L 829.254535 -128.297658 
L 826.600238 -124.716073 
L 823.945941 -121.149974 
L 821.291644 -117.553355 
L 818.637347 -113.862443 
L 815.98305 -110.013269 
L 813.328753 -105.958585 
L 810.674456 -101.681229 
L 808.020159 -97.201775 
L 805.365862 -92.579421 
L 802.711565 -87.906277 
L 800.057268 -83.296363 
L 797.402971 -78.871416 
L 794.748674 -74.746045 
L 792.094377 -71.014679 
L 789.44008 -67.742274 
L 786.785783 -64.959912 
L 784.131486 -62.665456 
L 781.477189 -60.828504 
L 778.822892 -59.398211 
L 776.168595 -58.312238 
L 773.514298 -57.505195 
L 770.860001 -56.915369 
L 768.205704 -56.489103 
L 765.551407 -56.18281 
L 762.89711 -55.96304 
L 760.242813 -55.805261 
L 757.588516 -55.692028 
L 754.934219 -55.611097 
L 752.279922 -55.55381 
L 749.625625 -55.513898 
L 746.971328 -55.48669 
L 744.317031 -55.46863 
L 741.662734 -55.457005 
L 739.008437 -55.449768 
L 736.35414 -55.44542 
L 733.699843 -55.442902 
L 731.045546 -55.441499 
L 728.391249 -55.440746 
L 725.736952 -55.440358 
L 723.082655 -55.440166 
L 720.428358 -55.440074 
L 717.774061 -55.440033 
L 715.119764 -55.440015 
L 712.465467 -55.440011 
L 709.81117 -55.440017 
L 707.156873 -55.440037 
L 704.502576 -55.440085 
L 701.848279 -55.440188 
L 699.193982 -55.440404 
L 696.539685 -55.440834 
L 693.885388 -55.441657 
L 691.231091 -55.44317 
L 688.576794 -55.44584 
L 685.922497 -55.450357 
L 683.2682 -55.457685 
L 680.613903 -55.469073 
L 677.959606 -55.486014 
L 675.305309 -55.510115 
L 672.651012 -55.542861 
L 669.996715 -55.585282 
L 667.342418 -55.637556 
L 664.688121 -55.698637 
L 662.033824 -55.765995 
L 659.379527 -55.835596 
L 656.72523 -55.902181 
L 654.070933 -55.959867 
L 651.416636 -56.002979 
L 648.762339 -56.026965 
L 646.108042 -56.029185 
L 643.453745 -56.009393 
L 640.799448 -55.969775 
L 638.145151 -55.914561 
L 635.490854 -55.849272 
L 632.836557 -55.779822 
L 630.18226 -55.711651 
L 627.527963 -55.64907 
L 624.873666 -55.594914 
L 622.219369 -55.550512 
L 619.565072 -55.515901 
L 616.910775 -55.490189 
L 614.256478 -55.471951 
L 611.602181 -55.459583 
L 608.947884 -55.451556 
L 606.293587 -55.446565 
z
" style="stroke: #ff0000"/>
    </defs>
    <g clip-path="url(#pf14373db0f)">
     <use xlink:href="#m060abb1c3f" x="0" y="504" style="fill: #ff0000; fill-opacity: 0.25; stroke: #ff0000"/>
    </g>
   </g>
   <g id="PolyCollection_4">
    <defs>
     <path id="m28b9eafc5b" d="M 637.384672 -55.440808 
L 637.384672 -55.44 
L 639.381989 -55.44 
L 641.379305 -55.44 
L 643.376622 -55.44 
L 645.373939 -55.44 
L 647.371255 -55.44 
L 649.368572 -55.44 
L 651.365889 -55.44 
L 653.363206 -55.44 
L 655.360522 -55.44 
L 657.357839 -55.44 
L 659.355156 -55.44 
L 661.352472 -55.44 
L 663.349789 -55.44 
L 665.347106 -55.44 
L 667.344422 -55.44 
L 669.341739 -55.44 
L 671.339056 -55.44 
L 673.336373 -55.44 
L 675.333689 -55.44 
L 677.331006 -55.44 
L 679.328323 -55.44 
L 681.325639 -55.44 
L 683.322956 -55.44 
L 685.320273 -55.44 
L 687.31759 -55.44 
L 689.314906 -55.44 
L 691.312223 -55.44 
L 693.30954 -55.44 
L 695.306856 -55.44 
L 697.304173 -55.44 
L 699.30149 -55.44 
L 701.298806 -55.44 
L 703.296123 -55.44 
L 705.29344 -55.44 
L 707.290757 -55.44 
L 709.288073 -55.44 
L 711.28539 -55.44 
L 713.282707 -55.44 
L 715.280023 -55.44 
L 717.27734 -55.44 
L 719.274657 -55.44 
L 721.271974 -55.44 
L 723.26929 -55.44 
L 725.266607 -55.44 
L 727.263924 -55.44 
L 729.26124 -55.44 
L 731.258557 -55.44 
L 733.255874 -55.44 
L 735.25319 -55.44 
L 737.250507 -55.44 
L 739.247824 -55.44 
L 741.245141 -55.44 
L 743.242457 -55.44 
L 745.239774 -55.44 
L 747.237091 -55.44 
L 749.234407 -55.44 
L 751.231724 -55.44 
L 753.229041 -55.44 
L 755.226358 -55.44 
L 757.223674 -55.44 
L 759.220991 -55.44 
L 761.218308 -55.44 
L 763.215624 -55.44 
L 765.212941 -55.44 
L 767.210258 -55.44 
L 769.207575 -55.44 
L 771.204891 -55.44 
L 773.202208 -55.44 
L 775.199525 -55.44 
L 777.196841 -55.44 
L 779.194158 -55.44 
L 781.191475 -55.44 
L 783.188791 -55.44 
L 785.186108 -55.44 
L 787.183425 -55.44 
L 789.180742 -55.44 
L 791.178058 -55.44 
L 793.175375 -55.44 
L 795.172692 -55.44 
L 797.170008 -55.44 
L 799.167325 -55.44 
L 801.164642 -55.44 
L 803.161959 -55.44 
L 805.159275 -55.44 
L 807.156592 -55.44 
L 809.153909 -55.44 
L 811.151225 -55.44 
L 813.148542 -55.44 
L 815.145859 -55.44 
L 817.143175 -55.44 
L 819.140492 -55.44 
L 821.137809 -55.44 
L 823.135126 -55.44 
L 825.132442 -55.44 
L 827.129759 -55.44 
L 829.127076 -55.44 
L 831.124392 -55.44 
L 833.121709 -55.44 
L 835.119026 -55.44 
L 837.116343 -55.44 
L 839.113659 -55.44 
L 841.110976 -55.44 
L 843.108293 -55.44 
L 845.105609 -55.44 
L 847.102926 -55.44 
L 849.100243 -55.44 
L 851.09756 -55.44 
L 853.094876 -55.44 
L 855.092193 -55.44 
L 857.08951 -55.44 
L 859.086826 -55.44 
L 861.084143 -55.44 
L 863.08146 -55.44 
L 865.078776 -55.44 
L 867.076093 -55.44 
L 869.07341 -55.44 
L 871.070727 -55.44 
L 873.068043 -55.44 
L 875.06536 -55.44 
L 877.062677 -55.44 
L 879.059993 -55.44 
L 881.05731 -55.44 
L 883.054627 -55.44 
L 885.051944 -55.44 
L 887.04926 -55.44 
L 889.046577 -55.44 
L 891.043894 -55.44 
L 893.04121 -55.44 
L 895.038527 -55.44 
L 897.035844 -55.44 
L 899.03316 -55.44 
L 901.030477 -55.44 
L 903.027794 -55.44 
L 905.025111 -55.44 
L 907.022427 -55.44 
L 909.019744 -55.44 
L 911.017061 -55.44 
L 913.014377 -55.44 
L 915.011694 -55.44 
L 917.009011 -55.44 
L 919.006328 -55.44 
L 921.003644 -55.44 
L 923.000961 -55.44 
L 924.998278 -55.44 
L 926.995594 -55.44 
L 928.992911 -55.44 
L 930.990228 -55.44 
L 932.987545 -55.44 
L 934.984861 -55.44 
L 936.982178 -55.44 
L 938.979495 -55.44 
L 940.976811 -55.44 
L 942.974128 -55.44 
L 944.971445 -55.44 
L 946.968761 -55.44 
L 948.966078 -55.44 
L 950.963395 -55.44 
L 952.960712 -55.44 
L 954.958028 -55.44 
L 956.955345 -55.44 
L 958.952662 -55.44 
L 960.949978 -55.44 
L 962.947295 -55.44 
L 964.944612 -55.44 
L 966.941929 -55.44 
L 968.939245 -55.44 
L 970.936562 -55.44 
L 972.933879 -55.44 
L 974.931195 -55.44 
L 976.928512 -55.44 
L 978.925829 -55.44 
L 980.923145 -55.44 
L 982.920462 -55.44 
L 984.917779 -55.44 
L 986.915096 -55.44 
L 988.912412 -55.44 
L 990.909729 -55.44 
L 992.907046 -55.44 
L 994.904362 -55.44 
L 996.901679 -55.44 
L 998.898996 -55.44 
L 1000.896313 -55.44 
L 1002.893629 -55.44 
L 1004.890946 -55.44 
L 1006.888263 -55.44 
L 1008.885579 -55.44 
L 1010.882896 -55.44 
L 1012.880213 -55.44 
L 1014.87753 -55.44 
L 1016.874846 -55.44 
L 1018.872163 -55.44 
L 1020.86948 -55.44 
L 1022.866796 -55.44 
L 1024.864113 -55.44 
L 1026.86143 -55.44 
L 1028.858746 -55.44 
L 1030.856063 -55.44 
L 1032.85338 -55.44 
L 1034.850697 -55.44 
L 1034.850697 -55.440972 
L 1034.850697 -55.440972 
L 1032.85338 -55.445497 
L 1030.856063 -55.462152 
L 1028.858746 -55.504484 
L 1026.86143 -55.578251 
L 1024.864113 -55.664019 
L 1022.866796 -55.722923 
L 1020.86948 -55.726658 
L 1018.872163 -55.6813 
L 1016.874846 -55.633801 
L 1014.87753 -55.651235 
L 1012.880213 -55.761542 
L 1010.882896 -55.911788 
L 1008.885579 -56.018606 
L 1006.888263 -56.064397 
L 1004.890946 -56.102572 
L 1002.893629 -56.167446 
L 1000.896313 -56.24285 
L 998.898996 -56.32742 
L 996.901679 -56.460734 
L 994.904362 -56.666563 
L 992.907046 -56.926263 
L 990.909729 -57.250516 
L 988.912412 -57.71615 
L 986.915096 -58.333183 
L 984.917779 -58.949551 
L 982.920462 -59.437157 
L 980.923145 -59.949293 
L 978.925829 -60.821719 
L 976.928512 -62.174486 
L 974.931195 -63.793619 
L 972.933879 -65.438452 
L 970.936562 -67.093489 
L 968.939245 -68.909639 
L 966.941929 -70.976889 
L 964.944612 -73.242773 
L 962.947295 -75.791927 
L 960.949978 -79.106424 
L 958.952662 -83.688692 
L 956.955345 -89.337462 
L 954.958028 -95.35895 
L 952.960712 -101.81387 
L 950.963395 -109.721475 
L 948.966078 -119.23068 
L 946.968761 -128.77767 
L 944.971445 -137.77724 
L 942.974128 -148.769391 
L 940.976811 -164.032843 
L 938.979495 -181.364709 
L 936.982178 -197.362699 
L 934.984861 -214.142057 
L 932.987545 -236.598048 
L 930.990228 -262.242016 
L 928.992911 -281.952766 
L 926.995594 -293.988564 
L 924.998278 -308.543553 
L 923.000961 -332.707299 
L 921.003644 -358.851326 
L 919.006328 -375.967796 
L 917.009011 -385.907755 
L 915.011694 -398.375212 
L 913.014377 -414.47318 
L 911.017061 -425.04 
L 909.019744 -424.530327 
L 907.022427 -418.196119 
L 905.025111 -413.561235 
L 903.027794 -411.333366 
L 901.030477 -407.341545 
L 899.03316 -398.962432 
L 897.035844 -386.885594 
L 895.038527 -373.234702 
L 893.04121 -360.099838 
L 891.043894 -348.68622 
L 889.046577 -337.747585 
L 887.04926 -324.357267 
L 885.051944 -308.569508 
L 883.054627 -294.997098 
L 881.05731 -286.22615 
L 879.059993 -277.187947 
L 877.062677 -261.701019 
L 875.06536 -242.978007 
L 873.068043 -229.981155 
L 871.070727 -223.334695 
L 869.07341 -213.860537 
L 867.076093 -196.892929 
L 865.078776 -179.220946 
L 863.08146 -168.002602 
L 861.084143 -160.772725 
L 859.086826 -151.516284 
L 857.08951 -140.171458 
L 855.092193 -130.651814 
L 853.094876 -123.9507 
L 851.09756 -117.96037 
L 849.100243 -111.336328 
L 847.102926 -104.471626 
L 845.105609 -98.393551 
L 843.108293 -93.925196 
L 841.110976 -90.641745 
L 839.113659 -86.845612 
L 837.116343 -81.845017 
L 835.119026 -77.337731 
L 833.121709 -74.926968 
L 831.124392 -73.44451 
L 829.127076 -70.851897 
L 827.129759 -67.648274 
L 825.132442 -65.865113 
L 823.135126 -65.597462 
L 821.137809 -64.990654 
L 819.140492 -63.188018 
L 817.143175 -61.221329 
L 815.145859 -60.059522 
L 813.148542 -59.419886 
L 811.151225 -58.696596 
L 809.153909 -57.919055 
L 807.156592 -57.394525 
L 805.159275 -57.061293 
L 803.161959 -56.648577 
L 801.164642 -56.142185 
L 799.167325 -55.738073 
L 797.170008 -55.530228 
L 795.172692 -55.459283 
L 793.175375 -55.442894 
L 791.178058 -55.440304 
L 789.180742 -55.440022 
L 787.183425 -55.440001 
L 785.186108 -55.44 
L 783.188791 -55.44 
L 781.191475 -55.44 
L 779.194158 -55.44 
L 777.196841 -55.44 
L 775.199525 -55.44 
L 773.202208 -55.44 
L 771.204891 -55.44 
L 769.207575 -55.44 
L 767.210258 -55.44 
L 765.212941 -55.44 
L 763.215624 -55.44 
L 761.218308 -55.44 
L 759.220991 -55.44 
L 757.223674 -55.44 
L 755.226358 -55.44 
L 753.229041 -55.44 
L 751.231724 -55.44 
L 749.234407 -55.44 
L 747.237091 -55.44 
L 745.239774 -55.44 
L 743.242457 -55.44 
L 741.245141 -55.44 
L 739.247824 -55.44 
L 737.250507 -55.44 
L 735.25319 -55.44 
L 733.255874 -55.44 
L 731.258557 -55.44 
L 729.26124 -55.44 
L 727.263924 -55.44 
L 725.266607 -55.44 
L 723.26929 -55.44 
L 721.271974 -55.44 
L 719.274657 -55.44 
L 717.27734 -55.44 
L 715.280023 -55.44 
L 713.282707 -55.44 
L 711.28539 -55.44 
L 709.288073 -55.44 
L 707.290757 -55.44 
L 705.29344 -55.44 
L 703.296123 -55.44 
L 701.298806 -55.44 
L 699.30149 -55.44 
L 697.304173 -55.44 
L 695.306856 -55.44 
L 693.30954 -55.44 
L 691.312223 -55.44 
L 689.314906 -55.44 
L 687.31759 -55.44 
L 685.320273 -55.44 
L 683.322956 -55.44 
L 681.325639 -55.44 
L 679.328323 -55.44 
L 677.331006 -55.44 
L 675.333689 -55.44 
L 673.336373 -55.44 
L 671.339056 -55.44 
L 669.341739 -55.44 
L 667.344422 -55.44 
L 665.347106 -55.44 
L 663.349789 -55.44 
L 661.352472 -55.440006 
L 659.355156 -55.440068 
L 657.357839 -55.440555 
L 655.360522 -55.443114 
L 653.363206 -55.452007 
L 651.365889 -55.471825 
L 649.368572 -55.497983 
L 647.371255 -55.512614 
L 645.373939 -55.502508 
L 643.376622 -55.476987 
L 641.379305 -55.455043 
L 639.381989 -55.444206 
L 637.384672 -55.440808 
z
" style="stroke: #0000ff"/>
    </defs>
    <g clip-path="url(#pf14373db0f)">
     <use xlink:href="#m28b9eafc5b" x="0" y="504" style="fill: #0000ff; fill-opacity: 0.25; stroke: #0000ff"/>
    </g>
   </g>
   <g id="matplotlib.axis_3">
    <g id="xtick_8">
     <g id="line2d_13">
      <g>
       <use xlink:href="#mc81cde9b55" x="769.539474" y="448.56" style="stroke: #000000; stroke-width: 2"/>
      </g>
     </g>
     <g id="text_14">
      <!-- 200 -->
      <g transform="translate(748.543224 478.776563) scale(0.22 -0.22)">
       <use xlink:href="#DejaVuSans-32"/>
       <use xlink:href="#DejaVuSans-30" x="63.623047"/>
       <use xlink:href="#DejaVuSans-30" x="127.246094"/>
      </g>
     </g>
    </g>
    <g id="xtick_9">
     <g id="line2d_14">
      <g>
       <use xlink:href="#mc81cde9b55" x="830.723684" y="448.56" style="stroke: #000000; stroke-width: 2"/>
      </g>
     </g>
     <g id="text_15">
      <!-- 300 -->
      <g transform="translate(809.727434 478.776563) scale(0.22 -0.22)">
       <use xlink:href="#DejaVuSans-33"/>
       <use xlink:href="#DejaVuSans-30" x="63.623047"/>
       <use xlink:href="#DejaVuSans-30" x="127.246094"/>
      </g>
     </g>
    </g>
    <g id="xtick_10">
     <g id="line2d_15">
      <g>
       <use xlink:href="#mc81cde9b55" x="891.907895" y="448.56" style="stroke: #000000; stroke-width: 2"/>
      </g>
     </g>
     <g id="text_16">
      <!-- 400 -->
      <g transform="translate(870.911645 478.776563) scale(0.22 -0.22)">
       <use xlink:href="#DejaVuSans-34"/>
       <use xlink:href="#DejaVuSans-30" x="63.623047"/>
       <use xlink:href="#DejaVuSans-30" x="127.246094"/>
      </g>
     </g>
    </g>
    <g id="xtick_11">
     <g id="line2d_16">
      <g>
       <use xlink:href="#mc81cde9b55" x="953.092105" y="448.56" style="stroke: #000000; stroke-width: 2"/>
      </g>
     </g>
     <g id="text_17">
      <!-- 500 -->
      <g transform="translate(932.095855 478.776563) scale(0.22 -0.22)">
       <use xlink:href="#DejaVuSans-35"/>
       <use xlink:href="#DejaVuSans-30" x="63.623047"/>
       <use xlink:href="#DejaVuSans-30" x="127.246094"/>
      </g>
     </g>
    </g>
    <g id="xtick_12">
     <g id="line2d_17">
      <g>
       <use xlink:href="#mc81cde9b55" x="1014.276316" y="448.56" style="stroke: #000000; stroke-width: 2"/>
      </g>
     </g>
     <g id="text_18">
      <!-- 600 -->
      <g transform="translate(993.280066 478.776563) scale(0.22 -0.22)">
       <defs>
        <path id="DejaVuSans-36" d="M 2113 2584 
Q 1688 2584 1439 2293 
Q 1191 2003 1191 1497 
Q 1191 994 1439 701 
Q 1688 409 2113 409 
Q 2538 409 2786 701 
Q 3034 994 3034 1497 
Q 3034 2003 2786 2293 
Q 2538 2584 2113 2584 
z
M 3366 4563 
L 3366 3988 
Q 3128 4100 2886 4159 
Q 2644 4219 2406 4219 
Q 1781 4219 1451 3797 
Q 1122 3375 1075 2522 
Q 1259 2794 1537 2939 
Q 1816 3084 2150 3084 
Q 2853 3084 3261 2657 
Q 3669 2231 3669 1497 
Q 3669 778 3244 343 
Q 2819 -91 2113 -91 
Q 1303 -91 875 529 
Q 447 1150 447 2328 
Q 447 3434 972 4092 
Q 1497 4750 2381 4750 
Q 2619 4750 2861 4703 
Q 3103 4656 3366 4563 
z
" transform="scale(0.015625)"/>
       </defs>
       <use xlink:href="#DejaVuSans-36"/>
       <use xlink:href="#DejaVuSans-30" x="63.623047"/>
       <use xlink:href="#DejaVuSans-30" x="127.246094"/>
      </g>
     </g>
    </g>
    <g id="xtick_13">
     <g id="line2d_18">
      <g>
       <use xlink:href="#mc81cde9b55" x="1075.460526" y="448.56" style="stroke: #000000; stroke-width: 2"/>
      </g>
     </g>
     <g id="text_19">
      <!-- 700 -->
      <g transform="translate(1054.464276 478.776563) scale(0.22 -0.22)">
       <defs>
        <path id="DejaVuSans-37" d="M 525 4666 
L 3525 4666 
L 3525 4397 
L 1831 0 
L 1172 0 
L 2766 4134 
L 525 4134 
L 525 4666 
z
" transform="scale(0.015625)"/>
       </defs>
       <use xlink:href="#DejaVuSans-37"/>
       <use xlink:href="#DejaVuSans-30" x="63.623047"/>
       <use xlink:href="#DejaVuSans-30" x="127.246094"/>
      </g>
     </g>
    </g>
   </g>
   <g id="matplotlib.axis_4">
    <g id="ytick_6">
     <g id="line2d_19">
      <g>
       <use xlink:href="#mea1290d370" x="738.947368" y="448.56" style="stroke: #000000; stroke-width: 2"/>
      </g>
     </g>
     <g id="text_20">
      <!-- 0.000 -->
      <g transform="translate(662.465493 456.918281) scale(0.22 -0.22)">
       <use xlink:href="#DejaVuSans-30"/>
       <use xlink:href="#DejaVuSans-2e" x="63.623047"/>
       <use xlink:href="#DejaVuSans-30" x="95.410156"/>
       <use xlink:href="#DejaVuSans-30" x="159.033203"/>
       <use xlink:href="#DejaVuSans-30" x="222.65625"/>
      </g>
     </g>
    </g>
    <g id="ytick_7">
     <g id="line2d_20">
      <g>
       <use xlink:href="#mea1290d370" x="738.947368" y="372.154375" style="stroke: #000000; stroke-width: 2"/>
      </g>
     </g>
     <g id="text_21">
      <!-- 0.002 -->
      <g transform="translate(662.465493 380.512656) scale(0.22 -0.22)">
       <use xlink:href="#DejaVuSans-30"/>
       <use xlink:href="#DejaVuSans-2e" x="63.623047"/>
       <use xlink:href="#DejaVuSans-30" x="95.410156"/>
       <use xlink:href="#DejaVuSans-30" x="159.033203"/>
       <use xlink:href="#DejaVuSans-32" x="222.65625"/>
      </g>
     </g>
    </g>
    <g id="ytick_8">
     <g id="line2d_21">
      <g>
       <use xlink:href="#mea1290d370" x="738.947368" y="295.748749" style="stroke: #000000; stroke-width: 2"/>
      </g>
     </g>
     <g id="text_22">
      <!-- 0.004 -->
      <g transform="translate(662.465493 304.107031) scale(0.22 -0.22)">
       <use xlink:href="#DejaVuSans-30"/>
       <use xlink:href="#DejaVuSans-2e" x="63.623047"/>
       <use xlink:href="#DejaVuSans-30" x="95.410156"/>
       <use xlink:href="#DejaVuSans-30" x="159.033203"/>
       <use xlink:href="#DejaVuSans-34" x="222.65625"/>
      </g>
     </g>
    </g>
    <g id="ytick_9">
     <g id="line2d_22">
      <g>
       <use xlink:href="#mea1290d370" x="738.947368" y="219.343124" style="stroke: #000000; stroke-width: 2"/>
      </g>
     </g>
     <g id="text_23">
      <!-- 0.006 -->
      <g transform="translate(662.465493 227.701405) scale(0.22 -0.22)">
       <use xlink:href="#DejaVuSans-30"/>
       <use xlink:href="#DejaVuSans-2e" x="63.623047"/>
       <use xlink:href="#DejaVuSans-30" x="95.410156"/>
       <use xlink:href="#DejaVuSans-30" x="159.033203"/>
       <use xlink:href="#DejaVuSans-36" x="222.65625"/>
      </g>
     </g>
    </g>
    <g id="ytick_10">
     <g id="line2d_23">
      <g>
       <use xlink:href="#mea1290d370" x="738.947368" y="142.937499" style="stroke: #000000; stroke-width: 2"/>
      </g>
     </g>
     <g id="text_24">
      <!-- 0.008 -->
      <g transform="translate(662.465493 151.29578) scale(0.22 -0.22)">
       <defs>
        <path id="DejaVuSans-38" d="M 2034 2216 
Q 1584 2216 1326 1975 
Q 1069 1734 1069 1313 
Q 1069 891 1326 650 
Q 1584 409 2034 409 
Q 2484 409 2743 651 
Q 3003 894 3003 1313 
Q 3003 1734 2745 1975 
Q 2488 2216 2034 2216 
z
M 1403 2484 
Q 997 2584 770 2862 
Q 544 3141 544 3541 
Q 544 4100 942 4425 
Q 1341 4750 2034 4750 
Q 2731 4750 3128 4425 
Q 3525 4100 3525 3541 
Q 3525 3141 3298 2862 
Q 3072 2584 2669 2484 
Q 3125 2378 3379 2068 
Q 3634 1759 3634 1313 
Q 3634 634 3220 271 
Q 2806 -91 2034 -91 
Q 1263 -91 848 271 
Q 434 634 434 1313 
Q 434 1759 690 2068 
Q 947 2378 1403 2484 
z
M 1172 3481 
Q 1172 3119 1398 2916 
Q 1625 2713 2034 2713 
Q 2441 2713 2670 2916 
Q 2900 3119 2900 3481 
Q 2900 3844 2670 4047 
Q 2441 4250 2034 4250 
Q 1625 4250 1398 4047 
Q 1172 3844 1172 3481 
z
" transform="scale(0.015625)"/>
       </defs>
       <use xlink:href="#DejaVuSans-30"/>
       <use xlink:href="#DejaVuSans-2e" x="63.623047"/>
       <use xlink:href="#DejaVuSans-30" x="95.410156"/>
       <use xlink:href="#DejaVuSans-30" x="159.033203"/>
       <use xlink:href="#DejaVuSans-38" x="222.65625"/>
      </g>
     </g>
    </g>
    <g id="ytick_11">
     <g id="line2d_24">
      <g>
       <use xlink:href="#mea1290d370" x="738.947368" y="66.531873" style="stroke: #000000; stroke-width: 2"/>
      </g>
     </g>
     <g id="text_25">
      <!-- 0.010 -->
      <g transform="translate(662.465493 74.890154) scale(0.22 -0.22)">
       <use xlink:href="#DejaVuSans-30"/>
       <use xlink:href="#DejaVuSans-2e" x="63.623047"/>
       <use xlink:href="#DejaVuSans-30" x="95.410156"/>
       <use xlink:href="#DejaVuSans-31" x="159.033203"/>
       <use xlink:href="#DejaVuSans-30" x="222.65625"/>
      </g>
     </g>
    </g>
    <g id="text_26">
     <!-- Density -->
     <g transform="translate(656.385806 273.528594) rotate(-90) scale(0.1 -0.1)">
      <use xlink:href="#DejaVuSans-44"/>
      <use xlink:href="#DejaVuSans-65" x="77.001953"/>
      <use xlink:href="#DejaVuSans-6e" x="138.525391"/>
      <use xlink:href="#DejaVuSans-73" x="201.904297"/>
      <use xlink:href="#DejaVuSans-69" x="254.003906"/>
      <use xlink:href="#DejaVuSans-74" x="281.787109"/>
      <use xlink:href="#DejaVuSans-79" x="320.996094"/>
     </g>
    </g>
   </g>
   <g id="patch_8">
    <path d="M 738.947368 448.56 
L 738.947368 60.48 
" style="fill: none; stroke: #000000; stroke-width: 0.8; stroke-linejoin: miter; stroke-linecap: square"/>
   </g>
   <g id="patch_9">
    <path d="M 1106.052632 448.56 
L 1106.052632 60.48 
" style="fill: none; stroke: #000000; stroke-width: 0.8; stroke-linejoin: miter; stroke-linecap: square"/>
   </g>
   <g id="patch_10">
    <path d="M 738.947368 448.56 
L 1106.052632 448.56 
" style="fill: none; stroke: #000000; stroke-width: 0.8; stroke-linejoin: miter; stroke-linecap: square"/>
   </g>
   <g id="patch_11">
    <path d="M 738.947368 60.48 
L 1106.052632 60.48 
" style="fill: none; stroke: #000000; stroke-width: 0.8; stroke-linejoin: miter; stroke-linecap: square"/>
   </g>
  </g>
  <g id="axes_3">
   <g id="patch_12">
    <path d="M 1252.894737 448.56 
L 1620 448.56 
L 1620 60.48 
L 1252.894737 60.48 
z
" style="fill: #ffffff"/>
   </g>
   <g id="PolyCollection_5">
    <defs>
     <path id="m0a995a63f8" d="M 1269.114149 -55.462165 
L 1269.114149 -55.44 
L 1270.750793 -55.44 
L 1272.387437 -55.44 
L 1274.024082 -55.44 
L 1275.660726 -55.44 
L 1277.29737 -55.44 
L 1278.934014 -55.44 
L 1280.570658 -55.44 
L 1282.207302 -55.44 
L 1283.843946 -55.44 
L 1285.480591 -55.44 
L 1287.117235 -55.44 
L 1288.753879 -55.44 
L 1290.390523 -55.44 
L 1292.027167 -55.44 
L 1293.663811 -55.44 
L 1295.300455 -55.44 
L 1296.937099 -55.44 
L 1298.573744 -55.44 
L 1300.210388 -55.44 
L 1301.847032 -55.44 
L 1303.483676 -55.44 
L 1305.12032 -55.44 
L 1306.756964 -55.44 
L 1308.393608 -55.44 
L 1310.030253 -55.44 
L 1311.666897 -55.44 
L 1313.303541 -55.44 
L 1314.940185 -55.44 
L 1316.576829 -55.44 
L 1318.213473 -55.44 
L 1319.850117 -55.44 
L 1321.486762 -55.44 
L 1323.123406 -55.44 
L 1324.76005 -55.44 
L 1326.396694 -55.44 
L 1328.033338 -55.44 
L 1329.669982 -55.44 
L 1331.306626 -55.44 
L 1332.943271 -55.44 
L 1334.579915 -55.44 
L 1336.216559 -55.44 
L 1337.853203 -55.44 
L 1339.489847 -55.44 
L 1341.126491 -55.44 
L 1342.763135 -55.44 
L 1344.399779 -55.44 
L 1346.036424 -55.44 
L 1347.673068 -55.44 
L 1349.309712 -55.44 
L 1350.946356 -55.44 
L 1352.583 -55.44 
L 1354.219644 -55.44 
L 1355.856288 -55.44 
L 1357.492933 -55.44 
L 1359.129577 -55.44 
L 1360.766221 -55.44 
L 1362.402865 -55.44 
L 1364.039509 -55.44 
L 1365.676153 -55.44 
L 1367.312797 -55.44 
L 1368.949442 -55.44 
L 1370.586086 -55.44 
L 1372.22273 -55.44 
L 1373.859374 -55.44 
L 1375.496018 -55.44 
L 1377.132662 -55.44 
L 1378.769306 -55.44 
L 1380.40595 -55.44 
L 1382.042595 -55.44 
L 1383.679239 -55.44 
L 1385.315883 -55.44 
L 1386.952527 -55.44 
L 1388.589171 -55.44 
L 1390.225815 -55.44 
L 1391.862459 -55.44 
L 1393.499104 -55.44 
L 1395.135748 -55.44 
L 1396.772392 -55.44 
L 1398.409036 -55.44 
L 1400.04568 -55.44 
L 1401.682324 -55.44 
L 1403.318968 -55.44 
L 1404.955613 -55.44 
L 1406.592257 -55.44 
L 1408.228901 -55.44 
L 1409.865545 -55.44 
L 1411.502189 -55.44 
L 1413.138833 -55.44 
L 1414.775477 -55.44 
L 1416.412121 -55.44 
L 1418.048766 -55.44 
L 1419.68541 -55.44 
L 1421.322054 -55.44 
L 1422.958698 -55.44 
L 1424.595342 -55.44 
L 1426.231986 -55.44 
L 1427.86863 -55.44 
L 1429.505275 -55.44 
L 1431.141919 -55.44 
L 1432.778563 -55.44 
L 1434.415207 -55.44 
L 1436.051851 -55.44 
L 1437.688495 -55.44 
L 1439.325139 -55.44 
L 1440.961784 -55.44 
L 1442.598428 -55.44 
L 1444.235072 -55.44 
L 1445.871716 -55.44 
L 1447.50836 -55.44 
L 1449.145004 -55.44 
L 1450.781648 -55.44 
L 1452.418293 -55.44 
L 1454.054937 -55.44 
L 1455.691581 -55.44 
L 1457.328225 -55.44 
L 1458.964869 -55.44 
L 1460.601513 -55.44 
L 1462.238157 -55.44 
L 1463.874801 -55.44 
L 1465.511446 -55.44 
L 1467.14809 -55.44 
L 1468.784734 -55.44 
L 1470.421378 -55.44 
L 1472.058022 -55.44 
L 1473.694666 -55.44 
L 1475.33131 -55.44 
L 1476.967955 -55.44 
L 1478.604599 -55.44 
L 1480.241243 -55.44 
L 1481.877887 -55.44 
L 1483.514531 -55.44 
L 1485.151175 -55.44 
L 1486.787819 -55.44 
L 1488.424464 -55.44 
L 1490.061108 -55.44 
L 1491.697752 -55.44 
L 1493.334396 -55.44 
L 1494.97104 -55.44 
L 1496.607684 -55.44 
L 1498.244328 -55.44 
L 1499.880972 -55.44 
L 1501.517617 -55.44 
L 1503.154261 -55.44 
L 1504.790905 -55.44 
L 1506.427549 -55.44 
L 1508.064193 -55.44 
L 1509.700837 -55.44 
L 1511.337481 -55.44 
L 1512.974126 -55.44 
L 1514.61077 -55.44 
L 1516.247414 -55.44 
L 1517.884058 -55.44 
L 1519.520702 -55.44 
L 1521.157346 -55.44 
L 1522.79399 -55.44 
L 1524.430635 -55.44 
L 1526.067279 -55.44 
L 1527.703923 -55.44 
L 1529.340567 -55.44 
L 1530.977211 -55.44 
L 1532.613855 -55.44 
L 1534.250499 -55.44 
L 1535.887143 -55.44 
L 1537.523788 -55.44 
L 1539.160432 -55.44 
L 1540.797076 -55.44 
L 1542.43372 -55.44 
L 1544.070364 -55.44 
L 1545.707008 -55.44 
L 1547.343652 -55.44 
L 1548.980297 -55.44 
L 1550.616941 -55.44 
L 1552.253585 -55.44 
L 1553.890229 -55.44 
L 1555.526873 -55.44 
L 1557.163517 -55.44 
L 1558.800161 -55.44 
L 1560.436806 -55.44 
L 1562.07345 -55.44 
L 1563.710094 -55.44 
L 1565.346738 -55.44 
L 1566.983382 -55.44 
L 1568.620026 -55.44 
L 1570.25667 -55.44 
L 1571.893315 -55.44 
L 1573.529959 -55.44 
L 1575.166603 -55.44 
L 1576.803247 -55.44 
L 1578.439891 -55.44 
L 1580.076535 -55.44 
L 1581.713179 -55.44 
L 1583.349823 -55.44 
L 1584.986468 -55.44 
L 1586.623112 -55.44 
L 1588.259756 -55.44 
L 1589.8964 -55.44 
L 1591.533044 -55.44 
L 1593.169688 -55.44 
L 1594.806332 -55.44 
L 1594.806332 -55.453549 
L 1594.806332 -55.453549 
L 1593.169688 -55.461826 
L 1591.533044 -55.474232 
L 1589.8964 -55.492276 
L 1588.259756 -55.51773 
L 1586.623112 -55.552533 
L 1584.986468 -55.59863 
L 1583.349823 -55.657722 
L 1581.713179 -55.730959 
L 1580.076535 -55.818599 
L 1578.439891 -55.919677 
L 1576.803247 -56.031766 
L 1575.166603 -56.150883 
L 1573.529959 -56.271609 
L 1571.893315 -56.38745 
L 1570.25667 -56.49144 
L 1568.620026 -56.576915 
L 1566.983382 -56.638395 
L 1565.346738 -56.672433 
L 1563.710094 -56.678317 
L 1562.07345 -56.65854 
L 1560.436806 -56.618978 
L 1558.800161 -56.568775 
L 1557.163517 -56.519981 
L 1555.526873 -56.487041 
L 1553.890229 -56.486212 
L 1552.253585 -56.534996 
L 1550.616941 -56.651636 
L 1548.980297 -56.854692 
L 1547.343652 -57.162662 
L 1545.707008 -57.593611 
L 1544.070364 -58.164746 
L 1542.43372 -58.891883 
L 1540.797076 -59.788798 
L 1539.160432 -60.866418 
L 1537.523788 -62.131902 
L 1535.887143 -63.587626 
L 1534.250499 -65.230151 
L 1532.613855 -67.04928 
L 1530.977211 -69.027356 
L 1529.340567 -71.138977 
L 1527.703923 -73.351366 
L 1526.067279 -75.625595 
L 1524.430635 -77.918803 
L 1522.79399 -80.187431 
L 1521.157346 -82.391317 
L 1519.520702 -84.498264 
L 1517.884058 -86.48855 
L 1516.247414 -88.358709 
L 1514.61077 -90.123925 
L 1512.974126 -91.81851 
L 1511.337481 -93.494164 
L 1509.700837 -95.216035 
L 1508.064193 -97.056881 
L 1506.427549 -99.089909 
L 1504.790905 -101.381016 
L 1503.154261 -103.981254 
L 1501.517617 -106.920318 
L 1499.880972 -110.201818 
L 1498.244328 -113.800991 
L 1496.607684 -117.665377 
L 1494.97104 -121.718755 
L 1493.334396 -125.868315 
L 1491.697752 -130.01462 
L 1490.061108 -134.063386 
L 1488.424464 -137.937661 
L 1486.787819 -141.588645 
L 1485.151175 -145.003386 
L 1483.514531 -148.20793 
L 1481.877887 -151.265185 
L 1480.241243 -154.267693 
L 1478.604599 -157.326446 
L 1476.967955 -160.557586 
L 1475.33131 -164.069197 
L 1473.694666 -167.95017 
L 1472.058022 -172.262612 
L 1470.421378 -177.03837 
L 1468.784734 -182.279462 
L 1467.14809 -187.961545 
L 1465.511446 -194.039281 
L 1463.874801 -200.45251 
L 1462.238157 -207.132442 
L 1460.601513 -214.007414 
L 1458.964869 -221.008044 
L 1457.328225 -228.071707 
L 1455.691581 -235.146204 
L 1454.054937 -242.192364 
L 1452.418293 -249.185266 
L 1450.781648 -256.113828 
L 1449.145004 -262.97873 
L 1447.50836 -269.788937 
L 1445.871716 -276.557427 
L 1444.235072 -283.296874 
L 1442.598428 -290.016102 
L 1440.961784 -296.717969 
L 1439.325139 -303.399084 
L 1437.688495 -310.051421 
L 1436.051851 -316.665598 
L 1434.415207 -323.235241 
L 1432.778563 -329.761593 
L 1431.141919 -336.257314 
L 1429.505275 -342.748292 
L 1427.86863 -349.272376 
L 1426.231986 -355.874278 
L 1424.595342 -362.596511 
L 1422.958698 -369.467103 
L 1421.322054 -376.485749 
L 1419.68541 -383.610843 
L 1418.048766 -390.750189 
L 1416.412121 -397.757966 
L 1414.775477 -404.439628 
L 1413.138833 -410.565041 
L 1411.502189 -415.888532 
L 1409.865545 -420.173048 
L 1408.228901 -423.214724 
L 1406.592257 -424.863985 
L 1404.955613 -425.04 
L 1403.318968 -423.736628 
L 1401.682324 -421.019616 
L 1400.04568 -417.016276 
L 1398.409036 -411.899875 
L 1396.772392 -405.871326 
L 1395.135748 -399.140495 
L 1393.499104 -391.908831 
L 1391.862459 -384.354347 
L 1390.225815 -376.619494 
L 1388.589171 -368.802335 
L 1386.952527 -360.951498 
L 1385.315883 -353.065527 
L 1383.679239 -345.097191 
L 1382.042595 -336.962893 
L 1380.40595 -328.556607 
L 1378.769306 -319.766875 
L 1377.132662 -310.494645 
L 1375.496018 -300.669363 
L 1373.859374 -290.260928 
L 1372.22273 -279.285863 
L 1370.586086 -267.807131 
L 1368.949442 -255.928231 
L 1367.312797 -243.783144 
L 1365.676153 -231.524256 
L 1364.039509 -219.310354 
L 1362.402865 -207.296395 
L 1360.766221 -195.625989 
L 1359.129577 -184.426738 
L 1357.492933 -173.807962 
L 1355.856288 -163.859872 
L 1354.219644 -154.653272 
L 1352.583 -146.239 
L 1350.946356 -138.646804 
L 1349.309712 -131.883738 
L 1347.673068 -125.932648 
L 1346.036424 -120.751487 
L 1344.399779 -116.274256 
L 1342.763135 -112.414118 
L 1341.126491 -109.068839 
L 1339.489847 -106.128195 
L 1337.853203 -103.482542 
L 1336.216559 -101.031387 
L 1334.579915 -98.690755 
L 1332.943271 -96.398315 
L 1331.306626 -94.115596 
L 1329.669982 -91.827213 
L 1328.033338 -89.537487 
L 1326.396694 -87.265255 
L 1324.76005 -85.037878 
L 1323.123406 -82.885369 
L 1321.486762 -80.835405 
L 1319.850117 -78.909643 
L 1318.213473 -77.121485 
L 1316.576829 -75.475187 
L 1314.940185 -73.966124 
L 1313.303541 -72.58193 
L 1311.666897 -71.304333 
L 1310.030253 -70.111451 
L 1308.393608 -68.980368 
L 1306.756964 -67.889754 
L 1305.12032 -66.82225 
L 1303.483676 -65.766333 
L 1301.847032 -64.717405 
L 1300.210388 -63.677935 
L 1298.573744 -62.656657 
L 1296.937099 -61.666951 
L 1295.300455 -60.724696 
L 1293.663811 -59.845956 
L 1292.027167 -59.044848 
L 1290.390523 -58.331906 
L 1288.753879 -57.713094 
L 1287.117235 -57.189547 
L 1285.480591 -56.757926 
L 1283.843946 -56.41125 
L 1282.207302 -56.139989 
L 1280.570658 -55.933219 
L 1278.934014 -55.779674 
L 1277.29737 -55.66859 
L 1275.660726 -55.590291 
L 1274.024082 -55.536517 
L 1272.387437 -55.500534 
L 1270.750793 -55.477072 
L 1269.114149 -55.462165 
z
" style="stroke: #ff0000"/>
    </defs>
    <g clip-path="url(#pfb957b40c0)">
     <use xlink:href="#m0a995a63f8" x="0" y="504" style="fill: #ff0000; fill-opacity: 0.25; stroke: #ff0000"/>
    </g>
   </g>
   <g id="PolyCollection_6">
    <defs>
     <path id="m688b74aa0a" d="M 1237.154382 -55.440972 
L 1237.154382 -55.44 
L 1238.883252 -55.44 
L 1240.612122 -55.44 
L 1242.340992 -55.44 
L 1244.069862 -55.44 
L 1245.798732 -55.44 
L 1247.527602 -55.44 
L 1249.256472 -55.44 
L 1250.985342 -55.44 
L 1252.714212 -55.44 
L 1254.443082 -55.44 
L 1256.171953 -55.44 
L 1257.900823 -55.44 
L 1259.629693 -55.44 
L 1261.358563 -55.44 
L 1263.087433 -55.44 
L 1264.816303 -55.44 
L 1266.545173 -55.44 
L 1268.274043 -55.44 
L 1270.002913 -55.44 
L 1271.731783 -55.44 
L 1273.460653 -55.44 
L 1275.189523 -55.44 
L 1276.918393 -55.44 
L 1278.647263 -55.44 
L 1280.376134 -55.44 
L 1282.105004 -55.44 
L 1283.833874 -55.44 
L 1285.562744 -55.44 
L 1287.291614 -55.44 
L 1289.020484 -55.44 
L 1290.749354 -55.44 
L 1292.478224 -55.44 
L 1294.207094 -55.44 
L 1295.935964 -55.44 
L 1297.664834 -55.44 
L 1299.393704 -55.44 
L 1301.122574 -55.44 
L 1302.851444 -55.44 
L 1304.580315 -55.44 
L 1306.309185 -55.44 
L 1308.038055 -55.44 
L 1309.766925 -55.44 
L 1311.495795 -55.44 
L 1313.224665 -55.44 
L 1314.953535 -55.44 
L 1316.682405 -55.44 
L 1318.411275 -55.44 
L 1320.140145 -55.44 
L 1321.869015 -55.44 
L 1323.597885 -55.44 
L 1325.326755 -55.44 
L 1327.055626 -55.44 
L 1328.784496 -55.44 
L 1330.513366 -55.44 
L 1332.242236 -55.44 
L 1333.971106 -55.44 
L 1335.699976 -55.44 
L 1337.428846 -55.44 
L 1339.157716 -55.44 
L 1340.886586 -55.44 
L 1342.615456 -55.44 
L 1344.344326 -55.44 
L 1346.073196 -55.44 
L 1347.802066 -55.44 
L 1349.530936 -55.44 
L 1351.259807 -55.44 
L 1352.988677 -55.44 
L 1354.717547 -55.44 
L 1356.446417 -55.44 
L 1358.175287 -55.44 
L 1359.904157 -55.44 
L 1361.633027 -55.44 
L 1363.361897 -55.44 
L 1365.090767 -55.44 
L 1366.819637 -55.44 
L 1368.548507 -55.44 
L 1370.277377 -55.44 
L 1372.006247 -55.44 
L 1373.735117 -55.44 
L 1375.463988 -55.44 
L 1377.192858 -55.44 
L 1378.921728 -55.44 
L 1380.650598 -55.44 
L 1382.379468 -55.44 
L 1384.108338 -55.44 
L 1385.837208 -55.44 
L 1387.566078 -55.44 
L 1389.294948 -55.44 
L 1391.023818 -55.44 
L 1392.752688 -55.44 
L 1394.481558 -55.44 
L 1396.210428 -55.44 
L 1397.939298 -55.44 
L 1399.668169 -55.44 
L 1401.397039 -55.44 
L 1403.125909 -55.44 
L 1404.854779 -55.44 
L 1406.583649 -55.44 
L 1408.312519 -55.44 
L 1410.041389 -55.44 
L 1411.770259 -55.44 
L 1413.499129 -55.44 
L 1415.227999 -55.44 
L 1416.956869 -55.44 
L 1418.685739 -55.44 
L 1420.414609 -55.44 
L 1422.143479 -55.44 
L 1423.87235 -55.44 
L 1425.60122 -55.44 
L 1427.33009 -55.44 
L 1429.05896 -55.44 
L 1430.78783 -55.44 
L 1432.5167 -55.44 
L 1434.24557 -55.44 
L 1435.97444 -55.44 
L 1437.70331 -55.44 
L 1439.43218 -55.44 
L 1441.16105 -55.44 
L 1442.88992 -55.44 
L 1444.61879 -55.44 
L 1446.347661 -55.44 
L 1448.076531 -55.44 
L 1449.805401 -55.44 
L 1451.534271 -55.44 
L 1453.263141 -55.44 
L 1454.992011 -55.44 
L 1456.720881 -55.44 
L 1458.449751 -55.44 
L 1460.178621 -55.44 
L 1461.907491 -55.44 
L 1463.636361 -55.44 
L 1465.365231 -55.44 
L 1467.094101 -55.44 
L 1468.822971 -55.44 
L 1470.551842 -55.44 
L 1472.280712 -55.44 
L 1474.009582 -55.44 
L 1475.738452 -55.44 
L 1477.467322 -55.44 
L 1479.196192 -55.44 
L 1480.925062 -55.44 
L 1482.653932 -55.44 
L 1484.382802 -55.44 
L 1486.111672 -55.44 
L 1487.840542 -55.44 
L 1489.569412 -55.44 
L 1491.298282 -55.44 
L 1493.027152 -55.44 
L 1494.756023 -55.44 
L 1496.484893 -55.44 
L 1498.213763 -55.44 
L 1499.942633 -55.44 
L 1501.671503 -55.44 
L 1503.400373 -55.44 
L 1505.129243 -55.44 
L 1506.858113 -55.44 
L 1508.586983 -55.44 
L 1510.315853 -55.44 
L 1512.044723 -55.44 
L 1513.773593 -55.44 
L 1515.502463 -55.44 
L 1517.231333 -55.44 
L 1518.960204 -55.44 
L 1520.689074 -55.44 
L 1522.417944 -55.44 
L 1524.146814 -55.44 
L 1525.875684 -55.44 
L 1527.604554 -55.44 
L 1529.333424 -55.44 
L 1531.062294 -55.44 
L 1532.791164 -55.44 
L 1534.520034 -55.44 
L 1536.248904 -55.44 
L 1537.977774 -55.44 
L 1539.706644 -55.44 
L 1541.435514 -55.44 
L 1543.164385 -55.44 
L 1544.893255 -55.44 
L 1546.622125 -55.44 
L 1548.350995 -55.44 
L 1550.079865 -55.44 
L 1551.808735 -55.44 
L 1553.537605 -55.44 
L 1555.266475 -55.44 
L 1556.995345 -55.44 
L 1558.724215 -55.44 
L 1560.453085 -55.44 
L 1562.181955 -55.44 
L 1563.910825 -55.44 
L 1565.639695 -55.44 
L 1567.368566 -55.44 
L 1569.097436 -55.44 
L 1570.826306 -55.44 
L 1572.555176 -55.44 
L 1574.284046 -55.44 
L 1576.012916 -55.44 
L 1577.741786 -55.44 
L 1579.470656 -55.44 
L 1581.199526 -55.44 
L 1581.199526 -55.442296 
L 1581.199526 -55.442296 
L 1579.470656 -55.445716 
L 1577.741786 -55.452913 
L 1576.012916 -55.466503 
L 1574.284046 -55.489521 
L 1572.555176 -55.524493 
L 1570.826306 -55.57225 
L 1569.097436 -55.631225 
L 1567.368566 -55.69799 
L 1565.639695 -55.769076 
L 1563.910825 -55.842898 
L 1562.181955 -55.920033 
L 1560.453085 -56.001139 
L 1558.724215 -56.084126 
L 1556.995345 -56.163824 
L 1555.266475 -56.236416 
L 1553.537605 -56.307068 
L 1551.808735 -56.395233 
L 1550.079865 -56.531464 
L 1548.350995 -56.744055 
L 1546.622125 -57.041278 
L 1544.893255 -57.400515 
L 1543.164385 -57.774124 
L 1541.435514 -58.112542 
L 1539.706644 -58.392815 
L 1537.977774 -58.634658 
L 1536.248904 -58.892636 
L 1534.520034 -59.22917 
L 1532.791164 -59.687175 
L 1531.062294 -60.281122 
L 1529.333424 -61.010041 
L 1527.604554 -61.877226 
L 1525.875684 -62.895511 
L 1524.146814 -64.070553 
L 1522.417944 -65.377013 
L 1520.689074 -66.754333 
L 1518.960204 -68.137017 
L 1517.231333 -69.505534 
L 1515.502463 -70.920233 
L 1513.773593 -72.504027 
L 1512.044723 -74.373258 
L 1510.315853 -76.55832 
L 1508.586983 -78.972253 
L 1506.858113 -81.457319 
L 1505.129243 -83.882239 
L 1503.400373 -86.220812 
L 1501.671503 -88.553667 
L 1499.942633 -90.994768 
L 1498.213763 -93.605738 
L 1496.484893 -96.372034 
L 1494.756023 -99.263904 
L 1493.027152 -102.331442 
L 1491.298282 -105.746958 
L 1489.569412 -109.741908 
L 1487.840542 -114.468199 
L 1486.111672 -119.881643 
L 1484.382802 -125.740947 
L 1482.653932 -131.734693 
L 1480.925062 -137.650558 
L 1479.196192 -143.465341 
L 1477.467322 -149.294599 
L 1475.738452 -155.251721 
L 1474.009582 -161.338155 
L 1472.280712 -167.458791 
L 1470.551842 -173.549128 
L 1468.822971 -179.700202 
L 1467.094101 -186.158034 
L 1465.365231 -193.170895 
L 1463.636361 -200.787104 
L 1461.907491 -208.762077 
L 1460.178621 -216.662361 
L 1458.449751 -224.106297 
L 1456.720881 -230.973332 
L 1454.992011 -237.435936 
L 1453.263141 -243.802953 
L 1451.534271 -250.302582 
L 1449.805401 -256.966929 
L 1448.076531 -263.686745 
L 1446.347661 -270.364678 
L 1444.61879 -277.021752 
L 1442.88992 -283.76147 
L 1441.16105 -290.625341 
L 1439.43218 -297.474901 
L 1437.70331 -304.022117 
L 1435.97444 -310.009282 
L 1434.24557 -315.408884 
L 1432.5167 -320.48336 
L 1430.78783 -325.643341 
L 1429.05896 -331.193865 
L 1427.33009 -337.143076 
L 1425.60122 -343.203693 
L 1423.87235 -348.980013 
L 1422.143479 -354.203802 
L 1420.414609 -358.85343 
L 1418.685739 -363.081791 
L 1416.956869 -367.023646 
L 1415.227999 -370.642837 
L 1413.499129 -373.743459 
L 1411.770259 -376.133528 
L 1410.041389 -377.803714 
L 1408.312519 -378.969453 
L 1406.583649 -379.932579 
L 1404.854779 -380.860776 
L 1403.125909 -381.648763 
L 1401.397039 -381.967227 
L 1399.668169 -381.470252 
L 1397.939298 -380.017985 
L 1396.210428 -377.757808 
L 1394.481558 -375.003051 
L 1392.752688 -371.987897 
L 1391.023818 -368.664294 
L 1389.294948 -364.6798 
L 1387.566078 -359.552213 
L 1385.837208 -352.925343 
L 1384.108338 -344.743305 
L 1382.379468 -335.24705 
L 1380.650598 -324.821922 
L 1378.921728 -313.816595 
L 1377.192858 -302.452165 
L 1375.463988 -290.857551 
L 1373.735117 -279.171164 
L 1372.006247 -267.60878 
L 1370.277377 -256.437161 
L 1368.548507 -245.876025 
L 1366.819637 -236.011293 
L 1365.090767 -226.793896 
L 1363.361897 -218.12946 
L 1361.633027 -209.990447 
L 1359.904157 -202.462283 
L 1358.175287 -195.684634 
L 1356.446417 -189.729904 
L 1354.717547 -184.510834 
L 1352.988677 -179.78932 
L 1351.259807 -175.284892 
L 1349.530936 -170.810128 
L 1347.802066 -166.34438 
L 1346.073196 -162.004352 
L 1344.344326 -157.940769 
L 1342.615456 -154.233028 
L 1340.886586 -150.844133 
L 1339.157716 -147.651721 
L 1337.428846 -144.523144 
L 1335.699976 -141.382481 
L 1333.971106 -138.232026 
L 1332.242236 -135.125754 
L 1330.513366 -132.122331 
L 1328.784496 -129.251437 
L 1327.055626 -126.509439 
L 1325.326755 -123.875996 
L 1323.597885 -121.331215 
L 1321.869015 -118.859301 
L 1320.140145 -116.439868 
L 1318.411275 -114.038582 
L 1316.682405 -111.607778 
L 1314.953535 -109.098875 
L 1313.224665 -106.479813 
L 1311.495795 -103.74821 
L 1309.766925 -100.934407 
L 1308.038055 -98.094069 
L 1306.309185 -95.29397 
L 1304.580315 -92.596003 
L 1302.851444 -90.044209 
L 1301.122574 -87.658246 
L 1299.393704 -85.433768 
L 1297.664834 -83.3469 
L 1295.935964 -81.359105 
L 1294.207094 -79.422086 
L 1292.478224 -77.486418 
L 1290.749354 -75.516684 
L 1289.020484 -73.508959 
L 1287.291614 -71.499998 
L 1285.562744 -69.559319 
L 1283.833874 -67.765386 
L 1282.105004 -66.177445 
L 1280.376134 -64.817226 
L 1278.647263 -63.668313 
L 1276.918393 -62.690806 
L 1275.189523 -61.841278 
L 1273.460653 -61.086884 
L 1271.731783 -60.407841 
L 1270.002913 -59.790788 
L 1268.274043 -59.221266 
L 1266.545173 -58.682643 
L 1264.816303 -58.162294 
L 1263.087433 -57.659175 
L 1261.358563 -57.185771 
L 1259.629693 -56.762107 
L 1257.900823 -56.405726 
L 1256.171953 -56.124006 
L 1254.443082 -55.912675 
L 1252.714212 -55.759754 
L 1250.985342 -55.651242 
L 1249.256472 -55.57514 
L 1247.527602 -55.522711 
L 1245.798732 -55.487824 
L 1244.069862 -55.465837 
L 1242.340992 -55.452933 
L 1240.612122 -55.44596 
L 1238.883252 -55.442518 
L 1237.154382 -55.440972 
z
" style="stroke: #0000ff"/>
    </defs>
    <g clip-path="url(#pfb957b40c0)">
     <use xlink:href="#m688b74aa0a" x="0" y="504" style="fill: #0000ff; fill-opacity: 0.25; stroke: #0000ff"/>
    </g>
   </g>
   <g id="matplotlib.axis_5">
    <g id="xtick_14">
     <g id="line2d_25">
      <g>
       <use xlink:href="#mc81cde9b55" x="1307.960526" y="448.56" style="stroke: #000000; stroke-width: 2"/>
      </g>
     </g>
     <g id="text_27">
      <!-- 0 -->
      <g transform="translate(1300.961776 478.776563) scale(0.22 -0.22)">
       <use xlink:href="#DejaVuSans-30"/>
      </g>
     </g>
    </g>
    <g id="xtick_15">
     <g id="line2d_26">
      <g>
       <use xlink:href="#mc81cde9b55" x="1381.381579" y="448.56" style="stroke: #000000; stroke-width: 2"/>
      </g>
     </g>
     <g id="text_28">
      <!-- 2 -->
      <g transform="translate(1374.382829 478.776563) scale(0.22 -0.22)">
       <use xlink:href="#DejaVuSans-32"/>
      </g>
     </g>
    </g>
    <g id="xtick_16">
     <g id="line2d_27">
      <g>
       <use xlink:href="#mc81cde9b55" x="1454.802632" y="448.56" style="stroke: #000000; stroke-width: 2"/>
      </g>
     </g>
     <g id="text_29">
      <!-- 4 -->
      <g transform="translate(1447.803882 478.776563) scale(0.22 -0.22)">
       <use xlink:href="#DejaVuSans-34"/>
      </g>
     </g>
    </g>
    <g id="xtick_17">
     <g id="line2d_28">
      <g>
       <use xlink:href="#mc81cde9b55" x="1528.223684" y="448.56" style="stroke: #000000; stroke-width: 2"/>
      </g>
     </g>
     <g id="text_30">
      <!-- 6 -->
      <g transform="translate(1521.224934 478.776563) scale(0.22 -0.22)">
       <use xlink:href="#DejaVuSans-36"/>
      </g>
     </g>
    </g>
    <g id="xtick_18">
     <g id="line2d_29">
      <g>
       <use xlink:href="#mc81cde9b55" x="1601.644737" y="448.56" style="stroke: #000000; stroke-width: 2"/>
      </g>
     </g>
     <g id="text_31">
      <!-- 8 -->
      <g transform="translate(1594.645987 478.776563) scale(0.22 -0.22)">
       <use xlink:href="#DejaVuSans-38"/>
      </g>
     </g>
    </g>
   </g>
   <g id="matplotlib.axis_6">
    <g id="ytick_12">
     <g id="line2d_30">
      <g>
       <use xlink:href="#mea1290d370" x="1252.894737" y="448.56" style="stroke: #000000; stroke-width: 2"/>
      </g>
     </g>
     <g id="text_32">
      <!-- 0.0 -->
      <g transform="translate(1204.407862 456.918281) scale(0.22 -0.22)">
       <use xlink:href="#DejaVuSans-30"/>
       <use xlink:href="#DejaVuSans-2e" x="63.623047"/>
       <use xlink:href="#DejaVuSans-30" x="95.410156"/>
      </g>
     </g>
    </g>
    <g id="ytick_13">
     <g id="line2d_31">
      <g>
       <use xlink:href="#mea1290d370" x="1252.894737" y="351.949362" style="stroke: #000000; stroke-width: 2"/>
      </g>
     </g>
     <g id="text_33">
      <!-- 0.1 -->
      <g transform="translate(1204.407862 360.307643) scale(0.22 -0.22)">
       <use xlink:href="#DejaVuSans-30"/>
       <use xlink:href="#DejaVuSans-2e" x="63.623047"/>
       <use xlink:href="#DejaVuSans-31" x="95.410156"/>
      </g>
     </g>
    </g>
    <g id="ytick_14">
     <g id="line2d_32">
      <g>
       <use xlink:href="#mea1290d370" x="1252.894737" y="255.338723" style="stroke: #000000; stroke-width: 2"/>
      </g>
     </g>
     <g id="text_34">
      <!-- 0.2 -->
      <g transform="translate(1204.407862 263.697005) scale(0.22 -0.22)">
       <use xlink:href="#DejaVuSans-30"/>
       <use xlink:href="#DejaVuSans-2e" x="63.623047"/>
       <use xlink:href="#DejaVuSans-32" x="95.410156"/>
      </g>
     </g>
    </g>
    <g id="ytick_15">
     <g id="line2d_33">
      <g>
       <use xlink:href="#mea1290d370" x="1252.894737" y="158.728085" style="stroke: #000000; stroke-width: 2"/>
      </g>
     </g>
     <g id="text_35">
      <!-- 0.3 -->
      <g transform="translate(1204.407862 167.086366) scale(0.22 -0.22)">
       <use xlink:href="#DejaVuSans-30"/>
       <use xlink:href="#DejaVuSans-2e" x="63.623047"/>
       <use xlink:href="#DejaVuSans-33" x="95.410156"/>
      </g>
     </g>
    </g>
    <g id="ytick_16">
     <g id="line2d_34">
      <g>
       <use xlink:href="#mea1290d370" x="1252.894737" y="62.117447" style="stroke: #000000; stroke-width: 2"/>
      </g>
     </g>
     <g id="text_36">
      <!-- 0.4 -->
      <g transform="translate(1204.407862 70.475728) scale(0.22 -0.22)">
       <use xlink:href="#DejaVuSans-30"/>
       <use xlink:href="#DejaVuSans-2e" x="63.623047"/>
       <use xlink:href="#DejaVuSans-34" x="95.410156"/>
      </g>
     </g>
    </g>
    <g id="text_37">
     <!-- Density -->
     <g transform="translate(1198.328174 273.528594) rotate(-90) scale(0.1 -0.1)">
      <use xlink:href="#DejaVuSans-44"/>
      <use xlink:href="#DejaVuSans-65" x="77.001953"/>
      <use xlink:href="#DejaVuSans-6e" x="138.525391"/>
      <use xlink:href="#DejaVuSans-73" x="201.904297"/>
      <use xlink:href="#DejaVuSans-69" x="254.003906"/>
      <use xlink:href="#DejaVuSans-74" x="281.787109"/>
      <use xlink:href="#DejaVuSans-79" x="320.996094"/>
     </g>
    </g>
   </g>
   <g id="patch_13">
    <path d="M 1252.894737 448.56 
L 1252.894737 60.48 
" style="fill: none; stroke: #000000; stroke-width: 0.8; stroke-linejoin: miter; stroke-linecap: square"/>
   </g>
   <g id="patch_14">
    <path d="M 1620 448.56 
L 1620 60.48 
" style="fill: none; stroke: #000000; stroke-width: 0.8; stroke-linejoin: miter; stroke-linecap: square"/>
   </g>
   <g id="patch_15">
    <path d="M 1252.894737 448.56 
L 1620 448.56 
" style="fill: none; stroke: #000000; stroke-width: 0.8; stroke-linejoin: miter; stroke-linecap: square"/>
   </g>
   <g id="patch_16">
    <path d="M 1252.894737 60.48 
L 1620 60.48 
" style="fill: none; stroke: #000000; stroke-width: 0.8; stroke-linejoin: miter; stroke-linecap: square"/>
   </g>
  </g>
 </g>
 <defs>
  <clipPath id="pd3fdd2ed81">
   <rect x="225" y="60.48" width="367.105263" height="388.08"/>
  </clipPath>
  <clipPath id="pf14373db0f">
   <rect x="738.947368" y="60.48" width="367.105263" height="388.08"/>
  </clipPath>
  <clipPath id="pfb957b40c0">
   <rect x="1252.894737" y="60.48" width="367.105263" height="388.08"/>
  </clipPath>
 </defs>
</svg>
