<?xml version="1.0" encoding="utf-8" standalone="no"?>
<!DOCTYPE svg PUBLIC "-//W3C//DTD SVG 1.1//EN"
  "http://www.w3.org/Graphics/SVG/1.1/DTD/svg11.dtd">
<svg xmlns:xlink="http://www.w3.org/1999/xlink" width="1800pt" height="504pt" viewBox="0 0 1800 504" xmlns="http://www.w3.org/2000/svg" version="1.1">
 <metadata>
  <rdf:RDF xmlns:dc="http://purl.org/dc/elements/1.1/" xmlns:cc="http://creativecommons.org/ns#" xmlns:rdf="http://www.w3.org/1999/02/22-rdf-syntax-ns#">
   <cc:Work>
    <dc:type rdf:resource="http://purl.org/dc/dcmitype/StillImage"/>
    <dc:date>2023-09-06T22:05:57.586524</dc:date>
    <dc:format>image/svg+xml</dc:format>
    <dc:creator>
     <cc:Agent>
      <dc:title>Matplotlib v3.7.1, https://matplotlib.org/</dc:title>
     </cc:Agent>
    </dc:creator>
   </cc:Work>
  </rdf:RDF>
 </metadata>
 <defs>
  <style type="text/css">*{stroke-linejoin: round; stroke-linecap: butt}</style>
 </defs>
 <g id="figure_1">
  <g id="patch_1">
   <path d="M 0 504 
L 1800 504 
L 1800 0 
L 0 0 
z
" style="fill: #ffffff"/>
  </g>
  <g id="axes_1">
   <g id="patch_2">
    <path d="M 225 448.56 
L 592.105263 448.56 
L 592.105263 60.48 
L 225 60.48 
z
" style="fill: #ffffff"/>
   </g>
   <g id="PolyCollection_1">
    <defs>
     <path id="m3db817d367" d="M 259.725089 -55.451164 
L 259.725089 -55.44 
L 261.084593 -55.44 
L 262.444098 -55.44 
L 263.803602 -55.44 
L 265.163107 -55.44 
L 266.522612 -55.44 
L 267.882116 -55.44 
L 269.241621 -55.44 
L 270.601125 -55.44 
L 271.96063 -55.44 
L 273.320135 -55.44 
L 274.679639 -55.44 
L 276.039144 -55.44 
L 277.398648 -55.44 
L 278.758153 -55.44 
L 280.117658 -55.44 
L 281.477162 -55.44 
L 282.836667 -55.44 
L 284.196171 -55.44 
L 285.555676 -55.44 
L 286.915181 -55.44 
L 288.274685 -55.44 
L 289.63419 -55.44 
L 290.993694 -55.44 
L 292.353199 -55.44 
L 293.712704 -55.44 
L 295.072208 -55.44 
L 296.431713 -55.44 
L 297.791217 -55.44 
L 299.150722 -55.44 
L 300.510226 -55.44 
L 301.869731 -55.44 
L 303.229236 -55.44 
L 304.58874 -55.44 
L 305.948245 -55.44 
L 307.307749 -55.44 
L 308.667254 -55.44 
L 310.026759 -55.44 
L 311.386263 -55.44 
L 312.745768 -55.44 
L 314.105272 -55.44 
L 315.464777 -55.44 
L 316.824282 -55.44 
L 318.183786 -55.44 
L 319.543291 -55.44 
L 320.902795 -55.44 
L 322.2623 -55.44 
L 323.621805 -55.44 
L 324.981309 -55.44 
L 326.340814 -55.44 
L 327.700318 -55.44 
L 329.059823 -55.44 
L 330.419328 -55.44 
L 331.778832 -55.44 
L 333.138337 -55.44 
L 334.497841 -55.44 
L 335.857346 -55.44 
L 337.216851 -55.44 
L 338.576355 -55.44 
L 339.93586 -55.44 
L 341.295364 -55.44 
L 342.654869 -55.44 
L 344.014373 -55.44 
L 345.373878 -55.44 
L 346.733383 -55.44 
L 348.092887 -55.44 
L 349.452392 -55.44 
L 350.811896 -55.44 
L 352.171401 -55.44 
L 353.530906 -55.44 
L 354.89041 -55.44 
L 356.249915 -55.44 
L 357.609419 -55.44 
L 358.968924 -55.44 
L 360.328429 -55.44 
L 361.687933 -55.44 
L 363.047438 -55.44 
L 364.406942 -55.44 
L 365.766447 -55.44 
L 367.125952 -55.44 
L 368.485456 -55.44 
L 369.844961 -55.44 
L 371.204465 -55.44 
L 372.56397 -55.44 
L 373.923475 -55.44 
L 375.282979 -55.44 
L 376.642484 -55.44 
L 378.001988 -55.44 
L 379.361493 -55.44 
L 380.720998 -55.44 
L 382.080502 -55.44 
L 383.440007 -55.44 
L 384.799511 -55.44 
L 386.159016 -55.44 
L 387.518521 -55.44 
L 388.878025 -55.44 
L 390.23753 -55.44 
L 391.597034 -55.44 
L 392.956539 -55.44 
L 394.316043 -55.44 
L 395.675548 -55.44 
L 397.035053 -55.44 
L 398.394557 -55.44 
L 399.754062 -55.44 
L 401.113566 -55.44 
L 402.473071 -55.44 
L 403.832576 -55.44 
L 405.19208 -55.44 
L 406.551585 -55.44 
L 407.911089 -55.44 
L 409.270594 -55.44 
L 410.630099 -55.44 
L 411.989603 -55.44 
L 413.349108 -55.44 
L 414.708612 -55.44 
L 416.068117 -55.44 
L 417.427622 -55.44 
L 418.787126 -55.44 
L 420.146631 -55.44 
L 421.506135 -55.44 
L 422.86564 -55.44 
L 424.225145 -55.44 
L 425.584649 -55.44 
L 426.944154 -55.44 
L 428.303658 -55.44 
L 429.663163 -55.44 
L 431.022668 -55.44 
L 432.382172 -55.44 
L 433.741677 -55.44 
L 435.101181 -55.44 
L 436.460686 -55.44 
L 437.820191 -55.44 
L 439.179695 -55.44 
L 440.5392 -55.44 
L 441.898704 -55.44 
L 443.258209 -55.44 
L 444.617713 -55.44 
L 445.977218 -55.44 
L 447.336723 -55.44 
L 448.696227 -55.44 
L 450.055732 -55.44 
L 451.415236 -55.44 
L 452.774741 -55.44 
L 454.134246 -55.44 
L 455.49375 -55.44 
L 456.853255 -55.44 
L 458.212759 -55.44 
L 459.572264 -55.44 
L 460.931769 -55.44 
L 462.291273 -55.44 
L 463.650778 -55.44 
L 465.010282 -55.44 
L 466.369787 -55.44 
L 467.729292 -55.44 
L 469.088796 -55.44 
L 470.448301 -55.44 
L 471.807805 -55.44 
L 473.16731 -55.44 
L 474.526815 -55.44 
L 475.886319 -55.44 
L 477.245824 -55.44 
L 478.605328 -55.44 
L 479.964833 -55.44 
L 481.324338 -55.44 
L 482.683842 -55.44 
L 484.043347 -55.44 
L 485.402851 -55.44 
L 486.762356 -55.44 
L 488.12186 -55.44 
L 489.481365 -55.44 
L 490.84087 -55.44 
L 492.200374 -55.44 
L 493.559879 -55.44 
L 494.919383 -55.44 
L 496.278888 -55.44 
L 497.638393 -55.44 
L 498.997897 -55.44 
L 500.357402 -55.44 
L 501.716906 -55.44 
L 503.076411 -55.44 
L 504.435916 -55.44 
L 505.79542 -55.44 
L 507.154925 -55.44 
L 508.514429 -55.44 
L 509.873934 -55.44 
L 511.233439 -55.44 
L 512.592943 -55.44 
L 513.952448 -55.44 
L 515.311952 -55.44 
L 516.671457 -55.44 
L 518.030962 -55.44 
L 519.390466 -55.44 
L 520.749971 -55.44 
L 522.109475 -55.44 
L 523.46898 -55.44 
L 524.828485 -55.44 
L 526.187989 -55.44 
L 527.547494 -55.44 
L 528.906998 -55.44 
L 530.266503 -55.44 
L 530.266503 -55.46021 
L 530.266503 -55.46021 
L 528.906998 -55.474874 
L 527.547494 -55.498167 
L 526.187989 -55.5338 
L 524.828485 -55.586283 
L 523.46898 -55.660703 
L 522.109475 -55.762288 
L 520.749971 -55.895777 
L 519.390466 -56.064664 
L 518.030962 -56.270466 
L 516.671457 -56.512185 
L 515.311952 -56.78615 
L 513.952448 -57.086353 
L 512.592943 -57.405275 
L 511.233439 -57.735053 
L 509.873934 -58.068718 
L 508.514429 -58.401186 
L 507.154925 -58.729718 
L 505.79542 -59.053742 
L 504.435916 -59.374076 
L 503.076411 -59.691788 
L 501.716906 -60.007018 
L 500.357402 -60.318055 
L 498.997897 -60.620854 
L 497.638393 -60.909039 
L 496.278888 -61.174312 
L 494.919383 -61.407144 
L 493.559879 -61.597645 
L 492.200374 -61.736568 
L 490.84087 -61.816459 
L 489.481365 -61.832927 
L 488.12186 -61.785965 
L 486.762356 -61.681155 
L 485.402851 -61.530506 
L 484.043347 -61.352692 
L 482.683842 -61.172508 
L 481.324338 -61.01952 
L 479.964833 -60.926007 
L 478.605328 -60.924474 
L 477.245824 -61.045086 
L 475.886319 -61.313419 
L 474.526815 -61.748864 
L 473.16731 -62.363907 
L 471.807805 -63.164294 
L 470.448301 -64.149884 
L 469.088796 -65.315764 
L 467.729292 -66.653135 
L 466.369787 -68.149539 
L 465.010282 -69.788218 
L 463.650778 -71.54678 
L 462.291273 -73.395681 
L 460.931769 -75.297267 
L 459.572264 -77.206091 
L 458.212759 -79.070942 
L 456.853255 -80.838497 
L 455.49375 -82.458013 
L 454.134246 -83.886051 
L 452.774741 -85.090203 
L 451.415236 -86.051022 
L 450.055732 -86.761943 
L 448.696227 -87.227599 
L 447.336723 -87.461408 
L 445.977218 -87.483495 
L 444.617713 -87.31985 
L 443.258209 -87.003131 
L 441.898704 -86.575015 
L 440.5392 -86.089434 
L 439.179695 -85.615818 
L 437.820191 -85.241323 
L 436.460686 -85.071232 
L 435.101181 -85.226963 
L 433.741677 -85.841506 
L 432.382172 -87.052496 
L 431.022668 -88.993515 
L 429.663163 -91.78459 
L 428.303658 -95.523082 
L 426.944154 -100.276189 
L 425.584649 -106.076094 
L 424.225145 -112.918234 
L 422.86564 -120.762502 
L 421.506135 -129.536424 
L 420.146631 -139.138893 
L 418.787126 -149.442925 
L 417.427622 -160.296377 
L 416.068117 -171.520515 
L 414.708612 -182.907489 
L 413.349108 -194.218803 
L 411.989603 -205.187446 
L 410.630099 -215.526067 
L 409.270594 -224.942548 
L 407.911089 -233.162659 
L 406.551585 -239.957561 
L 405.19208 -245.172358 
L 403.832576 -248.750985 
L 402.473071 -250.752786 
L 401.113566 -251.357196 
L 399.754062 -250.854707 
L 398.394557 -249.624477 
L 397.035053 -248.101025 
L 395.675548 -246.734042 
L 394.316043 -245.946301 
L 392.956539 -246.094633 
L 391.597034 -247.438362 
L 390.23753 -250.118412 
L 388.878025 -254.14894 
L 387.518521 -259.422041 
L 386.159016 -265.724833 
L 384.799511 -272.767215 
L 383.440007 -280.217497 
L 382.080502 -287.742125 
L 380.720998 -295.044734 
L 379.361493 -301.899137 
L 378.001988 -308.170935 
L 376.642484 -313.823487 
L 375.282979 -318.906158 
L 373.923475 -323.525803 
L 372.56397 -327.80578 
L 371.204465 -331.839613 
L 369.844961 -335.648122 
L 368.485456 -339.148729 
L 367.125952 -342.143794 
L 365.766447 -344.331406 
L 364.406942 -345.337802 
L 363.047438 -344.766266 
L 361.687933 -342.253991 
L 360.328429 -337.526695 
L 358.968924 -330.44112 
L 357.609419 -321.008098 
L 356.249915 -309.392863 
L 354.89041 -295.893936 
L 353.530906 -280.906022 
L 352.171401 -264.874897 
L 350.811896 -248.252756 
L 349.452392 -231.461056 
L 348.092887 -214.865033 
L 346.733383 -198.760954 
L 345.373878 -183.374474 
L 344.014373 -168.866887 
L 342.654869 -155.345666 
L 341.295364 -142.87617 
L 339.93586 -131.492325 
L 338.576355 -121.205081 
L 337.216851 -112.008206 
L 335.857346 -103.881512 
L 334.497841 -96.791958 
L 333.138337 -90.693303 
L 331.778832 -85.525182 
L 330.419328 -81.212536 
L 329.059823 -77.666218 
L 327.700318 -74.78537 
L 326.340814 -72.461678 
L 324.981309 -70.585177 
L 323.621805 -69.050823 
L 322.2623 -67.76481 
L 320.902795 -66.649585 
L 319.543291 -65.646744 
L 318.183786 -64.717404 
L 316.824282 -63.840155 
L 315.464777 -63.007155 
L 314.105272 -62.219284 
L 312.745768 -61.481384 
L 311.386263 -60.798454 
L 310.026759 -60.173401 
L 308.667254 -59.606451 
L 307.307749 -59.095933 
L 305.948245 -58.639849 
L 304.58874 -58.237499 
L 303.229236 -57.890537 
L 301.869731 -57.603077 
L 300.510226 -57.380761 
L 299.150722 -57.229014 
L 297.791217 -57.150923 
L 296.431713 -57.145266 
L 295.072208 -57.205154 
L 293.712704 -57.31765 
L 292.353199 -57.464467 
L 290.993694 -57.623686 
L 289.63419 -57.77218 
L 288.274685 -57.888332 
L 286.915181 -57.954579 
L 285.555676 -57.959357 
L 284.196171 -57.898137 
L 282.836667 -57.773456 
L 281.477162 -57.593998 
L 280.117658 -57.372951 
L 278.758153 -57.125988 
L 277.398648 -56.86919 
L 276.039144 -56.617252 
L 274.679639 -56.382151 
L 273.320135 -56.17241 
L 271.96063 -55.992919 
L 270.601125 -55.845245 
L 269.241621 -55.728259 
L 267.882116 -55.638935 
L 266.522612 -55.573152 
L 265.163107 -55.526404 
L 263.803602 -55.49434 
L 262.444098 -55.47311 
L 261.084593 -55.459539 
L 259.725089 -55.451164 
z
" style="stroke: #ff0000"/>
    </defs>
    <g clip-path="url(#pb47e013ca5)">
     <use xlink:href="#m3db817d367" x="0" y="504" style="fill: #ff0000; fill-opacity: 0.25; stroke: #ff0000"/>
    </g>
   </g>
   <g id="PolyCollection_2">
    <defs>
     <path id="mada2b19649" d="M 329.624143 -55.444099 
L 329.624143 -55.44 
L 331.305113 -55.44 
L 332.986083 -55.44 
L 334.667054 -55.44 
L 336.348024 -55.44 
L 338.028995 -55.44 
L 339.709965 -55.44 
L 341.390935 -55.44 
L 343.071906 -55.44 
L 344.752876 -55.44 
L 346.433847 -55.44 
L 348.114817 -55.44 
L 349.795788 -55.44 
L 351.476758 -55.44 
L 353.157728 -55.44 
L 354.838699 -55.44 
L 356.519669 -55.44 
L 358.20064 -55.44 
L 359.88161 -55.44 
L 361.56258 -55.44 
L 363.243551 -55.44 
L 364.924521 -55.44 
L 366.605492 -55.44 
L 368.286462 -55.44 
L 369.967433 -55.44 
L 371.648403 -55.44 
L 373.329373 -55.44 
L 375.010344 -55.44 
L 376.691314 -55.44 
L 378.372285 -55.44 
L 380.053255 -55.44 
L 381.734226 -55.44 
L 383.415196 -55.44 
L 385.096166 -55.44 
L 386.777137 -55.44 
L 388.458107 -55.44 
L 390.139078 -55.44 
L 391.820048 -55.44 
L 393.501018 -55.44 
L 395.181989 -55.44 
L 396.862959 -55.44 
L 398.54393 -55.44 
L 400.2249 -55.44 
L 401.905871 -55.44 
L 403.586841 -55.44 
L 405.267811 -55.44 
L 406.948782 -55.44 
L 408.629752 -55.44 
L 410.310723 -55.44 
L 411.991693 -55.44 
L 413.672663 -55.44 
L 415.353634 -55.44 
L 417.034604 -55.44 
L 418.715575 -55.44 
L 420.396545 -55.44 
L 422.077516 -55.44 
L 423.758486 -55.44 
L 425.439456 -55.44 
L 427.120427 -55.44 
L 428.801397 -55.44 
L 430.482368 -55.44 
L 432.163338 -55.44 
L 433.844309 -55.44 
L 435.525279 -55.44 
L 437.206249 -55.44 
L 438.88722 -55.44 
L 440.56819 -55.44 
L 442.249161 -55.44 
L 443.930131 -55.44 
L 445.611101 -55.44 
L 447.292072 -55.44 
L 448.973042 -55.44 
L 450.654013 -55.44 
L 452.334983 -55.44 
L 454.015954 -55.44 
L 455.696924 -55.44 
L 457.377894 -55.44 
L 459.058865 -55.44 
L 460.739835 -55.44 
L 462.420806 -55.44 
L 464.101776 -55.44 
L 465.782746 -55.44 
L 467.463717 -55.44 
L 469.144687 -55.44 
L 470.825658 -55.44 
L 472.506628 -55.44 
L 474.187599 -55.44 
L 475.868569 -55.44 
L 477.549539 -55.44 
L 479.23051 -55.44 
L 480.91148 -55.44 
L 482.592451 -55.44 
L 484.273421 -55.44 
L 485.954392 -55.44 
L 487.635362 -55.44 
L 489.316332 -55.44 
L 490.997303 -55.44 
L 492.678273 -55.44 
L 494.359244 -55.44 
L 496.040214 -55.44 
L 497.721184 -55.44 
L 499.402155 -55.44 
L 501.083125 -55.44 
L 502.764096 -55.44 
L 504.445066 -55.44 
L 506.126037 -55.44 
L 507.807007 -55.44 
L 509.487977 -55.44 
L 511.168948 -55.44 
L 512.849918 -55.44 
L 514.530889 -55.44 
L 516.211859 -55.44 
L 517.892829 -55.44 
L 519.5738 -55.44 
L 521.25477 -55.44 
L 522.935741 -55.44 
L 524.616711 -55.44 
L 526.297682 -55.44 
L 527.978652 -55.44 
L 529.659622 -55.44 
L 531.340593 -55.44 
L 533.021563 -55.44 
L 534.702534 -55.44 
L 536.383504 -55.44 
L 538.064475 -55.44 
L 539.745445 -55.44 
L 541.426415 -55.44 
L 543.107386 -55.44 
L 544.788356 -55.44 
L 546.469327 -55.44 
L 548.150297 -55.44 
L 549.831267 -55.44 
L 551.512238 -55.44 
L 553.193208 -55.44 
L 554.874179 -55.44 
L 556.555149 -55.44 
L 558.23612 -55.44 
L 559.91709 -55.44 
L 561.59806 -55.44 
L 563.279031 -55.44 
L 564.960001 -55.44 
L 566.640972 -55.44 
L 568.321942 -55.44 
L 570.002912 -55.44 
L 571.683883 -55.44 
L 573.364853 -55.44 
L 575.045824 -55.44 
L 576.726794 -55.44 
L 578.407765 -55.44 
L 580.088735 -55.44 
L 581.769705 -55.44 
L 583.450676 -55.44 
L 585.131646 -55.44 
L 586.812617 -55.44 
L 588.493587 -55.44 
L 590.174558 -55.44 
L 591.855528 -55.44 
L 593.536498 -55.44 
L 595.217469 -55.44 
L 596.898439 -55.44 
L 598.57941 -55.44 
L 600.26038 -55.44 
L 601.94135 -55.44 
L 603.622321 -55.44 
L 605.303291 -55.44 
L 606.984262 -55.44 
L 608.665232 -55.44 
L 610.346203 -55.44 
L 612.027173 -55.44 
L 613.708143 -55.44 
L 615.389114 -55.44 
L 617.070084 -55.44 
L 618.751055 -55.44 
L 620.432025 -55.44 
L 622.112995 -55.44 
L 623.793966 -55.44 
L 625.474936 -55.44 
L 627.155907 -55.44 
L 628.836877 -55.44 
L 630.517848 -55.44 
L 632.198818 -55.44 
L 633.879788 -55.44 
L 635.560759 -55.44 
L 637.241729 -55.44 
L 638.9227 -55.44 
L 640.60367 -55.44 
L 642.284641 -55.44 
L 643.965611 -55.44 
L 645.646581 -55.44 
L 647.327552 -55.44 
L 649.008522 -55.44 
L 650.689493 -55.44 
L 652.370463 -55.44 
L 654.051433 -55.44 
L 655.732404 -55.44 
L 657.413374 -55.44 
L 659.094345 -55.44 
L 660.775315 -55.44 
L 662.456286 -55.44 
L 664.137256 -55.44 
L 664.137256 -55.440868 
L 664.137256 -55.440868 
L 662.456286 -55.442624 
L 660.775315 -55.446894 
L 659.094345 -55.455769 
L 657.413374 -55.47144 
L 655.732404 -55.494719 
L 654.051433 -55.523288 
L 652.370463 -55.551206 
L 650.689493 -55.570983 
L 649.008522 -55.577711 
L 647.327552 -55.572481 
L 645.646581 -55.562289 
L 643.965611 -55.556262 
L 642.284641 -55.561078 
L 640.60367 -55.578562 
L 638.9227 -55.605815 
L 637.241729 -55.636162 
L 635.560759 -55.660322 
L 633.879788 -55.669213 
L 632.198818 -55.658922 
L 630.517848 -55.634797 
L 628.836877 -55.610359 
L 627.155907 -55.600258 
L 625.474936 -55.611617 
L 623.793966 -55.639642 
L 622.112995 -55.670272 
L 620.432025 -55.687919 
L 618.751055 -55.683482 
L 617.070084 -55.658249 
L 615.389114 -55.622206 
L 613.708143 -55.588461 
L 612.027173 -55.567265 
L 610.346203 -55.562809 
L 608.665232 -55.573824 
L 606.984262 -55.596302 
L 605.303291 -55.625502 
L 603.622321 -55.656001 
L 601.94135 -55.681189 
L 600.26038 -55.694358 
L 598.57941 -55.691804 
L 596.898439 -55.676032 
L 595.217469 -55.656354 
L 593.536498 -55.645629 
L 591.855528 -55.654844 
L 590.174558 -55.689289 
L 588.493587 -55.748863 
L 586.812617 -55.831075 
L 585.131646 -55.932708 
L 583.450676 -56.047867 
L 581.769705 -56.164707 
L 580.088735 -56.265541 
L 578.407765 -56.332582 
L 576.726794 -56.356372 
L 575.045824 -56.341099 
L 573.364853 -56.303133 
L 571.683883 -56.264167 
L 570.002912 -56.243576 
L 568.321942 -56.253416 
L 566.640972 -56.296219 
L 564.960001 -56.364616 
L 563.279031 -56.443857 
L 561.59806 -56.519353 
L 559.91709 -56.587754 
L 558.23612 -56.664595 
L 556.555149 -56.781297 
L 554.874179 -56.971306 
L 553.193208 -57.253386 
L 551.512238 -57.622097 
L 549.831267 -58.049432 
L 548.150297 -58.493033 
L 546.469327 -58.903899 
L 544.788356 -59.232817 
L 543.107386 -59.440584 
L 541.426415 -59.512118 
L 539.745445 -59.463846 
L 538.064475 -59.334053 
L 536.383504 -59.161261 
L 534.702534 -58.968675 
L 533.021563 -58.766771 
L 531.340593 -58.567999 
L 529.659622 -58.397266 
L 527.978652 -58.287989 
L 526.297682 -58.267528 
L 524.616711 -58.345047 
L 522.935741 -58.513185 
L 521.25477 -58.763021 
L 519.5738 -59.098351 
L 517.892829 -59.5339 
L 516.211859 -60.076814 
L 514.530889 -60.706969 
L 512.849918 -61.372399 
L 511.168948 -62.003354 
L 509.487977 -62.537642 
L 507.807007 -62.946642 
L 506.126037 -63.249426 
L 504.445066 -63.50345 
L 502.764096 -63.773568 
L 501.083125 -64.100512 
L 499.402155 -64.49287 
L 497.721184 -64.945386 
L 496.040214 -65.463169 
L 494.359244 -66.070188 
L 492.678273 -66.798372 
L 490.997303 -67.669477 
L 489.316332 -68.68362 
L 487.635362 -69.822029 
L 485.954392 -71.064532 
L 484.273421 -72.412087 
L 482.592451 -73.893848 
L 480.91148 -75.543723 
L 479.23051 -77.359019 
L 477.549539 -79.277783 
L 475.868569 -81.200742 
L 474.187599 -83.04472 
L 472.506628 -84.784905 
L 470.825658 -86.450464 
L 469.144687 -88.075643 
L 467.463717 -89.647067 
L 465.782746 -91.095021 
L 464.101776 -92.342253 
L 462.420806 -93.375501 
L 460.739835 -94.284833 
L 459.058865 -95.240907 
L 457.377894 -96.426907 
L 455.696924 -97.97012 
L 454.015954 -99.909599 
L 452.334983 -102.208065 
L 450.654013 -104.795434 
L 448.973042 -107.621284 
L 447.292072 -110.68323 
L 445.611101 -114.000246 
L 443.930131 -117.539578 
L 442.249161 -121.160568 
L 440.56819 -124.63961 
L 438.88722 -127.768588 
L 437.206249 -130.450591 
L 435.525279 -132.727154 
L 433.844309 -134.737034 
L 432.163338 -136.650054 
L 430.482368 -138.615589 
L 428.801397 -140.745002 
L 427.120427 -143.12806 
L 425.439456 -145.861311 
L 423.758486 -149.058335 
L 422.077516 -152.835158 
L 420.396545 -157.289341 
L 418.715575 -162.481604 
L 417.034604 -168.409707 
L 415.353634 -174.983002 
L 413.672663 -182.040651 
L 411.991693 -189.440743 
L 410.310723 -197.179026 
L 408.629752 -205.450515 
L 406.948782 -214.598534 
L 405.267811 -224.970471 
L 403.586841 -236.752267 
L 401.905871 -249.86319 
L 400.2249 -263.971849 
L 398.54393 -278.642245 
L 396.862959 -293.53737 
L 395.181989 -308.554225 
L 393.501018 -323.8025 
L 391.820048 -339.444747 
L 390.139078 -355.493369 
L 388.458107 -371.66171 
L 386.777137 -387.323167 
L 385.096166 -401.575468 
L 383.415196 -413.354431 
L 381.734226 -421.536621 
L 380.053255 -425.04 
L 378.372285 -422.994183 
L 376.691314 -414.987983 
L 375.010344 -401.252786 
L 373.329373 -382.612134 
L 371.648403 -360.206044 
L 369.967433 -335.183032 
L 368.286462 -308.527542 
L 366.605492 -281.030836 
L 364.924521 -253.335033 
L 363.243551 -226.010194 
L 361.56258 -199.63681 
L 359.88161 -174.8348 
L 358.20064 -152.194402 
L 356.519669 -132.147407 
L 354.838699 -114.87956 
L 353.157728 -100.350303 
L 351.476758 -88.390173 
L 349.795788 -78.790887 
L 348.114817 -71.335451 
L 346.433847 -65.782191 
L 344.752876 -61.846393 
L 343.071906 -59.206912 
L 341.390935 -57.536802 
L 339.709965 -56.540805 
L 338.028995 -55.981713 
L 336.348024 -55.6876 
L 334.667054 -55.543914 
L 332.986083 -55.479561 
L 331.305113 -55.45351 
L 329.624143 -55.444099 
z
" style="stroke: #0000ff"/>
    </defs>
    <g clip-path="url(#pb47e013ca5)">
     <use xlink:href="#mada2b19649" x="0" y="504" style="fill: #0000ff; fill-opacity: 0.25; stroke: #0000ff"/>
    </g>
   </g>
   <g id="matplotlib.axis_1">
    <g id="xtick_1">
     <g id="line2d_1">
      <defs>
       <path id="m26c79fe11f" d="M 0 0 
L 0 10 
" style="stroke: #000000; stroke-width: 2"/>
      </defs>
      <g>
       <use xlink:href="#m26c79fe11f" x="255.592105" y="448.56" style="stroke: #000000; stroke-width: 2"/>
      </g>
     </g>
     <g id="text_1">
      <!-- 1.5 -->
      <g transform="translate(238.098668 478.776563) scale(0.22 -0.22)">
       <defs>
        <path id="DejaVuSans-31" d="M 794 531 
L 1825 531 
L 1825 4091 
L 703 3866 
L 703 4441 
L 1819 4666 
L 2450 4666 
L 2450 531 
L 3481 531 
L 3481 0 
L 794 0 
L 794 531 
z
" transform="scale(0.015625)"/>
        <path id="DejaVuSans-2e" d="M 684 794 
L 1344 794 
L 1344 0 
L 684 0 
L 684 794 
z
" transform="scale(0.015625)"/>
        <path id="DejaVuSans-35" d="M 691 4666 
L 3169 4666 
L 3169 4134 
L 1269 4134 
L 1269 2991 
Q 1406 3038 1543 3061 
Q 1681 3084 1819 3084 
Q 2600 3084 3056 2656 
Q 3513 2228 3513 1497 
Q 3513 744 3044 326 
Q 2575 -91 1722 -91 
Q 1428 -91 1123 -41 
Q 819 9 494 109 
L 494 744 
Q 775 591 1075 516 
Q 1375 441 1709 441 
Q 2250 441 2565 725 
Q 2881 1009 2881 1497 
Q 2881 1984 2565 2268 
Q 2250 2553 1709 2553 
Q 1456 2553 1204 2497 
Q 953 2441 691 2322 
L 691 4666 
z
" transform="scale(0.015625)"/>
       </defs>
       <use xlink:href="#DejaVuSans-31"/>
       <use xlink:href="#DejaVuSans-2e" x="63.623047"/>
       <use xlink:href="#DejaVuSans-35" x="95.410156"/>
      </g>
     </g>
    </g>
    <g id="xtick_2">
     <g id="line2d_2">
      <g>
       <use xlink:href="#m26c79fe11f" x="306.578947" y="448.56" style="stroke: #000000; stroke-width: 2"/>
      </g>
     </g>
     <g id="text_2">
      <!-- 2.0 -->
      <g transform="translate(289.08551 478.776563) scale(0.22 -0.22)">
       <defs>
        <path id="DejaVuSans-32" d="M 1228 531 
L 3431 531 
L 3431 0 
L 469 0 
L 469 531 
Q 828 903 1448 1529 
Q 2069 2156 2228 2338 
Q 2531 2678 2651 2914 
Q 2772 3150 2772 3378 
Q 2772 3750 2511 3984 
Q 2250 4219 1831 4219 
Q 1534 4219 1204 4116 
Q 875 4013 500 3803 
L 500 4441 
Q 881 4594 1212 4672 
Q 1544 4750 1819 4750 
Q 2544 4750 2975 4387 
Q 3406 4025 3406 3419 
Q 3406 3131 3298 2873 
Q 3191 2616 2906 2266 
Q 2828 2175 2409 1742 
Q 1991 1309 1228 531 
z
" transform="scale(0.015625)"/>
        <path id="DejaVuSans-30" d="M 2034 4250 
Q 1547 4250 1301 3770 
Q 1056 3291 1056 2328 
Q 1056 1369 1301 889 
Q 1547 409 2034 409 
Q 2525 409 2770 889 
Q 3016 1369 3016 2328 
Q 3016 3291 2770 3770 
Q 2525 4250 2034 4250 
z
M 2034 4750 
Q 2819 4750 3233 4129 
Q 3647 3509 3647 2328 
Q 3647 1150 3233 529 
Q 2819 -91 2034 -91 
Q 1250 -91 836 529 
Q 422 1150 422 2328 
Q 422 3509 836 4129 
Q 1250 4750 2034 4750 
z
" transform="scale(0.015625)"/>
       </defs>
       <use xlink:href="#DejaVuSans-32"/>
       <use xlink:href="#DejaVuSans-2e" x="63.623047"/>
       <use xlink:href="#DejaVuSans-30" x="95.410156"/>
      </g>
     </g>
    </g>
    <g id="xtick_3">
     <g id="line2d_3">
      <g>
       <use xlink:href="#m26c79fe11f" x="357.565789" y="448.56" style="stroke: #000000; stroke-width: 2"/>
      </g>
     </g>
     <g id="text_3">
      <!-- 2.5 -->
      <g transform="translate(340.072352 478.776563) scale(0.22 -0.22)">
       <use xlink:href="#DejaVuSans-32"/>
       <use xlink:href="#DejaVuSans-2e" x="63.623047"/>
       <use xlink:href="#DejaVuSans-35" x="95.410156"/>
      </g>
     </g>
    </g>
    <g id="xtick_4">
     <g id="line2d_4">
      <g>
       <use xlink:href="#m26c79fe11f" x="408.552632" y="448.56" style="stroke: #000000; stroke-width: 2"/>
      </g>
     </g>
     <g id="text_4">
      <!-- 3.0 -->
      <g transform="translate(391.059194 478.776563) scale(0.22 -0.22)">
       <defs>
        <path id="DejaVuSans-33" d="M 2597 2516 
Q 3050 2419 3304 2112 
Q 3559 1806 3559 1356 
Q 3559 666 3084 287 
Q 2609 -91 1734 -91 
Q 1441 -91 1130 -33 
Q 819 25 488 141 
L 488 750 
Q 750 597 1062 519 
Q 1375 441 1716 441 
Q 2309 441 2620 675 
Q 2931 909 2931 1356 
Q 2931 1769 2642 2001 
Q 2353 2234 1838 2234 
L 1294 2234 
L 1294 2753 
L 1863 2753 
Q 2328 2753 2575 2939 
Q 2822 3125 2822 3475 
Q 2822 3834 2567 4026 
Q 2313 4219 1838 4219 
Q 1578 4219 1281 4162 
Q 984 4106 628 3988 
L 628 4550 
Q 988 4650 1302 4700 
Q 1616 4750 1894 4750 
Q 2613 4750 3031 4423 
Q 3450 4097 3450 3541 
Q 3450 3153 3228 2886 
Q 3006 2619 2597 2516 
z
" transform="scale(0.015625)"/>
       </defs>
       <use xlink:href="#DejaVuSans-33"/>
       <use xlink:href="#DejaVuSans-2e" x="63.623047"/>
       <use xlink:href="#DejaVuSans-30" x="95.410156"/>
      </g>
     </g>
    </g>
    <g id="xtick_5">
     <g id="line2d_5">
      <g>
       <use xlink:href="#m26c79fe11f" x="459.539474" y="448.56" style="stroke: #000000; stroke-width: 2"/>
      </g>
     </g>
     <g id="text_5">
      <!-- 3.5 -->
      <g transform="translate(442.046036 478.776563) scale(0.22 -0.22)">
       <use xlink:href="#DejaVuSans-33"/>
       <use xlink:href="#DejaVuSans-2e" x="63.623047"/>
       <use xlink:href="#DejaVuSans-35" x="95.410156"/>
      </g>
     </g>
    </g>
    <g id="xtick_6">
     <g id="line2d_6">
      <g>
       <use xlink:href="#m26c79fe11f" x="510.526316" y="448.56" style="stroke: #000000; stroke-width: 2"/>
      </g>
     </g>
     <g id="text_6">
      <!-- 4.0 -->
      <g transform="translate(493.032878 478.776563) scale(0.22 -0.22)">
       <defs>
        <path id="DejaVuSans-34" d="M 2419 4116 
L 825 1625 
L 2419 1625 
L 2419 4116 
z
M 2253 4666 
L 3047 4666 
L 3047 1625 
L 3713 1625 
L 3713 1100 
L 3047 1100 
L 3047 0 
L 2419 0 
L 2419 1100 
L 313 1100 
L 313 1709 
L 2253 4666 
z
" transform="scale(0.015625)"/>
       </defs>
       <use xlink:href="#DejaVuSans-34"/>
       <use xlink:href="#DejaVuSans-2e" x="63.623047"/>
       <use xlink:href="#DejaVuSans-30" x="95.410156"/>
      </g>
     </g>
    </g>
    <g id="xtick_7">
     <g id="line2d_7">
      <g>
       <use xlink:href="#m26c79fe11f" x="561.513158" y="448.56" style="stroke: #000000; stroke-width: 2"/>
      </g>
     </g>
     <g id="text_7">
      <!-- 4.5 -->
      <g transform="translate(544.01972 478.776563) scale(0.22 -0.22)">
       <use xlink:href="#DejaVuSans-34"/>
       <use xlink:href="#DejaVuSans-2e" x="63.623047"/>
       <use xlink:href="#DejaVuSans-35" x="95.410156"/>
      </g>
     </g>
    </g>
   </g>
   <g id="matplotlib.axis_2">
    <g id="ytick_1">
     <g id="line2d_8">
      <defs>
       <path id="mbdb029ddd7" d="M 0 0 
L -10 0 
" style="stroke: #000000; stroke-width: 2"/>
      </defs>
      <g>
       <use xlink:href="#mbdb029ddd7" x="225" y="448.56" style="stroke: #000000; stroke-width: 2"/>
      </g>
     </g>
     <g id="text_8">
      <!-- 0.0 -->
      <g transform="translate(176.513125 456.918281) scale(0.22 -0.22)">
       <use xlink:href="#DejaVuSans-30"/>
       <use xlink:href="#DejaVuSans-2e" x="63.623047"/>
       <use xlink:href="#DejaVuSans-30" x="95.410156"/>
      </g>
     </g>
    </g>
    <g id="ytick_2">
     <g id="line2d_9">
      <g>
       <use xlink:href="#mbdb029ddd7" x="225" y="355.537569" style="stroke: #000000; stroke-width: 2"/>
      </g>
     </g>
     <g id="text_9">
      <!-- 0.5 -->
      <g transform="translate(176.513125 363.89585) scale(0.22 -0.22)">
       <use xlink:href="#DejaVuSans-30"/>
       <use xlink:href="#DejaVuSans-2e" x="63.623047"/>
       <use xlink:href="#DejaVuSans-35" x="95.410156"/>
      </g>
     </g>
    </g>
    <g id="ytick_3">
     <g id="line2d_10">
      <g>
       <use xlink:href="#mbdb029ddd7" x="225" y="262.515138" style="stroke: #000000; stroke-width: 2"/>
      </g>
     </g>
     <g id="text_10">
      <!-- 1.0 -->
      <g transform="translate(176.513125 270.873419) scale(0.22 -0.22)">
       <use xlink:href="#DejaVuSans-31"/>
       <use xlink:href="#DejaVuSans-2e" x="63.623047"/>
       <use xlink:href="#DejaVuSans-30" x="95.410156"/>
      </g>
     </g>
    </g>
    <g id="ytick_4">
     <g id="line2d_11">
      <g>
       <use xlink:href="#mbdb029ddd7" x="225" y="169.492707" style="stroke: #000000; stroke-width: 2"/>
      </g>
     </g>
     <g id="text_11">
      <!-- 1.5 -->
      <g transform="translate(176.513125 177.850988) scale(0.22 -0.22)">
       <use xlink:href="#DejaVuSans-31"/>
       <use xlink:href="#DejaVuSans-2e" x="63.623047"/>
       <use xlink:href="#DejaVuSans-35" x="95.410156"/>
      </g>
     </g>
    </g>
    <g id="ytick_5">
     <g id="line2d_12">
      <g>
       <use xlink:href="#mbdb029ddd7" x="225" y="76.470276" style="stroke: #000000; stroke-width: 2"/>
      </g>
     </g>
     <g id="text_12">
      <!-- 2.0 -->
      <g transform="translate(176.513125 84.828557) scale(0.22 -0.22)">
       <use xlink:href="#DejaVuSans-32"/>
       <use xlink:href="#DejaVuSans-2e" x="63.623047"/>
       <use xlink:href="#DejaVuSans-30" x="95.410156"/>
      </g>
     </g>
    </g>
    <g id="text_13">
     <!-- Density -->
     <g transform="translate(170.433437 273.528594) rotate(-90) scale(0.1 -0.1)">
      <defs>
       <path id="DejaVuSans-44" d="M 1259 4147 
L 1259 519 
L 2022 519 
Q 2988 519 3436 956 
Q 3884 1394 3884 2338 
Q 3884 3275 3436 3711 
Q 2988 4147 2022 4147 
L 1259 4147 
z
M 628 4666 
L 1925 4666 
Q 3281 4666 3915 4102 
Q 4550 3538 4550 2338 
Q 4550 1131 3912 565 
Q 3275 0 1925 0 
L 628 0 
L 628 4666 
z
" transform="scale(0.015625)"/>
       <path id="DejaVuSans-65" d="M 3597 1894 
L 3597 1613 
L 953 1613 
Q 991 1019 1311 708 
Q 1631 397 2203 397 
Q 2534 397 2845 478 
Q 3156 559 3463 722 
L 3463 178 
Q 3153 47 2828 -22 
Q 2503 -91 2169 -91 
Q 1331 -91 842 396 
Q 353 884 353 1716 
Q 353 2575 817 3079 
Q 1281 3584 2069 3584 
Q 2775 3584 3186 3129 
Q 3597 2675 3597 1894 
z
M 3022 2063 
Q 3016 2534 2758 2815 
Q 2500 3097 2075 3097 
Q 1594 3097 1305 2825 
Q 1016 2553 972 2059 
L 3022 2063 
z
" transform="scale(0.015625)"/>
       <path id="DejaVuSans-6e" d="M 3513 2113 
L 3513 0 
L 2938 0 
L 2938 2094 
Q 2938 2591 2744 2837 
Q 2550 3084 2163 3084 
Q 1697 3084 1428 2787 
Q 1159 2491 1159 1978 
L 1159 0 
L 581 0 
L 581 3500 
L 1159 3500 
L 1159 2956 
Q 1366 3272 1645 3428 
Q 1925 3584 2291 3584 
Q 2894 3584 3203 3211 
Q 3513 2838 3513 2113 
z
" transform="scale(0.015625)"/>
       <path id="DejaVuSans-73" d="M 2834 3397 
L 2834 2853 
Q 2591 2978 2328 3040 
Q 2066 3103 1784 3103 
Q 1356 3103 1142 2972 
Q 928 2841 928 2578 
Q 928 2378 1081 2264 
Q 1234 2150 1697 2047 
L 1894 2003 
Q 2506 1872 2764 1633 
Q 3022 1394 3022 966 
Q 3022 478 2636 193 
Q 2250 -91 1575 -91 
Q 1294 -91 989 -36 
Q 684 19 347 128 
L 347 722 
Q 666 556 975 473 
Q 1284 391 1588 391 
Q 1994 391 2212 530 
Q 2431 669 2431 922 
Q 2431 1156 2273 1281 
Q 2116 1406 1581 1522 
L 1381 1569 
Q 847 1681 609 1914 
Q 372 2147 372 2553 
Q 372 3047 722 3315 
Q 1072 3584 1716 3584 
Q 2034 3584 2315 3537 
Q 2597 3491 2834 3397 
z
" transform="scale(0.015625)"/>
       <path id="DejaVuSans-69" d="M 603 3500 
L 1178 3500 
L 1178 0 
L 603 0 
L 603 3500 
z
M 603 4863 
L 1178 4863 
L 1178 4134 
L 603 4134 
L 603 4863 
z
" transform="scale(0.015625)"/>
       <path id="DejaVuSans-74" d="M 1172 4494 
L 1172 3500 
L 2356 3500 
L 2356 3053 
L 1172 3053 
L 1172 1153 
Q 1172 725 1289 603 
Q 1406 481 1766 481 
L 2356 481 
L 2356 0 
L 1766 0 
Q 1100 0 847 248 
Q 594 497 594 1153 
L 594 3053 
L 172 3053 
L 172 3500 
L 594 3500 
L 594 4494 
L 1172 4494 
z
" transform="scale(0.015625)"/>
       <path id="DejaVuSans-79" d="M 2059 -325 
Q 1816 -950 1584 -1140 
Q 1353 -1331 966 -1331 
L 506 -1331 
L 506 -850 
L 844 -850 
Q 1081 -850 1212 -737 
Q 1344 -625 1503 -206 
L 1606 56 
L 191 3500 
L 800 3500 
L 1894 763 
L 2988 3500 
L 3597 3500 
L 2059 -325 
z
" transform="scale(0.015625)"/>
      </defs>
      <use xlink:href="#DejaVuSans-44"/>
      <use xlink:href="#DejaVuSans-65" x="77.001953"/>
      <use xlink:href="#DejaVuSans-6e" x="138.525391"/>
      <use xlink:href="#DejaVuSans-73" x="201.904297"/>
      <use xlink:href="#DejaVuSans-69" x="254.003906"/>
      <use xlink:href="#DejaVuSans-74" x="281.787109"/>
      <use xlink:href="#DejaVuSans-79" x="320.996094"/>
     </g>
    </g>
   </g>
   <g id="patch_3">
    <path d="M 225 448.56 
L 225 60.48 
" style="fill: none; stroke: #000000; stroke-width: 0.8; stroke-linejoin: miter; stroke-linecap: square"/>
   </g>
   <g id="patch_4">
    <path d="M 592.105263 448.56 
L 592.105263 60.48 
" style="fill: none; stroke: #000000; stroke-width: 0.8; stroke-linejoin: miter; stroke-linecap: square"/>
   </g>
   <g id="patch_5">
    <path d="M 225 448.56 
L 592.105263 448.56 
" style="fill: none; stroke: #000000; stroke-width: 0.8; stroke-linejoin: miter; stroke-linecap: square"/>
   </g>
   <g id="patch_6">
    <path d="M 225 60.48 
L 592.105263 60.48 
" style="fill: none; stroke: #000000; stroke-width: 0.8; stroke-linejoin: miter; stroke-linecap: square"/>
   </g>
  </g>
  <g id="axes_2">
   <g id="patch_7">
    <path d="M 738.947368 448.56 
L 1106.052632 448.56 
L 1106.052632 60.48 
L 738.947368 60.48 
z
" style="fill: #ffffff"/>
   </g>
   <g id="PolyCollection_3">
    <defs>
     <path id="md91ac13ac7" d="M 606.293587 -55.446669 
L 606.293587 -55.44 
L 608.947884 -55.44 
L 611.602181 -55.44 
L 614.256478 -55.44 
L 616.910775 -55.44 
L 619.565072 -55.44 
L 622.219369 -55.44 
L 624.873666 -55.44 
L 627.527963 -55.44 
L 630.18226 -55.44 
L 632.836557 -55.44 
L 635.490854 -55.44 
L 638.145151 -55.44 
L 640.799448 -55.44 
L 643.453745 -55.44 
L 646.108042 -55.44 
L 648.762339 -55.44 
L 651.416636 -55.44 
L 654.070933 -55.44 
L 656.72523 -55.44 
L 659.379527 -55.44 
L 662.033824 -55.44 
L 664.688121 -55.44 
L 667.342418 -55.44 
L 669.996715 -55.44 
L 672.651012 -55.44 
L 675.305309 -55.44 
L 677.959606 -55.44 
L 680.613903 -55.44 
L 683.2682 -55.44 
L 685.922497 -55.44 
L 688.576794 -55.44 
L 691.231091 -55.44 
L 693.885388 -55.44 
L 696.539685 -55.44 
L 699.193982 -55.44 
L 701.848279 -55.44 
L 704.502576 -55.44 
L 707.156873 -55.44 
L 709.81117 -55.44 
L 712.465467 -55.44 
L 715.119764 -55.44 
L 717.774061 -55.44 
L 720.428358 -55.44 
L 723.082655 -55.44 
L 725.736952 -55.44 
L 728.391249 -55.44 
L 731.045546 -55.44 
L 733.699843 -55.44 
L 736.35414 -55.44 
L 739.008437 -55.44 
L 741.662734 -55.44 
L 744.317031 -55.44 
L 746.971328 -55.44 
L 749.625625 -55.44 
L 752.279922 -55.44 
L 754.934219 -55.44 
L 757.588516 -55.44 
L 760.242813 -55.44 
L 762.89711 -55.44 
L 765.551407 -55.44 
L 768.205704 -55.44 
L 770.860001 -55.44 
L 773.514298 -55.44 
L 776.168595 -55.44 
L 778.822892 -55.44 
L 781.477189 -55.44 
L 784.131486 -55.44 
L 786.785783 -55.44 
L 789.44008 -55.44 
L 792.094377 -55.44 
L 794.748674 -55.44 
L 797.402971 -55.44 
L 800.057268 -55.44 
L 802.711565 -55.44 
L 805.365862 -55.44 
L 808.020159 -55.44 
L 810.674456 -55.44 
L 813.328753 -55.44 
L 815.98305 -55.44 
L 818.637347 -55.44 
L 821.291644 -55.44 
L 823.945941 -55.44 
L 826.600238 -55.44 
L 829.254535 -55.44 
L 831.908832 -55.44 
L 834.563129 -55.44 
L 837.217426 -55.44 
L 839.871723 -55.44 
L 842.52602 -55.44 
L 845.180317 -55.44 
L 847.834614 -55.44 
L 850.488911 -55.44 
L 853.143208 -55.44 
L 855.797505 -55.44 
L 858.451802 -55.44 
L 861.106099 -55.44 
L 863.760396 -55.44 
L 866.414693 -55.44 
L 869.06899 -55.44 
L 871.723287 -55.44 
L 874.377584 -55.44 
L 877.031881 -55.44 
L 879.686178 -55.44 
L 882.340475 -55.44 
L 884.994772 -55.44 
L 887.649069 -55.44 
L 890.303366 -55.44 
L 892.957663 -55.44 
L 895.61196 -55.44 
L 898.266257 -55.44 
L 900.920554 -55.44 
L 903.574851 -55.44 
L 906.229148 -55.44 
L 908.883445 -55.44 
L 911.537742 -55.44 
L 914.192039 -55.44 
L 916.846336 -55.44 
L 919.500633 -55.44 
L 922.15493 -55.44 
L 924.809227 -55.44 
L 927.463524 -55.44 
L 930.117821 -55.44 
L 932.772118 -55.44 
L 935.426415 -55.44 
L 938.080712 -55.44 
L 940.735009 -55.44 
L 943.389306 -55.44 
L 946.043603 -55.44 
L 948.6979 -55.44 
L 951.352197 -55.44 
L 954.006494 -55.44 
L 956.660791 -55.44 
L 959.315088 -55.44 
L 961.969385 -55.44 
L 964.623682 -55.44 
L 967.277979 -55.44 
L 969.932276 -55.44 
L 972.586573 -55.44 
L 975.24087 -55.44 
L 977.895167 -55.44 
L 980.549464 -55.44 
L 983.203761 -55.44 
L 985.858058 -55.44 
L 988.512355 -55.44 
L 991.166652 -55.44 
L 993.820949 -55.44 
L 996.475246 -55.44 
L 999.129543 -55.44 
L 1001.78384 -55.44 
L 1004.438137 -55.44 
L 1007.092434 -55.44 
L 1009.746731 -55.44 
L 1012.401028 -55.44 
L 1015.055325 -55.44 
L 1017.709622 -55.44 
L 1020.363919 -55.44 
L 1023.018216 -55.44 
L 1025.672513 -55.44 
L 1028.32681 -55.44 
L 1030.981107 -55.44 
L 1033.635404 -55.44 
L 1036.289701 -55.44 
L 1038.943998 -55.44 
L 1041.598295 -55.44 
L 1044.252592 -55.44 
L 1046.906889 -55.44 
L 1049.561186 -55.44 
L 1052.215483 -55.44 
L 1054.86978 -55.44 
L 1057.524077 -55.44 
L 1060.178374 -55.44 
L 1062.832671 -55.44 
L 1065.486968 -55.44 
L 1068.141265 -55.44 
L 1070.795562 -55.44 
L 1073.449859 -55.44 
L 1076.104156 -55.44 
L 1078.758453 -55.44 
L 1081.41275 -55.44 
L 1084.067047 -55.44 
L 1086.721344 -55.44 
L 1089.375641 -55.44 
L 1092.029938 -55.44 
L 1094.684235 -55.44 
L 1097.338532 -55.44 
L 1099.992829 -55.44 
L 1102.647126 -55.44 
L 1105.301423 -55.44 
L 1107.95572 -55.44 
L 1110.610017 -55.44 
L 1113.264314 -55.44 
L 1115.918611 -55.44 
L 1118.572908 -55.44 
L 1121.227205 -55.44 
L 1123.881502 -55.44 
L 1126.535799 -55.44 
L 1129.190096 -55.44 
L 1131.844393 -55.44 
L 1134.49869 -55.44 
L 1134.49869 -55.446669 
L 1134.49869 -55.446669 
L 1131.844393 -55.451739 
L 1129.190096 -55.459894 
L 1126.535799 -55.472458 
L 1123.881502 -55.490985 
L 1121.227205 -55.517105 
L 1118.572908 -55.552266 
L 1115.918611 -55.597375 
L 1113.264314 -55.652398 
L 1110.610017 -55.715995 
L 1107.95572 -55.7853 
L 1105.301423 -55.855968 
L 1102.647126 -55.922539 
L 1099.992829 -55.979132 
L 1097.338532 -56.020358 
L 1094.684235 -56.04231 
L 1092.029938 -56.043396 
L 1089.375641 -56.024871 
L 1086.721344 -55.990927 
L 1084.067047 -55.948376 
L 1081.41275 -55.906027 
L 1078.758453 -55.873921 
L 1076.104156 -55.862643 
L 1073.449859 -55.882836 
L 1070.795562 -55.945019 
L 1068.141265 -56.059689 
L 1065.486968 -56.237623 
L 1062.832671 -56.490246 
L 1060.178374 -56.829854 
L 1057.524077 -57.26952 
L 1054.86978 -57.82251 
L 1052.215483 -58.50116 
L 1049.561186 -59.315338 
L 1046.906889 -60.270841 
L 1044.252592 -61.368276 
L 1041.598295 -62.603085 
L 1038.943998 -63.967265 
L 1036.289701 -65.452995 
L 1033.635404 -67.057856 
L 1030.981107 -68.790745 
L 1028.32681 -70.677133 
L 1025.672513 -72.762208 
L 1023.018216 -75.110668 
L 1020.363919 -77.802622 
L 1017.709622 -80.925865 
L 1015.055325 -84.565712 
L 1012.401028 -88.794244 
L 1009.746731 -93.661107 
L 1007.092434 -99.18787 
L 1004.438137 -105.367236 
L 1001.78384 -112.167325 
L 999.129543 -119.539946 
L 996.475246 -127.430543 
L 993.820949 -135.786839 
L 991.166652 -144.56329 
L 988.512355 -153.719546 
L 985.858058 -163.212869 
L 983.203761 -172.986414 
L 980.549464 -182.956761 
L 977.895167 -193.004483 
L 975.24087 -202.970734 
L 972.586573 -212.661045 
L 969.932276 -221.855486 
L 967.277979 -230.322739 
L 964.623682 -237.835133 
L 961.969385 -244.182283 
L 959.315088 -249.182313 
L 956.660791 -252.691018 
L 954.006494 -254.609995 
L 951.352197 -254.89454 
L 948.6979 -253.56093 
L 946.043603 -250.691411 
L 943.389306 -246.434363 
L 940.735009 -240.997358 
L 938.080712 -234.632223 
L 935.426415 -227.61335 
L 932.772118 -220.212575 
L 930.117821 -212.67523 
L 927.463524 -205.201938 
L 924.809227 -197.939394 
L 922.15493 -190.981155 
L 919.500633 -184.377121 
L 916.846336 -178.148446 
L 914.192039 -172.303756 
L 911.537742 -166.852707 
L 908.883445 -161.814052 
L 906.229148 -157.217162 
L 903.574851 -153.097757 
L 900.920554 -149.490124 
L 898.266257 -146.41888 
L 895.61196 -143.893195 
L 892.957663 -141.905408 
L 890.303366 -140.434409 
L 887.649069 -139.452474 
L 884.994772 -138.932946 
L 882.340475 -138.855699 
L 879.686178 -139.20781 
L 877.031881 -139.978305 
L 874.377584 -141.147719 
L 871.723287 -142.675105 
L 869.06899 -144.486259 
L 866.414693 -146.467148 
L 863.760396 -148.465451 
L 861.106099 -150.301236 
L 858.451802 -151.785446 
L 855.797505 -152.742849 
L 853.143208 -153.034885 
L 850.488911 -152.577774 
L 847.834614 -151.352328 
L 845.180317 -149.403703 
L 842.52602 -146.831389 
L 839.871723 -143.771584 
L 837.217426 -140.375251 
L 834.563129 -136.785694 
L 831.908832 -133.119229 
L 829.254535 -129.451828 
L 826.600238 -125.813506 
L 823.945941 -122.190914 
L 821.291644 -118.53732 
L 818.637347 -114.787939 
L 815.98305 -110.877788 
L 813.328753 -106.758871 
L 810.674456 -102.413756 
L 808.020159 -97.863341 
L 805.365862 -93.167762 
L 802.711565 -88.420589 
L 800.057268 -83.737647 
L 797.402971 -79.242603 
L 794.748674 -75.05188 
L 792.094377 -71.261404 
L 789.44008 -67.93716 
L 786.785783 -65.110721 
L 784.131486 -62.779917 
L 781.477189 -60.913865 
L 778.822892 -59.460915 
L 776.168595 -58.357738 
L 773.514298 -57.537911 
L 770.860001 -56.938741 
L 768.205704 -56.505723 
L 765.551407 -56.194577 
L 762.89711 -55.971326 
L 760.242813 -55.811047 
L 757.588516 -55.696021 
L 754.934219 -55.613808 
L 752.279922 -55.555613 
L 749.625625 -55.515069 
L 746.971328 -55.487429 
L 744.317031 -55.469084 
L 741.662734 -55.457274 
L 739.008437 -55.449922 
L 736.35414 -55.445505 
L 733.699843 -55.442948 
L 731.045546 -55.441523 
L 728.391249 -55.440758 
L 725.736952 -55.440364 
L 723.082655 -55.440168 
L 720.428358 -55.440075 
L 717.774061 -55.440033 
L 715.119764 -55.440016 
L 712.465467 -55.440011 
L 709.81117 -55.440017 
L 707.156873 -55.440038 
L 704.502576 -55.440086 
L 701.848279 -55.440191 
L 699.193982 -55.44041 
L 696.539685 -55.440847 
L 693.885388 -55.441683 
L 691.231091 -55.44322 
L 688.576794 -55.445932 
L 685.922497 -55.450521 
L 683.2682 -55.457965 
L 680.613903 -55.469534 
L 677.959606 -55.486743 
L 675.305309 -55.511226 
L 672.651012 -55.54449 
L 669.996715 -55.587583 
L 667.342418 -55.640686 
L 664.688121 -55.702735 
L 662.033824 -55.77116 
L 659.379527 -55.841863 
L 656.72523 -55.909502 
L 654.070933 -55.968102 
L 651.416636 -56.011897 
L 648.762339 -56.036263 
L 646.108042 -56.038519 
L 643.453745 -56.018413 
L 640.799448 -55.978168 
L 638.145151 -55.922078 
L 635.490854 -55.855755 
L 632.836557 -55.785205 
L 630.18226 -55.715954 
L 627.527963 -55.652382 
L 624.873666 -55.597368 
L 622.219369 -55.552263 
L 619.565072 -55.517104 
L 616.910775 -55.490984 
L 614.256478 -55.472458 
L 611.602181 -55.459894 
L 608.947884 -55.451739 
L 606.293587 -55.446669 
z
" style="stroke: #ff0000"/>
    </defs>
    <g clip-path="url(#p6635336937)">
     <use xlink:href="#md91ac13ac7" x="0" y="504" style="fill: #ff0000; fill-opacity: 0.25; stroke: #ff0000"/>
    </g>
   </g>
   <g id="PolyCollection_4">
    <defs>
     <path id="md8a28e38b3" d="M 635.675043 -55.441089 
L 635.675043 -55.44 
L 637.771433 -55.44 
L 639.867824 -55.44 
L 641.964214 -55.44 
L 644.060604 -55.44 
L 646.156995 -55.44 
L 648.253385 -55.44 
L 650.349776 -55.44 
L 652.446166 -55.44 
L 654.542557 -55.44 
L 656.638947 -55.44 
L 658.735338 -55.44 
L 660.831728 -55.44 
L 662.928118 -55.44 
L 665.024509 -55.44 
L 667.120899 -55.44 
L 669.21729 -55.44 
L 671.31368 -55.44 
L 673.410071 -55.44 
L 675.506461 -55.44 
L 677.602851 -55.44 
L 679.699242 -55.44 
L 681.795632 -55.44 
L 683.892023 -55.44 
L 685.988413 -55.44 
L 688.084804 -55.44 
L 690.181194 -55.44 
L 692.277585 -55.44 
L 694.373975 -55.44 
L 696.470365 -55.44 
L 698.566756 -55.44 
L 700.663146 -55.44 
L 702.759537 -55.44 
L 704.855927 -55.44 
L 706.952318 -55.44 
L 709.048708 -55.44 
L 711.145099 -55.44 
L 713.241489 -55.44 
L 715.337879 -55.44 
L 717.43427 -55.44 
L 719.53066 -55.44 
L 721.627051 -55.44 
L 723.723441 -55.44 
L 725.819832 -55.44 
L 727.916222 -55.44 
L 730.012612 -55.44 
L 732.109003 -55.44 
L 734.205393 -55.44 
L 736.301784 -55.44 
L 738.398174 -55.44 
L 740.494565 -55.44 
L 742.590955 -55.44 
L 744.687346 -55.44 
L 746.783736 -55.44 
L 748.880126 -55.44 
L 750.976517 -55.44 
L 753.072907 -55.44 
L 755.169298 -55.44 
L 757.265688 -55.44 
L 759.362079 -55.44 
L 761.458469 -55.44 
L 763.55486 -55.44 
L 765.65125 -55.44 
L 767.74764 -55.44 
L 769.844031 -55.44 
L 771.940421 -55.44 
L 774.036812 -55.44 
L 776.133202 -55.44 
L 778.229593 -55.44 
L 780.325983 -55.44 
L 782.422373 -55.44 
L 784.518764 -55.44 
L 786.615154 -55.44 
L 788.711545 -55.44 
L 790.807935 -55.44 
L 792.904326 -55.44 
L 795.000716 -55.44 
L 797.097107 -55.44 
L 799.193497 -55.44 
L 801.289887 -55.44 
L 803.386278 -55.44 
L 805.482668 -55.44 
L 807.579059 -55.44 
L 809.675449 -55.44 
L 811.77184 -55.44 
L 813.86823 -55.44 
L 815.964621 -55.44 
L 818.061011 -55.44 
L 820.157401 -55.44 
L 822.253792 -55.44 
L 824.350182 -55.44 
L 826.446573 -55.44 
L 828.542963 -55.44 
L 830.639354 -55.44 
L 832.735744 -55.44 
L 834.832134 -55.44 
L 836.928525 -55.44 
L 839.024915 -55.44 
L 841.121306 -55.44 
L 843.217696 -55.44 
L 845.314087 -55.44 
L 847.410477 -55.44 
L 849.506868 -55.44 
L 851.603258 -55.44 
L 853.699648 -55.44 
L 855.796039 -55.44 
L 857.892429 -55.44 
L 859.98882 -55.44 
L 862.08521 -55.44 
L 864.181601 -55.44 
L 866.277991 -55.44 
L 868.374382 -55.44 
L 870.470772 -55.44 
L 872.567162 -55.44 
L 874.663553 -55.44 
L 876.759943 -55.44 
L 878.856334 -55.44 
L 880.952724 -55.44 
L 883.049115 -55.44 
L 885.145505 -55.44 
L 887.241895 -55.44 
L 889.338286 -55.44 
L 891.434676 -55.44 
L 893.531067 -55.44 
L 895.627457 -55.44 
L 897.723848 -55.44 
L 899.820238 -55.44 
L 901.916629 -55.44 
L 904.013019 -55.44 
L 906.109409 -55.44 
L 908.2058 -55.44 
L 910.30219 -55.44 
L 912.398581 -55.44 
L 914.494971 -55.44 
L 916.591362 -55.44 
L 918.687752 -55.44 
L 920.784142 -55.44 
L 922.880533 -55.44 
L 924.976923 -55.44 
L 927.073314 -55.44 
L 929.169704 -55.44 
L 931.266095 -55.44 
L 933.362485 -55.44 
L 935.458876 -55.44 
L 937.555266 -55.44 
L 939.651656 -55.44 
L 941.748047 -55.44 
L 943.844437 -55.44 
L 945.940828 -55.44 
L 948.037218 -55.44 
L 950.133609 -55.44 
L 952.229999 -55.44 
L 954.32639 -55.44 
L 956.42278 -55.44 
L 958.51917 -55.44 
L 960.615561 -55.44 
L 962.711951 -55.44 
L 964.808342 -55.44 
L 966.904732 -55.44 
L 969.001123 -55.44 
L 971.097513 -55.44 
L 973.193903 -55.44 
L 975.290294 -55.44 
L 977.386684 -55.44 
L 979.483075 -55.44 
L 981.579465 -55.44 
L 983.675856 -55.44 
L 985.772246 -55.44 
L 987.868637 -55.44 
L 989.965027 -55.44 
L 992.061417 -55.44 
L 994.157808 -55.44 
L 996.254198 -55.44 
L 998.350589 -55.44 
L 1000.446979 -55.44 
L 1002.54337 -55.44 
L 1004.63976 -55.44 
L 1006.736151 -55.44 
L 1008.832541 -55.44 
L 1010.928931 -55.44 
L 1013.025322 -55.44 
L 1015.121712 -55.44 
L 1017.218103 -55.44 
L 1019.314493 -55.44 
L 1021.410884 -55.44 
L 1023.507274 -55.44 
L 1025.603664 -55.44 
L 1027.700055 -55.44 
L 1029.796445 -55.44 
L 1031.892836 -55.44 
L 1033.989226 -55.44 
L 1036.085617 -55.44 
L 1038.182007 -55.44 
L 1040.278398 -55.44 
L 1042.374788 -55.44 
L 1044.471178 -55.44 
L 1046.567569 -55.44 
L 1048.663959 -55.44 
L 1050.76035 -55.44 
L 1052.85674 -55.44 
L 1052.85674 -55.441089 
L 1052.85674 -55.441089 
L 1050.76035 -55.444842 
L 1048.663959 -55.455958 
L 1046.567569 -55.479024 
L 1044.471178 -55.51104 
L 1042.374788 -55.537594 
L 1040.278398 -55.546943 
L 1038.182007 -55.551347 
L 1036.085617 -55.581705 
L 1033.989226 -55.650504 
L 1031.892836 -55.729171 
L 1029.796445 -55.780993 
L 1027.700055 -55.813098 
L 1025.603664 -55.865235 
L 1023.507274 -55.947405 
L 1021.410884 -56.0362 
L 1019.314493 -56.14039 
L 1017.218103 -56.315188 
L 1015.121712 -56.587046 
L 1013.025322 -56.892819 
L 1010.928931 -57.129569 
L 1008.832541 -57.286716 
L 1006.736151 -57.495704 
L 1004.63976 -57.89562 
L 1002.54337 -58.485233 
L 1000.446979 -59.173825 
L 998.350589 -59.962373 
L 996.254198 -61.026854 
L 994.157808 -62.572386 
L 992.061417 -64.563065 
L 989.965027 -66.681259 
L 987.868637 -68.704873 
L 985.772246 -70.872281 
L 983.675856 -73.628415 
L 981.579465 -77.000671 
L 979.483075 -80.651766 
L 977.386684 -84.696587 
L 975.290294 -89.752305 
L 973.193903 -95.772036 
L 971.097513 -101.80503 
L 969.001123 -107.633136 
L 966.904732 -114.473913 
L 964.808342 -122.967268 
L 962.711951 -131.747446 
L 960.615561 -139.559554 
L 958.51917 -147.569209 
L 956.42278 -157.67172 
L 954.32639 -169.619311 
L 952.229999 -181.902 
L 950.133609 -194.41687 
L 948.037218 -207.956389 
L 945.940828 -221.714722 
L 943.844437 -233.615696 
L 941.748047 -243.179006 
L 939.651656 -252.216316 
L 937.555266 -262.261836 
L 935.458876 -272.857594 
L 933.362485 -283.015286 
L 931.266095 -292.977892 
L 929.169704 -303.663454 
L 927.073314 -315.27239 
L 924.976923 -326.991926 
L 922.880533 -337.470133 
L 920.784142 -345.580813 
L 918.687752 -351.432779 
L 916.591362 -356.311169 
L 914.494971 -360.701112 
L 912.398581 -362.98029 
L 910.30219 -361.463689 
L 908.2058 -357.306391 
L 906.109409 -353.634014 
L 904.013019 -351.375575 
L 901.916629 -347.76766 
L 899.820238 -340.952345 
L 897.723848 -334.731221 
L 895.627457 -334.742089 
L 893.531067 -339.340638 
L 891.434676 -339.439259 
L 889.338286 -330.333415 
L 887.241895 -318.332748 
L 885.145505 -310.893428 
L 883.049115 -305.437 
L 880.952724 -294.203066 
L 878.856334 -275.724665 
L 876.759943 -254.662392 
L 874.663553 -233.646103 
L 872.567162 -211.825935 
L 870.470772 -189.397942 
L 868.374382 -168.402563 
L 866.277991 -150.113316 
L 864.181601 -134.580659 
L 862.08521 -121.577578 
L 859.98882 -110.532806 
L 857.892429 -101.025121 
L 855.796039 -93.776186 
L 853.699648 -89.408991 
L 851.603258 -86.572429 
L 849.506868 -83.215838 
L 847.410477 -79.123227 
L 845.314087 -75.467414 
L 843.217696 -72.573261 
L 841.121306 -69.724206 
L 839.024915 -66.698616 
L 836.928525 -64.115949 
L 834.832134 -62.32647 
L 832.735744 -60.90062 
L 830.639354 -59.353741 
L 828.542963 -57.774947 
L 826.446573 -56.552569 
L 824.350182 -55.856381 
L 822.253792 -55.561596 
L 820.157401 -55.467608 
L 818.061011 -55.444856 
L 815.964621 -55.440659 
L 813.86823 -55.440069 
L 811.77184 -55.440005 
L 809.675449 -55.44 
L 807.579059 -55.44 
L 805.482668 -55.44 
L 803.386278 -55.44 
L 801.289887 -55.44 
L 799.193497 -55.44 
L 797.097107 -55.44 
L 795.000716 -55.44 
L 792.904326 -55.44 
L 790.807935 -55.44 
L 788.711545 -55.44 
L 786.615154 -55.44 
L 784.518764 -55.44 
L 782.422373 -55.44 
L 780.325983 -55.44 
L 778.229593 -55.44 
L 776.133202 -55.44 
L 774.036812 -55.44 
L 771.940421 -55.44 
L 769.844031 -55.44 
L 767.74764 -55.44 
L 765.65125 -55.44 
L 763.55486 -55.44 
L 761.458469 -55.44 
L 759.362079 -55.44 
L 757.265688 -55.44 
L 755.169298 -55.44 
L 753.072907 -55.44 
L 750.976517 -55.44 
L 748.880126 -55.44 
L 746.783736 -55.44 
L 744.687346 -55.44 
L 742.590955 -55.44 
L 740.494565 -55.44 
L 738.398174 -55.44 
L 736.301784 -55.44 
L 734.205393 -55.44 
L 732.109003 -55.44 
L 730.012612 -55.44 
L 727.916222 -55.44 
L 725.819832 -55.44 
L 723.723441 -55.44 
L 721.627051 -55.44 
L 719.53066 -55.44 
L 717.43427 -55.44 
L 715.337879 -55.44 
L 713.241489 -55.44 
L 711.145099 -55.44 
L 709.048708 -55.44 
L 706.952318 -55.44 
L 704.855927 -55.44 
L 702.759537 -55.44 
L 700.663146 -55.44 
L 698.566756 -55.44 
L 696.470365 -55.44 
L 694.373975 -55.44 
L 692.277585 -55.44 
L 690.181194 -55.44 
L 688.084804 -55.44 
L 685.988413 -55.44 
L 683.892023 -55.44 
L 681.795632 -55.44 
L 679.699242 -55.44 
L 677.602851 -55.44 
L 675.506461 -55.44 
L 673.410071 -55.44 
L 671.31368 -55.44 
L 669.21729 -55.44 
L 667.120899 -55.44 
L 665.024509 -55.440002 
L 662.928118 -55.440021 
L 660.831728 -55.440171 
L 658.735338 -55.441033 
L 656.638947 -55.444634 
L 654.542557 -55.455417 
L 652.446166 -55.478023 
L 650.349776 -55.509522 
L 648.253385 -55.534236 
L 646.156995 -55.534697 
L 644.060604 -55.510546 
L 641.964214 -55.478961 
L 639.867824 -55.455952 
L 637.771433 -55.444842 
L 635.675043 -55.441089 
z
" style="stroke: #0000ff"/>
    </defs>
    <g clip-path="url(#p6635336937)">
     <use xlink:href="#md8a28e38b3" x="0" y="504" style="fill: #0000ff; fill-opacity: 0.25; stroke: #0000ff"/>
    </g>
   </g>
   <g id="matplotlib.axis_3">
    <g id="xtick_8">
     <g id="line2d_13">
      <g>
       <use xlink:href="#m26c79fe11f" x="769.539474" y="448.56" style="stroke: #000000; stroke-width: 2"/>
      </g>
     </g>
     <g id="text_14">
      <!-- 200 -->
      <g transform="translate(748.543224 478.776563) scale(0.22 -0.22)">
       <use xlink:href="#DejaVuSans-32"/>
       <use xlink:href="#DejaVuSans-30" x="63.623047"/>
       <use xlink:href="#DejaVuSans-30" x="127.246094"/>
      </g>
     </g>
    </g>
    <g id="xtick_9">
     <g id="line2d_14">
      <g>
       <use xlink:href="#m26c79fe11f" x="830.723684" y="448.56" style="stroke: #000000; stroke-width: 2"/>
      </g>
     </g>
     <g id="text_15">
      <!-- 300 -->
      <g transform="translate(809.727434 478.776563) scale(0.22 -0.22)">
       <use xlink:href="#DejaVuSans-33"/>
       <use xlink:href="#DejaVuSans-30" x="63.623047"/>
       <use xlink:href="#DejaVuSans-30" x="127.246094"/>
      </g>
     </g>
    </g>
    <g id="xtick_10">
     <g id="line2d_15">
      <g>
       <use xlink:href="#m26c79fe11f" x="891.907895" y="448.56" style="stroke: #000000; stroke-width: 2"/>
      </g>
     </g>
     <g id="text_16">
      <!-- 400 -->
      <g transform="translate(870.911645 478.776563) scale(0.22 -0.22)">
       <use xlink:href="#DejaVuSans-34"/>
       <use xlink:href="#DejaVuSans-30" x="63.623047"/>
       <use xlink:href="#DejaVuSans-30" x="127.246094"/>
      </g>
     </g>
    </g>
    <g id="xtick_11">
     <g id="line2d_16">
      <g>
       <use xlink:href="#m26c79fe11f" x="953.092105" y="448.56" style="stroke: #000000; stroke-width: 2"/>
      </g>
     </g>
     <g id="text_17">
      <!-- 500 -->
      <g transform="translate(932.095855 478.776563) scale(0.22 -0.22)">
       <use xlink:href="#DejaVuSans-35"/>
       <use xlink:href="#DejaVuSans-30" x="63.623047"/>
       <use xlink:href="#DejaVuSans-30" x="127.246094"/>
      </g>
     </g>
    </g>
    <g id="xtick_12">
     <g id="line2d_17">
      <g>
       <use xlink:href="#m26c79fe11f" x="1014.276316" y="448.56" style="stroke: #000000; stroke-width: 2"/>
      </g>
     </g>
     <g id="text_18">
      <!-- 600 -->
      <g transform="translate(993.280066 478.776563) scale(0.22 -0.22)">
       <defs>
        <path id="DejaVuSans-36" d="M 2113 2584 
Q 1688 2584 1439 2293 
Q 1191 2003 1191 1497 
Q 1191 994 1439 701 
Q 1688 409 2113 409 
Q 2538 409 2786 701 
Q 3034 994 3034 1497 
Q 3034 2003 2786 2293 
Q 2538 2584 2113 2584 
z
M 3366 4563 
L 3366 3988 
Q 3128 4100 2886 4159 
Q 2644 4219 2406 4219 
Q 1781 4219 1451 3797 
Q 1122 3375 1075 2522 
Q 1259 2794 1537 2939 
Q 1816 3084 2150 3084 
Q 2853 3084 3261 2657 
Q 3669 2231 3669 1497 
Q 3669 778 3244 343 
Q 2819 -91 2113 -91 
Q 1303 -91 875 529 
Q 447 1150 447 2328 
Q 447 3434 972 4092 
Q 1497 4750 2381 4750 
Q 2619 4750 2861 4703 
Q 3103 4656 3366 4563 
z
" transform="scale(0.015625)"/>
       </defs>
       <use xlink:href="#DejaVuSans-36"/>
       <use xlink:href="#DejaVuSans-30" x="63.623047"/>
       <use xlink:href="#DejaVuSans-30" x="127.246094"/>
      </g>
     </g>
    </g>
    <g id="xtick_13">
     <g id="line2d_18">
      <g>
       <use xlink:href="#m26c79fe11f" x="1075.460526" y="448.56" style="stroke: #000000; stroke-width: 2"/>
      </g>
     </g>
     <g id="text_19">
      <!-- 700 -->
      <g transform="translate(1054.464276 478.776563) scale(0.22 -0.22)">
       <defs>
        <path id="DejaVuSans-37" d="M 525 4666 
L 3525 4666 
L 3525 4397 
L 1831 0 
L 1172 0 
L 2766 4134 
L 525 4134 
L 525 4666 
z
" transform="scale(0.015625)"/>
       </defs>
       <use xlink:href="#DejaVuSans-37"/>
       <use xlink:href="#DejaVuSans-30" x="63.623047"/>
       <use xlink:href="#DejaVuSans-30" x="127.246094"/>
      </g>
     </g>
    </g>
   </g>
   <g id="matplotlib.axis_4">
    <g id="ytick_6">
     <g id="line2d_19">
      <g>
       <use xlink:href="#mbdb029ddd7" x="738.947368" y="448.56" style="stroke: #000000; stroke-width: 2"/>
      </g>
     </g>
     <g id="text_20">
      <!-- 0.000 -->
      <g transform="translate(662.465493 456.918281) scale(0.22 -0.22)">
       <use xlink:href="#DejaVuSans-30"/>
       <use xlink:href="#DejaVuSans-2e" x="63.623047"/>
       <use xlink:href="#DejaVuSans-30" x="95.410156"/>
       <use xlink:href="#DejaVuSans-30" x="159.033203"/>
       <use xlink:href="#DejaVuSans-30" x="222.65625"/>
      </g>
     </g>
    </g>
    <g id="ytick_7">
     <g id="line2d_20">
      <g>
       <use xlink:href="#mbdb029ddd7" x="738.947368" y="370.944" style="stroke: #000000; stroke-width: 2"/>
      </g>
     </g>
     <g id="text_21">
      <!-- 0.002 -->
      <g transform="translate(662.465493 379.302281) scale(0.22 -0.22)">
       <use xlink:href="#DejaVuSans-30"/>
       <use xlink:href="#DejaVuSans-2e" x="63.623047"/>
       <use xlink:href="#DejaVuSans-30" x="95.410156"/>
       <use xlink:href="#DejaVuSans-30" x="159.033203"/>
       <use xlink:href="#DejaVuSans-32" x="222.65625"/>
      </g>
     </g>
    </g>
    <g id="ytick_8">
     <g id="line2d_21">
      <g>
       <use xlink:href="#mbdb029ddd7" x="738.947368" y="293.328" style="stroke: #000000; stroke-width: 2"/>
      </g>
     </g>
     <g id="text_22">
      <!-- 0.004 -->
      <g transform="translate(662.465493 301.686281) scale(0.22 -0.22)">
       <use xlink:href="#DejaVuSans-30"/>
       <use xlink:href="#DejaVuSans-2e" x="63.623047"/>
       <use xlink:href="#DejaVuSans-30" x="95.410156"/>
       <use xlink:href="#DejaVuSans-30" x="159.033203"/>
       <use xlink:href="#DejaVuSans-34" x="222.65625"/>
      </g>
     </g>
    </g>
    <g id="ytick_9">
     <g id="line2d_22">
      <g>
       <use xlink:href="#mbdb029ddd7" x="738.947368" y="215.712" style="stroke: #000000; stroke-width: 2"/>
      </g>
     </g>
     <g id="text_23">
      <!-- 0.006 -->
      <g transform="translate(662.465493 224.070281) scale(0.22 -0.22)">
       <use xlink:href="#DejaVuSans-30"/>
       <use xlink:href="#DejaVuSans-2e" x="63.623047"/>
       <use xlink:href="#DejaVuSans-30" x="95.410156"/>
       <use xlink:href="#DejaVuSans-30" x="159.033203"/>
       <use xlink:href="#DejaVuSans-36" x="222.65625"/>
      </g>
     </g>
    </g>
    <g id="ytick_10">
     <g id="line2d_23">
      <g>
       <use xlink:href="#mbdb029ddd7" x="738.947368" y="138.096" style="stroke: #000000; stroke-width: 2"/>
      </g>
     </g>
     <g id="text_24">
      <!-- 0.008 -->
      <g transform="translate(662.465493 146.454281) scale(0.22 -0.22)">
       <defs>
        <path id="DejaVuSans-38" d="M 2034 2216 
Q 1584 2216 1326 1975 
Q 1069 1734 1069 1313 
Q 1069 891 1326 650 
Q 1584 409 2034 409 
Q 2484 409 2743 651 
Q 3003 894 3003 1313 
Q 3003 1734 2745 1975 
Q 2488 2216 2034 2216 
z
M 1403 2484 
Q 997 2584 770 2862 
Q 544 3141 544 3541 
Q 544 4100 942 4425 
Q 1341 4750 2034 4750 
Q 2731 4750 3128 4425 
Q 3525 4100 3525 3541 
Q 3525 3141 3298 2862 
Q 3072 2584 2669 2484 
Q 3125 2378 3379 2068 
Q 3634 1759 3634 1313 
Q 3634 634 3220 271 
Q 2806 -91 2034 -91 
Q 1263 -91 848 271 
Q 434 634 434 1313 
Q 434 1759 690 2068 
Q 947 2378 1403 2484 
z
M 1172 3481 
Q 1172 3119 1398 2916 
Q 1625 2713 2034 2713 
Q 2441 2713 2670 2916 
Q 2900 3119 2900 3481 
Q 2900 3844 2670 4047 
Q 2441 4250 2034 4250 
Q 1625 4250 1398 4047 
Q 1172 3844 1172 3481 
z
" transform="scale(0.015625)"/>
       </defs>
       <use xlink:href="#DejaVuSans-30"/>
       <use xlink:href="#DejaVuSans-2e" x="63.623047"/>
       <use xlink:href="#DejaVuSans-30" x="95.410156"/>
       <use xlink:href="#DejaVuSans-30" x="159.033203"/>
       <use xlink:href="#DejaVuSans-38" x="222.65625"/>
      </g>
     </g>
    </g>
    <g id="ytick_11">
     <g id="line2d_24">
      <g>
       <use xlink:href="#mbdb029ddd7" x="738.947368" y="60.48" style="stroke: #000000; stroke-width: 2"/>
      </g>
     </g>
     <g id="text_25">
      <!-- 0.010 -->
      <g transform="translate(662.465493 68.838281) scale(0.22 -0.22)">
       <use xlink:href="#DejaVuSans-30"/>
       <use xlink:href="#DejaVuSans-2e" x="63.623047"/>
       <use xlink:href="#DejaVuSans-30" x="95.410156"/>
       <use xlink:href="#DejaVuSans-31" x="159.033203"/>
       <use xlink:href="#DejaVuSans-30" x="222.65625"/>
      </g>
     </g>
    </g>
    <g id="text_26">
     <!-- Density -->
     <g transform="translate(656.385806 273.528594) rotate(-90) scale(0.1 -0.1)">
      <use xlink:href="#DejaVuSans-44"/>
      <use xlink:href="#DejaVuSans-65" x="77.001953"/>
      <use xlink:href="#DejaVuSans-6e" x="138.525391"/>
      <use xlink:href="#DejaVuSans-73" x="201.904297"/>
      <use xlink:href="#DejaVuSans-69" x="254.003906"/>
      <use xlink:href="#DejaVuSans-74" x="281.787109"/>
      <use xlink:href="#DejaVuSans-79" x="320.996094"/>
     </g>
    </g>
   </g>
   <g id="patch_8">
    <path d="M 738.947368 448.56 
L 738.947368 60.48 
" style="fill: none; stroke: #000000; stroke-width: 0.8; stroke-linejoin: miter; stroke-linecap: square"/>
   </g>
   <g id="patch_9">
    <path d="M 1106.052632 448.56 
L 1106.052632 60.48 
" style="fill: none; stroke: #000000; stroke-width: 0.8; stroke-linejoin: miter; stroke-linecap: square"/>
   </g>
   <g id="patch_10">
    <path d="M 738.947368 448.56 
L 1106.052632 448.56 
" style="fill: none; stroke: #000000; stroke-width: 0.8; stroke-linejoin: miter; stroke-linecap: square"/>
   </g>
   <g id="patch_11">
    <path d="M 738.947368 60.48 
L 1106.052632 60.48 
" style="fill: none; stroke: #000000; stroke-width: 0.8; stroke-linejoin: miter; stroke-linecap: square"/>
   </g>
  </g>
  <g id="axes_3">
   <g id="patch_12">
    <path d="M 1252.894737 448.56 
L 1620 448.56 
L 1620 60.48 
L 1252.894737 60.48 
z
" style="fill: #ffffff"/>
   </g>
   <g id="PolyCollection_5">
    <defs>
     <path id="mde34adc359" d="M 1269.58134 -55.462165 
L 1269.58134 -55.44 
L 1271.221166 -55.44 
L 1272.860992 -55.44 
L 1274.500817 -55.44 
L 1276.140643 -55.44 
L 1277.780469 -55.44 
L 1279.420295 -55.44 
L 1281.060121 -55.44 
L 1282.699947 -55.44 
L 1284.339773 -55.44 
L 1285.979599 -55.44 
L 1287.619425 -55.44 
L 1289.25925 -55.44 
L 1290.899076 -55.44 
L 1292.538902 -55.44 
L 1294.178728 -55.44 
L 1295.818554 -55.44 
L 1297.45838 -55.44 
L 1299.098206 -55.44 
L 1300.738032 -55.44 
L 1302.377858 -55.44 
L 1304.017684 -55.44 
L 1305.657509 -55.44 
L 1307.297335 -55.44 
L 1308.937161 -55.44 
L 1310.576987 -55.44 
L 1312.216813 -55.44 
L 1313.856639 -55.44 
L 1315.496465 -55.44 
L 1317.136291 -55.44 
L 1318.776117 -55.44 
L 1320.415942 -55.44 
L 1322.055768 -55.44 
L 1323.695594 -55.44 
L 1325.33542 -55.44 
L 1326.975246 -55.44 
L 1328.615072 -55.44 
L 1330.254898 -55.44 
L 1331.894724 -55.44 
L 1333.53455 -55.44 
L 1335.174376 -55.44 
L 1336.814201 -55.44 
L 1338.454027 -55.44 
L 1340.093853 -55.44 
L 1341.733679 -55.44 
L 1343.373505 -55.44 
L 1345.013331 -55.44 
L 1346.653157 -55.44 
L 1348.292983 -55.44 
L 1349.932809 -55.44 
L 1351.572634 -55.44 
L 1353.21246 -55.44 
L 1354.852286 -55.44 
L 1356.492112 -55.44 
L 1358.131938 -55.44 
L 1359.771764 -55.44 
L 1361.41159 -55.44 
L 1363.051416 -55.44 
L 1364.691242 -55.44 
L 1366.331068 -55.44 
L 1367.970893 -55.44 
L 1369.610719 -55.44 
L 1371.250545 -55.44 
L 1372.890371 -55.44 
L 1374.530197 -55.44 
L 1376.170023 -55.44 
L 1377.809849 -55.44 
L 1379.449675 -55.44 
L 1381.089501 -55.44 
L 1382.729326 -55.44 
L 1384.369152 -55.44 
L 1386.008978 -55.44 
L 1387.648804 -55.44 
L 1389.28863 -55.44 
L 1390.928456 -55.44 
L 1392.568282 -55.44 
L 1394.208108 -55.44 
L 1395.847934 -55.44 
L 1397.48776 -55.44 
L 1399.127585 -55.44 
L 1400.767411 -55.44 
L 1402.407237 -55.44 
L 1404.047063 -55.44 
L 1405.686889 -55.44 
L 1407.326715 -55.44 
L 1408.966541 -55.44 
L 1410.606367 -55.44 
L 1412.246193 -55.44 
L 1413.886018 -55.44 
L 1415.525844 -55.44 
L 1417.16567 -55.44 
L 1418.805496 -55.44 
L 1420.445322 -55.44 
L 1422.085148 -55.44 
L 1423.724974 -55.44 
L 1425.3648 -55.44 
L 1427.004626 -55.44 
L 1428.644452 -55.44 
L 1430.284277 -55.44 
L 1431.924103 -55.44 
L 1433.563929 -55.44 
L 1435.203755 -55.44 
L 1436.843581 -55.44 
L 1438.483407 -55.44 
L 1440.123233 -55.44 
L 1441.763059 -55.44 
L 1443.402885 -55.44 
L 1445.04271 -55.44 
L 1446.682536 -55.44 
L 1448.322362 -55.44 
L 1449.962188 -55.44 
L 1451.602014 -55.44 
L 1453.24184 -55.44 
L 1454.881666 -55.44 
L 1456.521492 -55.44 
L 1458.161318 -55.44 
L 1459.801144 -55.44 
L 1461.440969 -55.44 
L 1463.080795 -55.44 
L 1464.720621 -55.44 
L 1466.360447 -55.44 
L 1468.000273 -55.44 
L 1469.640099 -55.44 
L 1471.279925 -55.44 
L 1472.919751 -55.44 
L 1474.559577 -55.44 
L 1476.199403 -55.44 
L 1477.839228 -55.44 
L 1479.479054 -55.44 
L 1481.11888 -55.44 
L 1482.758706 -55.44 
L 1484.398532 -55.44 
L 1486.038358 -55.44 
L 1487.678184 -55.44 
L 1489.31801 -55.44 
L 1490.957836 -55.44 
L 1492.597661 -55.44 
L 1494.237487 -55.44 
L 1495.877313 -55.44 
L 1497.517139 -55.44 
L 1499.156965 -55.44 
L 1500.796791 -55.44 
L 1502.436617 -55.44 
L 1504.076443 -55.44 
L 1505.716269 -55.44 
L 1507.356095 -55.44 
L 1508.99592 -55.44 
L 1510.635746 -55.44 
L 1512.275572 -55.44 
L 1513.915398 -55.44 
L 1515.555224 -55.44 
L 1517.19505 -55.44 
L 1518.834876 -55.44 
L 1520.474702 -55.44 
L 1522.114528 -55.44 
L 1523.754353 -55.44 
L 1525.394179 -55.44 
L 1527.034005 -55.44 
L 1528.673831 -55.44 
L 1530.313657 -55.44 
L 1531.953483 -55.44 
L 1533.593309 -55.44 
L 1535.233135 -55.44 
L 1536.872961 -55.44 
L 1538.512787 -55.44 
L 1540.152612 -55.44 
L 1541.792438 -55.44 
L 1543.432264 -55.44 
L 1545.07209 -55.44 
L 1546.711916 -55.44 
L 1548.351742 -55.44 
L 1549.991568 -55.44 
L 1551.631394 -55.44 
L 1553.27122 -55.44 
L 1554.911045 -55.44 
L 1556.550871 -55.44 
L 1558.190697 -55.44 
L 1559.830523 -55.44 
L 1561.470349 -55.44 
L 1563.110175 -55.44 
L 1564.750001 -55.44 
L 1566.389827 -55.44 
L 1568.029653 -55.44 
L 1569.669479 -55.44 
L 1571.309304 -55.44 
L 1572.94913 -55.44 
L 1574.588956 -55.44 
L 1576.228782 -55.44 
L 1577.868608 -55.44 
L 1579.508434 -55.44 
L 1581.14826 -55.44 
L 1582.788086 -55.44 
L 1584.427912 -55.44 
L 1586.067737 -55.44 
L 1587.707563 -55.44 
L 1589.347389 -55.44 
L 1590.987215 -55.44 
L 1592.627041 -55.44 
L 1594.266867 -55.44 
L 1595.906693 -55.44 
L 1595.906693 -55.453549 
L 1595.906693 -55.453549 
L 1594.266867 -55.461826 
L 1592.627041 -55.474232 
L 1590.987215 -55.492276 
L 1589.347389 -55.51773 
L 1587.707563 -55.552533 
L 1586.067737 -55.59863 
L 1584.427912 -55.657722 
L 1582.788086 -55.730959 
L 1581.14826 -55.818599 
L 1579.508434 -55.919677 
L 1577.868608 -56.031766 
L 1576.228782 -56.150883 
L 1574.588956 -56.271609 
L 1572.94913 -56.38745 
L 1571.309304 -56.49144 
L 1569.669479 -56.576915 
L 1568.029653 -56.638395 
L 1566.389827 -56.672433 
L 1564.750001 -56.678317 
L 1563.110175 -56.65854 
L 1561.470349 -56.618978 
L 1559.830523 -56.568775 
L 1558.190697 -56.519981 
L 1556.550871 -56.487041 
L 1554.911045 -56.486212 
L 1553.27122 -56.534996 
L 1551.631394 -56.651636 
L 1549.991568 -56.854692 
L 1548.351742 -57.162662 
L 1546.711916 -57.593611 
L 1545.07209 -58.164746 
L 1543.432264 -58.891883 
L 1541.792438 -59.788798 
L 1540.152612 -60.866418 
L 1538.512787 -62.131902 
L 1536.872961 -63.587626 
L 1535.233135 -65.230151 
L 1533.593309 -67.04928 
L 1531.953483 -69.027356 
L 1530.313657 -71.138977 
L 1528.673831 -73.351366 
L 1527.034005 -75.625595 
L 1525.394179 -77.918803 
L 1523.754353 -80.187431 
L 1522.114528 -82.391317 
L 1520.474702 -84.498264 
L 1518.834876 -86.48855 
L 1517.19505 -88.358709 
L 1515.555224 -90.123925 
L 1513.915398 -91.81851 
L 1512.275572 -93.494164 
L 1510.635746 -95.216035 
L 1508.99592 -97.056881 
L 1507.356095 -99.089909 
L 1505.716269 -101.381016 
L 1504.076443 -103.981254 
L 1502.436617 -106.920318 
L 1500.796791 -110.201818 
L 1499.156965 -113.800991 
L 1497.517139 -117.665377 
L 1495.877313 -121.718755 
L 1494.237487 -125.868315 
L 1492.597661 -130.01462 
L 1490.957836 -134.063386 
L 1489.31801 -137.937661 
L 1487.678184 -141.588645 
L 1486.038358 -145.003386 
L 1484.398532 -148.20793 
L 1482.758706 -151.265185 
L 1481.11888 -154.267693 
L 1479.479054 -157.326446 
L 1477.839228 -160.557586 
L 1476.199403 -164.069197 
L 1474.559577 -167.95017 
L 1472.919751 -172.262612 
L 1471.279925 -177.03837 
L 1469.640099 -182.279462 
L 1468.000273 -187.961545 
L 1466.360447 -194.039281 
L 1464.720621 -200.45251 
L 1463.080795 -207.132442 
L 1461.440969 -214.007414 
L 1459.801144 -221.008044 
L 1458.161318 -228.071707 
L 1456.521492 -235.146204 
L 1454.881666 -242.192364 
L 1453.24184 -249.185266 
L 1451.602014 -256.113828 
L 1449.962188 -262.97873 
L 1448.322362 -269.788937 
L 1446.682536 -276.557427 
L 1445.04271 -283.296874 
L 1443.402885 -290.016102 
L 1441.763059 -296.717969 
L 1440.123233 -303.399084 
L 1438.483407 -310.051421 
L 1436.843581 -316.665598 
L 1435.203755 -323.235241 
L 1433.563929 -329.761593 
L 1431.924103 -336.257314 
L 1430.284277 -342.748292 
L 1428.644452 -349.272376 
L 1427.004626 -355.874278 
L 1425.3648 -362.596511 
L 1423.724974 -369.467103 
L 1422.085148 -376.485749 
L 1420.445322 -383.610843 
L 1418.805496 -390.750189 
L 1417.16567 -397.757966 
L 1415.525844 -404.439628 
L 1413.886018 -410.565041 
L 1412.246193 -415.888532 
L 1410.606367 -420.173048 
L 1408.966541 -423.214724 
L 1407.326715 -424.863985 
L 1405.686889 -425.04 
L 1404.047063 -423.736628 
L 1402.407237 -421.019616 
L 1400.767411 -417.016276 
L 1399.127585 -411.899875 
L 1397.48776 -405.871326 
L 1395.847934 -399.140495 
L 1394.208108 -391.908831 
L 1392.568282 -384.354347 
L 1390.928456 -376.619494 
L 1389.28863 -368.802335 
L 1387.648804 -360.951498 
L 1386.008978 -353.065527 
L 1384.369152 -345.097191 
L 1382.729326 -336.962893 
L 1381.089501 -328.556607 
L 1379.449675 -319.766875 
L 1377.809849 -310.494645 
L 1376.170023 -300.669363 
L 1374.530197 -290.260928 
L 1372.890371 -279.285863 
L 1371.250545 -267.807131 
L 1369.610719 -255.928231 
L 1367.970893 -243.783144 
L 1366.331068 -231.524256 
L 1364.691242 -219.310354 
L 1363.051416 -207.296395 
L 1361.41159 -195.625989 
L 1359.771764 -184.426738 
L 1358.131938 -173.807962 
L 1356.492112 -163.859872 
L 1354.852286 -154.653272 
L 1353.21246 -146.239 
L 1351.572634 -138.646804 
L 1349.932809 -131.883738 
L 1348.292983 -125.932648 
L 1346.653157 -120.751487 
L 1345.013331 -116.274256 
L 1343.373505 -112.414118 
L 1341.733679 -109.068839 
L 1340.093853 -106.128195 
L 1338.454027 -103.482542 
L 1336.814201 -101.031387 
L 1335.174376 -98.690755 
L 1333.53455 -96.398315 
L 1331.894724 -94.115596 
L 1330.254898 -91.827213 
L 1328.615072 -89.537487 
L 1326.975246 -87.265255 
L 1325.33542 -85.037878 
L 1323.695594 -82.885369 
L 1322.055768 -80.835405 
L 1320.415942 -78.909643 
L 1318.776117 -77.121485 
L 1317.136291 -75.475187 
L 1315.496465 -73.966124 
L 1313.856639 -72.58193 
L 1312.216813 -71.304333 
L 1310.576987 -70.111451 
L 1308.937161 -68.980368 
L 1307.297335 -67.889754 
L 1305.657509 -66.82225 
L 1304.017684 -65.766333 
L 1302.377858 -64.717405 
L 1300.738032 -63.677935 
L 1299.098206 -62.656657 
L 1297.45838 -61.666951 
L 1295.818554 -60.724696 
L 1294.178728 -59.845956 
L 1292.538902 -59.044848 
L 1290.899076 -58.331906 
L 1289.25925 -57.713094 
L 1287.619425 -57.189547 
L 1285.979599 -56.757926 
L 1284.339773 -56.41125 
L 1282.699947 -56.139989 
L 1281.060121 -55.933219 
L 1279.420295 -55.779674 
L 1277.780469 -55.66859 
L 1276.140643 -55.590291 
L 1274.500817 -55.536517 
L 1272.860992 -55.500534 
L 1271.221166 -55.477072 
L 1269.58134 -55.462165 
z
" style="stroke: #ff0000"/>
    </defs>
    <g clip-path="url(#pca4c326ed7)">
     <use xlink:href="#mde34adc359" x="0" y="504" style="fill: #ff0000; fill-opacity: 0.25; stroke: #ff0000"/>
    </g>
   </g>
   <g id="PolyCollection_6">
    <defs>
     <path id="m886bc03e48" d="M 1293.389958 -55.44124 
L 1293.389958 -55.44 
L 1294.947362 -55.44 
L 1296.504766 -55.44 
L 1298.062171 -55.44 
L 1299.619575 -55.44 
L 1301.176979 -55.44 
L 1302.734383 -55.44 
L 1304.291787 -55.44 
L 1305.849192 -55.44 
L 1307.406596 -55.44 
L 1308.964 -55.44 
L 1310.521404 -55.44 
L 1312.078808 -55.44 
L 1313.636213 -55.44 
L 1315.193617 -55.44 
L 1316.751021 -55.44 
L 1318.308425 -55.44 
L 1319.86583 -55.44 
L 1321.423234 -55.44 
L 1322.980638 -55.44 
L 1324.538042 -55.44 
L 1326.095446 -55.44 
L 1327.652851 -55.44 
L 1329.210255 -55.44 
L 1330.767659 -55.44 
L 1332.325063 -55.44 
L 1333.882468 -55.44 
L 1335.439872 -55.44 
L 1336.997276 -55.44 
L 1338.55468 -55.44 
L 1340.112084 -55.44 
L 1341.669489 -55.44 
L 1343.226893 -55.44 
L 1344.784297 -55.44 
L 1346.341701 -55.44 
L 1347.899105 -55.44 
L 1349.45651 -55.44 
L 1351.013914 -55.44 
L 1352.571318 -55.44 
L 1354.128722 -55.44 
L 1355.686127 -55.44 
L 1357.243531 -55.44 
L 1358.800935 -55.44 
L 1360.358339 -55.44 
L 1361.915743 -55.44 
L 1363.473148 -55.44 
L 1365.030552 -55.44 
L 1366.587956 -55.44 
L 1368.14536 -55.44 
L 1369.702765 -55.44 
L 1371.260169 -55.44 
L 1372.817573 -55.44 
L 1374.374977 -55.44 
L 1375.932381 -55.44 
L 1377.489786 -55.44 
L 1379.04719 -55.44 
L 1380.604594 -55.44 
L 1382.161998 -55.44 
L 1383.719402 -55.44 
L 1385.276807 -55.44 
L 1386.834211 -55.44 
L 1388.391615 -55.44 
L 1389.949019 -55.44 
L 1391.506424 -55.44 
L 1393.063828 -55.44 
L 1394.621232 -55.44 
L 1396.178636 -55.44 
L 1397.73604 -55.44 
L 1399.293445 -55.44 
L 1400.850849 -55.44 
L 1402.408253 -55.44 
L 1403.965657 -55.44 
L 1405.523062 -55.44 
L 1407.080466 -55.44 
L 1408.63787 -55.44 
L 1410.195274 -55.44 
L 1411.752678 -55.44 
L 1413.310083 -55.44 
L 1414.867487 -55.44 
L 1416.424891 -55.44 
L 1417.982295 -55.44 
L 1419.539699 -55.44 
L 1421.097104 -55.44 
L 1422.654508 -55.44 
L 1424.211912 -55.44 
L 1425.769316 -55.44 
L 1427.326721 -55.44 
L 1428.884125 -55.44 
L 1430.441529 -55.44 
L 1431.998933 -55.44 
L 1433.556337 -55.44 
L 1435.113742 -55.44 
L 1436.671146 -55.44 
L 1438.22855 -55.44 
L 1439.785954 -55.44 
L 1441.343359 -55.44 
L 1442.900763 -55.44 
L 1444.458167 -55.44 
L 1446.015571 -55.44 
L 1447.572975 -55.44 
L 1449.13038 -55.44 
L 1450.687784 -55.44 
L 1452.245188 -55.44 
L 1453.802592 -55.44 
L 1455.359996 -55.44 
L 1456.917401 -55.44 
L 1458.474805 -55.44 
L 1460.032209 -55.44 
L 1461.589613 -55.44 
L 1463.147018 -55.44 
L 1464.704422 -55.44 
L 1466.261826 -55.44 
L 1467.81923 -55.44 
L 1469.376634 -55.44 
L 1470.934039 -55.44 
L 1472.491443 -55.44 
L 1474.048847 -55.44 
L 1475.606251 -55.44 
L 1477.163656 -55.44 
L 1478.72106 -55.44 
L 1480.278464 -55.44 
L 1481.835868 -55.44 
L 1483.393272 -55.44 
L 1484.950677 -55.44 
L 1486.508081 -55.44 
L 1488.065485 -55.44 
L 1489.622889 -55.44 
L 1491.180293 -55.44 
L 1492.737698 -55.44 
L 1494.295102 -55.44 
L 1495.852506 -55.44 
L 1497.40991 -55.44 
L 1498.967315 -55.44 
L 1500.524719 -55.44 
L 1502.082123 -55.44 
L 1503.639527 -55.44 
L 1505.196931 -55.44 
L 1506.754336 -55.44 
L 1508.31174 -55.44 
L 1509.869144 -55.44 
L 1511.426548 -55.44 
L 1512.983953 -55.44 
L 1514.541357 -55.44 
L 1516.098761 -55.44 
L 1517.656165 -55.44 
L 1519.213569 -55.44 
L 1520.770974 -55.44 
L 1522.328378 -55.44 
L 1523.885782 -55.44 
L 1525.443186 -55.44 
L 1527.00059 -55.44 
L 1528.557995 -55.44 
L 1530.115399 -55.44 
L 1531.672803 -55.44 
L 1533.230207 -55.44 
L 1534.787612 -55.44 
L 1536.345016 -55.44 
L 1537.90242 -55.44 
L 1539.459824 -55.44 
L 1541.017228 -55.44 
L 1542.574633 -55.44 
L 1544.132037 -55.44 
L 1545.689441 -55.44 
L 1547.246845 -55.44 
L 1548.80425 -55.44 
L 1550.361654 -55.44 
L 1551.919058 -55.44 
L 1553.476462 -55.44 
L 1555.033866 -55.44 
L 1556.591271 -55.44 
L 1558.148675 -55.44 
L 1559.706079 -55.44 
L 1561.263483 -55.44 
L 1562.820887 -55.44 
L 1564.378292 -55.44 
L 1565.935696 -55.44 
L 1567.4931 -55.44 
L 1569.050504 -55.44 
L 1570.607909 -55.44 
L 1572.165313 -55.44 
L 1573.722717 -55.44 
L 1575.280121 -55.44 
L 1576.837525 -55.44 
L 1578.39493 -55.44 
L 1579.952334 -55.44 
L 1581.509738 -55.44 
L 1583.067142 -55.44 
L 1584.624547 -55.44 
L 1586.181951 -55.44 
L 1587.739355 -55.44 
L 1589.296759 -55.44 
L 1590.854163 -55.44 
L 1592.411568 -55.44 
L 1593.968972 -55.44 
L 1595.526376 -55.44 
L 1597.08378 -55.44 
L 1598.641184 -55.44 
L 1600.198589 -55.44 
L 1601.755993 -55.44 
L 1603.313397 -55.44 
L 1603.313397 -55.441282 
L 1603.313397 -55.441282 
L 1601.755993 -55.443142 
L 1600.198589 -55.44706 
L 1598.641184 -55.454598 
L 1597.08378 -55.467932 
L 1595.526376 -55.48981 
L 1593.968972 -55.523485 
L 1592.411568 -55.572699 
L 1590.854163 -55.641597 
L 1589.296759 -55.734231 
L 1587.739355 -55.853281 
L 1586.181951 -55.998258 
L 1584.624547 -56.164339 
L 1583.067142 -56.343195 
L 1581.509738 -56.526004 
L 1579.952334 -56.706854 
L 1578.39493 -56.884032 
L 1576.837525 -57.058396 
L 1575.280121 -57.231026 
L 1573.722717 -57.403485 
L 1572.165313 -57.581604 
L 1570.607909 -57.779579 
L 1569.050504 -58.019425 
L 1567.4931 -58.323888 
L 1565.935696 -58.706432 
L 1564.378292 -59.165067 
L 1562.820887 -59.684682 
L 1561.263483 -60.24665 
L 1559.706079 -60.839634 
L 1558.148675 -61.465093 
L 1556.591271 -62.134896 
L 1555.033866 -62.863643 
L 1553.476462 -63.661402 
L 1551.919058 -64.531817 
L 1550.361654 -65.476412 
L 1548.80425 -66.501425 
L 1547.246845 -67.622163 
L 1545.689441 -68.863035 
L 1544.132037 -70.255988 
L 1542.574633 -71.840961 
L 1541.017228 -73.66732 
L 1539.459824 -75.789792 
L 1537.90242 -78.253085 
L 1536.345016 -81.068575 
L 1534.787612 -84.197568 
L 1533.230207 -87.557785 
L 1531.672803 -91.057416 
L 1530.115399 -94.641173 
L 1528.557995 -98.321006 
L 1527.00059 -102.171696 
L 1525.443186 -106.29394 
L 1523.885782 -110.767673 
L 1522.328378 -115.621365 
L 1520.770974 -120.829409 
L 1519.213569 -126.332481 
L 1517.656165 -132.06674 
L 1516.098761 -137.988083 
L 1514.541357 -144.082127 
L 1512.983953 -150.356239 
L 1511.426548 -156.81818 
L 1509.869144 -163.455495 
L 1508.31174 -170.233006 
L 1506.754336 -177.115117 
L 1505.196931 -184.099482 
L 1503.639527 -191.23575 
L 1502.082123 -198.612113 
L 1500.524719 -206.31792 
L 1498.967315 -214.409006 
L 1497.40991 -222.894989 
L 1495.852506 -231.742644 
L 1494.295102 -240.874678 
L 1492.737698 -250.156708 
L 1491.180293 -259.393332 
L 1489.622889 -268.363804 
L 1488.065485 -276.901978 
L 1486.508081 -284.982648 
L 1484.950677 -292.755753 
L 1483.393272 -300.492465 
L 1481.835868 -308.458547 
L 1480.278464 -316.775745 
L 1478.72106 -325.343564 
L 1477.163656 -333.865974 
L 1475.606251 -341.973727 
L 1474.048847 -349.379721 
L 1472.491443 -355.983173 
L 1470.934039 -361.866541 
L 1469.376634 -367.194484 
L 1467.81923 -372.084522 
L 1466.261826 -376.532002 
L 1464.704422 -380.430524 
L 1463.147018 -383.666906 
L 1461.589613 -386.230718 
L 1460.032209 -388.27912 
L 1458.474805 -390.124161 
L 1456.917401 -392.141504 
L 1455.359996 -394.6296 
L 1453.802592 -397.675154 
L 1452.245188 -401.091671 
L 1450.687784 -404.473001 
L 1449.13038 -407.342773 
L 1447.572975 -409.319135 
L 1446.015571 -410.2029 
L 1444.458167 -409.952937 
L 1442.900763 -408.595716 
L 1441.343359 -406.159418 
L 1439.785954 -402.691494 
L 1438.22855 -398.338971 
L 1436.671146 -393.408405 
L 1435.113742 -388.327265 
L 1433.556337 -383.497697 
L 1431.998933 -379.117123 
L 1430.441529 -375.077946 
L 1428.884125 -371.021796 
L 1427.326721 -366.531916 
L 1425.769316 -361.357923 
L 1424.211912 -355.540701 
L 1422.654508 -349.364393 
L 1421.097104 -343.171359 
L 1419.539699 -337.160788 
L 1417.982295 -331.29375 
L 1416.424891 -325.349583 
L 1414.867487 -319.081012 
L 1413.310083 -312.365532 
L 1411.752678 -305.26981 
L 1410.195274 -298.002785 
L 1408.63787 -290.789379 
L 1407.080466 -283.729478 
L 1405.523062 -276.713334 
L 1403.965657 -269.442396 
L 1402.408253 -261.55317 
L 1400.850849 -252.782449 
L 1399.293445 -243.085249 
L 1397.73604 -232.64699 
L 1396.178636 -221.798407 
L 1394.621232 -210.895154 
L 1393.063828 -200.229331 
L 1391.506424 -190.003973 
L 1389.949019 -180.357792 
L 1388.391615 -171.40307 
L 1386.834211 -163.240976 
L 1385.276807 -155.938654 
L 1383.719402 -149.4806 
L 1382.161998 -143.729703 
L 1380.604594 -138.435473 
L 1379.04719 -133.302191 
L 1377.489786 -128.091175 
L 1375.932381 -122.705834 
L 1374.374977 -117.215192 
L 1372.817573 -111.806112 
L 1371.260169 -106.692358 
L 1369.702765 -102.026391 
L 1368.14536 -97.85129 
L 1366.587956 -94.105692 
L 1365.030552 -90.669472 
L 1363.473148 -87.423231 
L 1361.915743 -84.294119 
L 1360.358339 -81.272023 
L 1358.800935 -78.396284 
L 1357.243531 -75.72573 
L 1355.686127 -73.308553 
L 1354.128722 -71.163927 
L 1352.571318 -69.278965 
L 1351.013914 -67.617831 
L 1349.45651 -66.136669 
L 1347.899105 -64.797757 
L 1346.341701 -63.577679 
L 1344.784297 -62.467178 
L 1343.226893 -61.464594 
L 1341.669489 -60.568316 
L 1340.112084 -59.773394 
L 1338.55468 -59.07325 
L 1336.997276 -58.462933 
L 1335.439872 -57.939568 
L 1333.882468 -57.499111 
L 1332.325063 -57.132459 
L 1330.767659 -56.824839 
L 1329.210255 -56.559596 
L 1327.652851 -56.323881 
L 1326.095446 -56.112412 
L 1324.538042 -55.927088 
L 1322.980638 -55.773253 
L 1321.423234 -55.655248 
L 1319.86583 -55.573689 
L 1318.308425 -55.525212 
L 1316.751021 -55.503804 
L 1315.193617 -55.502311 
L 1313.636213 -55.513316 
L 1312.078808 -55.529485 
L 1310.521404 -55.544006 
L 1308.964 -55.551496 
L 1307.406596 -55.549125 
L 1305.849192 -55.537203 
L 1304.291787 -55.518724 
L 1302.734383 -55.497955 
L 1301.176979 -55.478778 
L 1299.619575 -55.463582 
L 1298.062171 -55.453034 
L 1296.504766 -55.446547 
L 1294.947362 -55.442989 
L 1293.389958 -55.44124 
z
" style="stroke: #0000ff"/>
    </defs>
    <g clip-path="url(#pca4c326ed7)">
     <use xlink:href="#m886bc03e48" x="0" y="504" style="fill: #0000ff; fill-opacity: 0.25; stroke: #0000ff"/>
    </g>
   </g>
   <g id="matplotlib.axis_5">
    <g id="xtick_14">
     <g id="line2d_25">
      <g>
       <use xlink:href="#m26c79fe11f" x="1308.503237" y="448.56" style="stroke: #000000; stroke-width: 2"/>
      </g>
     </g>
     <g id="text_27">
      <!-- 0 -->
      <g transform="translate(1301.504487 478.776563) scale(0.22 -0.22)">
       <use xlink:href="#DejaVuSans-30"/>
      </g>
     </g>
    </g>
    <g id="xtick_15">
     <g id="line2d_26">
      <g>
       <use xlink:href="#m26c79fe11f" x="1382.067026" y="448.56" style="stroke: #000000; stroke-width: 2"/>
      </g>
     </g>
     <g id="text_28">
      <!-- 2 -->
      <g transform="translate(1375.068276 478.776563) scale(0.22 -0.22)">
       <use xlink:href="#DejaVuSans-32"/>
      </g>
     </g>
    </g>
    <g id="xtick_16">
     <g id="line2d_27">
      <g>
       <use xlink:href="#m26c79fe11f" x="1455.630814" y="448.56" style="stroke: #000000; stroke-width: 2"/>
      </g>
     </g>
     <g id="text_29">
      <!-- 4 -->
      <g transform="translate(1448.632064 478.776563) scale(0.22 -0.22)">
       <use xlink:href="#DejaVuSans-34"/>
      </g>
     </g>
    </g>
    <g id="xtick_17">
     <g id="line2d_28">
      <g>
       <use xlink:href="#m26c79fe11f" x="1529.194603" y="448.56" style="stroke: #000000; stroke-width: 2"/>
      </g>
     </g>
     <g id="text_30">
      <!-- 6 -->
      <g transform="translate(1522.195853 478.776563) scale(0.22 -0.22)">
       <use xlink:href="#DejaVuSans-36"/>
      </g>
     </g>
    </g>
    <g id="xtick_18">
     <g id="line2d_29">
      <g>
       <use xlink:href="#m26c79fe11f" x="1602.758392" y="448.56" style="stroke: #000000; stroke-width: 2"/>
      </g>
     </g>
     <g id="text_31">
      <!-- 8 -->
      <g transform="translate(1595.759642 478.776563) scale(0.22 -0.22)">
       <use xlink:href="#DejaVuSans-38"/>
      </g>
     </g>
    </g>
   </g>
   <g id="matplotlib.axis_6">
    <g id="ytick_12">
     <g id="line2d_30">
      <g>
       <use xlink:href="#mbdb029ddd7" x="1252.894737" y="448.56" style="stroke: #000000; stroke-width: 2"/>
      </g>
     </g>
     <g id="text_32">
      <!-- 0.0 -->
      <g transform="translate(1204.407862 456.918281) scale(0.22 -0.22)">
       <use xlink:href="#DejaVuSans-30"/>
       <use xlink:href="#DejaVuSans-2e" x="63.623047"/>
       <use xlink:href="#DejaVuSans-30" x="95.410156"/>
      </g>
     </g>
    </g>
    <g id="ytick_13">
     <g id="line2d_31">
      <g>
       <use xlink:href="#mbdb029ddd7" x="1252.894737" y="351.949362" style="stroke: #000000; stroke-width: 2"/>
      </g>
     </g>
     <g id="text_33">
      <!-- 0.1 -->
      <g transform="translate(1204.407862 360.307643) scale(0.22 -0.22)">
       <use xlink:href="#DejaVuSans-30"/>
       <use xlink:href="#DejaVuSans-2e" x="63.623047"/>
       <use xlink:href="#DejaVuSans-31" x="95.410156"/>
      </g>
     </g>
    </g>
    <g id="ytick_14">
     <g id="line2d_32">
      <g>
       <use xlink:href="#mbdb029ddd7" x="1252.894737" y="255.338723" style="stroke: #000000; stroke-width: 2"/>
      </g>
     </g>
     <g id="text_34">
      <!-- 0.2 -->
      <g transform="translate(1204.407862 263.697005) scale(0.22 -0.22)">
       <use xlink:href="#DejaVuSans-30"/>
       <use xlink:href="#DejaVuSans-2e" x="63.623047"/>
       <use xlink:href="#DejaVuSans-32" x="95.410156"/>
      </g>
     </g>
    </g>
    <g id="ytick_15">
     <g id="line2d_33">
      <g>
       <use xlink:href="#mbdb029ddd7" x="1252.894737" y="158.728085" style="stroke: #000000; stroke-width: 2"/>
      </g>
     </g>
     <g id="text_35">
      <!-- 0.3 -->
      <g transform="translate(1204.407862 167.086366) scale(0.22 -0.22)">
       <use xlink:href="#DejaVuSans-30"/>
       <use xlink:href="#DejaVuSans-2e" x="63.623047"/>
       <use xlink:href="#DejaVuSans-33" x="95.410156"/>
      </g>
     </g>
    </g>
    <g id="ytick_16">
     <g id="line2d_34">
      <g>
       <use xlink:href="#mbdb029ddd7" x="1252.894737" y="62.117447" style="stroke: #000000; stroke-width: 2"/>
      </g>
     </g>
     <g id="text_36">
      <!-- 0.4 -->
      <g transform="translate(1204.407862 70.475728) scale(0.22 -0.22)">
       <use xlink:href="#DejaVuSans-30"/>
       <use xlink:href="#DejaVuSans-2e" x="63.623047"/>
       <use xlink:href="#DejaVuSans-34" x="95.410156"/>
      </g>
     </g>
    </g>
    <g id="text_37">
     <!-- Density -->
     <g transform="translate(1198.328174 273.528594) rotate(-90) scale(0.1 -0.1)">
      <use xlink:href="#DejaVuSans-44"/>
      <use xlink:href="#DejaVuSans-65" x="77.001953"/>
      <use xlink:href="#DejaVuSans-6e" x="138.525391"/>
      <use xlink:href="#DejaVuSans-73" x="201.904297"/>
      <use xlink:href="#DejaVuSans-69" x="254.003906"/>
      <use xlink:href="#DejaVuSans-74" x="281.787109"/>
      <use xlink:href="#DejaVuSans-79" x="320.996094"/>
     </g>
    </g>
   </g>
   <g id="patch_13">
    <path d="M 1252.894737 448.56 
L 1252.894737 60.48 
" style="fill: none; stroke: #000000; stroke-width: 0.8; stroke-linejoin: miter; stroke-linecap: square"/>
   </g>
   <g id="patch_14">
    <path d="M 1620 448.56 
L 1620 60.48 
" style="fill: none; stroke: #000000; stroke-width: 0.8; stroke-linejoin: miter; stroke-linecap: square"/>
   </g>
   <g id="patch_15">
    <path d="M 1252.894737 448.56 
L 1620 448.56 
" style="fill: none; stroke: #000000; stroke-width: 0.8; stroke-linejoin: miter; stroke-linecap: square"/>
   </g>
   <g id="patch_16">
    <path d="M 1252.894737 60.48 
L 1620 60.48 
" style="fill: none; stroke: #000000; stroke-width: 0.8; stroke-linejoin: miter; stroke-linecap: square"/>
   </g>
  </g>
 </g>
 <defs>
  <clipPath id="pb47e013ca5">
   <rect x="225" y="60.48" width="367.105263" height="388.08"/>
  </clipPath>
  <clipPath id="p6635336937">
   <rect x="738.947368" y="60.48" width="367.105263" height="388.08"/>
  </clipPath>
  <clipPath id="pca4c326ed7">
   <rect x="1252.894737" y="60.48" width="367.105263" height="388.08"/>
  </clipPath>
 </defs>
</svg>
