<?xml version="1.0" encoding="utf-8" standalone="no"?>
<!DOCTYPE svg PUBLIC "-//W3C//DTD SVG 1.1//EN"
  "http://www.w3.org/Graphics/SVG/1.1/DTD/svg11.dtd">
<svg xmlns:xlink="http://www.w3.org/1999/xlink" width="1800pt" height="504pt" viewBox="0 0 1800 504" xmlns="http://www.w3.org/2000/svg" version="1.1">
 <metadata>
  <rdf:RDF xmlns:dc="http://purl.org/dc/elements/1.1/" xmlns:cc="http://creativecommons.org/ns#" xmlns:rdf="http://www.w3.org/1999/02/22-rdf-syntax-ns#">
   <cc:Work>
    <dc:type rdf:resource="http://purl.org/dc/dcmitype/StillImage"/>
    <dc:date>2023-09-06T22:05:33.484597</dc:date>
    <dc:format>image/svg+xml</dc:format>
    <dc:creator>
     <cc:Agent>
      <dc:title>Matplotlib v3.7.1, https://matplotlib.org/</dc:title>
     </cc:Agent>
    </dc:creator>
   </cc:Work>
  </rdf:RDF>
 </metadata>
 <defs>
  <style type="text/css">*{stroke-linejoin: round; stroke-linecap: butt}</style>
 </defs>
 <g id="figure_1">
  <g id="patch_1">
   <path d="M 0 504 
L 1800 504 
L 1800 0 
L 0 0 
z
" style="fill: #ffffff"/>
  </g>
  <g id="axes_1">
   <g id="patch_2">
    <path d="M 225 448.56 
L 592.105263 448.56 
L 592.105263 60.48 
L 225 60.48 
z
" style="fill: #ffffff"/>
   </g>
   <g id="PolyCollection_1">
    <defs>
     <path id="m33831f62df" d="M 259.725089 -55.450875 
L 259.725089 -55.44 
L 261.084593 -55.44 
L 262.444098 -55.44 
L 263.803602 -55.44 
L 265.163107 -55.44 
L 266.522612 -55.44 
L 267.882116 -55.44 
L 269.241621 -55.44 
L 270.601125 -55.44 
L 271.96063 -55.44 
L 273.320135 -55.44 
L 274.679639 -55.44 
L 276.039144 -55.44 
L 277.398648 -55.44 
L 278.758153 -55.44 
L 280.117658 -55.44 
L 281.477162 -55.44 
L 282.836667 -55.44 
L 284.196171 -55.44 
L 285.555676 -55.44 
L 286.915181 -55.44 
L 288.274685 -55.44 
L 289.63419 -55.44 
L 290.993694 -55.44 
L 292.353199 -55.44 
L 293.712704 -55.44 
L 295.072208 -55.44 
L 296.431713 -55.44 
L 297.791217 -55.44 
L 299.150722 -55.44 
L 300.510226 -55.44 
L 301.869731 -55.44 
L 303.229236 -55.44 
L 304.58874 -55.44 
L 305.948245 -55.44 
L 307.307749 -55.44 
L 308.667254 -55.44 
L 310.026759 -55.44 
L 311.386263 -55.44 
L 312.745768 -55.44 
L 314.105272 -55.44 
L 315.464777 -55.44 
L 316.824282 -55.44 
L 318.183786 -55.44 
L 319.543291 -55.44 
L 320.902795 -55.44 
L 322.2623 -55.44 
L 323.621805 -55.44 
L 324.981309 -55.44 
L 326.340814 -55.44 
L 327.700318 -55.44 
L 329.059823 -55.44 
L 330.419328 -55.44 
L 331.778832 -55.44 
L 333.138337 -55.44 
L 334.497841 -55.44 
L 335.857346 -55.44 
L 337.216851 -55.44 
L 338.576355 -55.44 
L 339.93586 -55.44 
L 341.295364 -55.44 
L 342.654869 -55.44 
L 344.014373 -55.44 
L 345.373878 -55.44 
L 346.733383 -55.44 
L 348.092887 -55.44 
L 349.452392 -55.44 
L 350.811896 -55.44 
L 352.171401 -55.44 
L 353.530906 -55.44 
L 354.89041 -55.44 
L 356.249915 -55.44 
L 357.609419 -55.44 
L 358.968924 -55.44 
L 360.328429 -55.44 
L 361.687933 -55.44 
L 363.047438 -55.44 
L 364.406942 -55.44 
L 365.766447 -55.44 
L 367.125952 -55.44 
L 368.485456 -55.44 
L 369.844961 -55.44 
L 371.204465 -55.44 
L 372.56397 -55.44 
L 373.923475 -55.44 
L 375.282979 -55.44 
L 376.642484 -55.44 
L 378.001988 -55.44 
L 379.361493 -55.44 
L 380.720998 -55.44 
L 382.080502 -55.44 
L 383.440007 -55.44 
L 384.799511 -55.44 
L 386.159016 -55.44 
L 387.518521 -55.44 
L 388.878025 -55.44 
L 390.23753 -55.44 
L 391.597034 -55.44 
L 392.956539 -55.44 
L 394.316043 -55.44 
L 395.675548 -55.44 
L 397.035053 -55.44 
L 398.394557 -55.44 
L 399.754062 -55.44 
L 401.113566 -55.44 
L 402.473071 -55.44 
L 403.832576 -55.44 
L 405.19208 -55.44 
L 406.551585 -55.44 
L 407.911089 -55.44 
L 409.270594 -55.44 
L 410.630099 -55.44 
L 411.989603 -55.44 
L 413.349108 -55.44 
L 414.708612 -55.44 
L 416.068117 -55.44 
L 417.427622 -55.44 
L 418.787126 -55.44 
L 420.146631 -55.44 
L 421.506135 -55.44 
L 422.86564 -55.44 
L 424.225145 -55.44 
L 425.584649 -55.44 
L 426.944154 -55.44 
L 428.303658 -55.44 
L 429.663163 -55.44 
L 431.022668 -55.44 
L 432.382172 -55.44 
L 433.741677 -55.44 
L 435.101181 -55.44 
L 436.460686 -55.44 
L 437.820191 -55.44 
L 439.179695 -55.44 
L 440.5392 -55.44 
L 441.898704 -55.44 
L 443.258209 -55.44 
L 444.617713 -55.44 
L 445.977218 -55.44 
L 447.336723 -55.44 
L 448.696227 -55.44 
L 450.055732 -55.44 
L 451.415236 -55.44 
L 452.774741 -55.44 
L 454.134246 -55.44 
L 455.49375 -55.44 
L 456.853255 -55.44 
L 458.212759 -55.44 
L 459.572264 -55.44 
L 460.931769 -55.44 
L 462.291273 -55.44 
L 463.650778 -55.44 
L 465.010282 -55.44 
L 466.369787 -55.44 
L 467.729292 -55.44 
L 469.088796 -55.44 
L 470.448301 -55.44 
L 471.807805 -55.44 
L 473.16731 -55.44 
L 474.526815 -55.44 
L 475.886319 -55.44 
L 477.245824 -55.44 
L 478.605328 -55.44 
L 479.964833 -55.44 
L 481.324338 -55.44 
L 482.683842 -55.44 
L 484.043347 -55.44 
L 485.402851 -55.44 
L 486.762356 -55.44 
L 488.12186 -55.44 
L 489.481365 -55.44 
L 490.84087 -55.44 
L 492.200374 -55.44 
L 493.559879 -55.44 
L 494.919383 -55.44 
L 496.278888 -55.44 
L 497.638393 -55.44 
L 498.997897 -55.44 
L 500.357402 -55.44 
L 501.716906 -55.44 
L 503.076411 -55.44 
L 504.435916 -55.44 
L 505.79542 -55.44 
L 507.154925 -55.44 
L 508.514429 -55.44 
L 509.873934 -55.44 
L 511.233439 -55.44 
L 512.592943 -55.44 
L 513.952448 -55.44 
L 515.311952 -55.44 
L 516.671457 -55.44 
L 518.030962 -55.44 
L 519.390466 -55.44 
L 520.749971 -55.44 
L 522.109475 -55.44 
L 523.46898 -55.44 
L 524.828485 -55.44 
L 526.187989 -55.44 
L 527.547494 -55.44 
L 528.906998 -55.44 
L 530.266503 -55.44 
L 530.266503 -55.459687 
L 530.266503 -55.459687 
L 528.906998 -55.473971 
L 527.547494 -55.496662 
L 526.187989 -55.531372 
L 524.828485 -55.582497 
L 523.46898 -55.654991 
L 522.109475 -55.753948 
L 520.749971 -55.883982 
L 519.390466 -56.048498 
L 518.030962 -56.248974 
L 516.671457 -56.484438 
L 515.311952 -56.751313 
L 513.952448 -57.043747 
L 512.592943 -57.354415 
L 511.233439 -57.675659 
L 509.873934 -58.000689 
L 508.514429 -58.324552 
L 507.154925 -58.644582 
L 505.79542 -58.960221 
L 504.435916 -59.272265 
L 503.076411 -59.581754 
L 501.716906 -59.888826 
L 500.357402 -60.191814 
L 498.997897 -60.486777 
L 497.638393 -60.767504 
L 496.278888 -61.025912 
L 494.919383 -61.252719 
L 493.559879 -61.438289 
L 492.200374 -61.573617 
L 490.84087 -61.651441 
L 489.481365 -61.667482 
L 488.12186 -61.621735 
L 486.762356 -61.519638 
L 485.402851 -61.372888 
L 484.043347 -61.199675 
L 482.683842 -61.024155 
L 481.324338 -60.875126 
L 479.964833 -60.784033 
L 478.605328 -60.782539 
L 477.245824 -60.90003 
L 475.886319 -61.161419 
L 474.526815 -61.585595 
L 473.16731 -62.184721 
L 471.807805 -62.964394 
L 470.448301 -63.924478 
L 469.088796 -65.060186 
L 467.729292 -66.362947 
L 466.369787 -67.820625 
L 465.010282 -69.416895 
L 463.650778 -71.129947 
L 462.291273 -72.931 
L 460.931769 -74.783374 
L 459.572264 -76.642799 
L 458.212759 -78.459389 
L 456.853255 -80.181201 
L 455.49375 -81.758804 
L 454.134246 -83.149886 
L 452.774741 -84.322876 
L 451.415236 -85.258829 
L 450.055732 -85.951352 
L 448.696227 -86.404957 
L 447.336723 -86.632715 
L 445.977218 -86.654231 
L 444.617713 -86.49482 
L 443.258209 -86.186299 
L 441.898704 -85.769261 
L 440.5392 -85.296247 
L 439.179695 -84.834888 
L 437.820191 -84.470085 
L 436.460686 -84.304396 
L 435.101181 -84.456096 
L 433.741677 -85.054735 
L 432.382172 -86.234385 
L 431.022668 -88.125172 
L 429.663163 -90.844016 
L 428.303658 -94.485758 
L 426.944154 -99.115858 
L 425.584649 -104.765665 
L 424.225145 -111.430736 
L 422.86564 -119.071999 
L 421.506135 -127.618857 
L 420.146631 -136.972821 
L 418.787126 -147.010192 
L 417.427622 -157.582763 
L 416.068117 -168.516429 
L 414.708612 -179.608715 
L 413.349108 -190.6273 
L 411.989603 -201.312082 
L 410.630099 -211.383145 
L 409.270594 -220.555934 
L 407.911089 -228.563315 
L 406.551585 -235.182369 
L 405.19208 -240.262211 
L 403.832576 -243.748225 
L 402.473071 -245.698221 
L 401.113566 -246.286989 
L 399.754062 -245.797504 
L 398.394557 -244.599112 
L 397.035053 -243.115085 
L 395.675548 -241.783479 
L 394.316043 -241.016125 
L 392.956539 -241.160617 
L 391.597034 -242.469571 
L 390.23753 -245.080263 
L 388.878025 -249.006485 
L 387.518521 -254.143121 
L 386.159016 -260.282801 
L 384.799511 -267.142931 
L 383.440007 -274.400404 
L 382.080502 -281.7303 
L 380.720998 -288.843922 
L 379.361493 -295.520938 
L 378.001988 -301.630426 
L 376.642484 -307.136694 
L 375.282979 -312.087828 
L 373.923475 -316.58792 
L 372.56397 -320.757134 
L 371.204465 -324.686574 
L 369.844961 -328.396522 
L 368.485456 -331.806536 
L 367.125952 -334.724089 
L 365.766447 -336.855088 
L 364.406942 -337.835439 
L 363.047438 -337.278694 
L 361.687933 -334.831436 
L 360.328429 -330.226478 
L 358.968924 -323.324273 
L 357.609419 -314.135372 
L 356.249915 -302.820731 
L 354.89041 -289.671147 
L 353.530906 -275.071111 
L 352.171401 -259.45486 
L 350.811896 -243.26289 
L 349.452392 -226.905748 
L 348.092887 -210.739218 
L 346.733383 -195.051903 
L 345.373878 -180.063615 
L 344.014373 -165.931474 
L 342.654869 -152.760174 
L 341.295364 -140.61338 
L 339.93586 -129.524142 
L 338.576355 -119.503125 
L 337.216851 -110.544258 
L 335.857346 -102.627878 
L 334.497841 -95.721797 
L 333.138337 -89.780971 
L 331.778832 -84.746598 
L 330.419328 -80.54556 
L 329.059823 -77.091018 
L 327.700318 -74.284725 
L 326.340814 -72.021168 
L 324.981309 -70.19323 
L 323.621805 -68.698584 
L 322.2623 -67.445852 
L 320.902795 -66.359488 
L 319.543291 -65.3826 
L 318.183786 -64.477311 
L 316.824282 -63.622765 
L 315.464777 -62.811322 
L 314.105272 -62.043841 
L 312.745768 -61.325037 
L 311.386263 -60.659781 
L 310.026759 -60.050904 
L 308.667254 -59.498626 
L 307.307749 -59.00132 
L 305.948245 -58.557039 
L 304.58874 -58.165101 
L 303.229236 -57.827119 
L 301.869731 -57.547098 
L 300.510226 -57.330536 
L 299.150722 -57.182715 
L 297.791217 -57.106646 
L 296.431713 -57.101135 
L 295.072208 -57.159473 
L 293.712704 -57.269057 
L 292.353199 -57.412075 
L 290.993694 -57.567174 
L 289.63419 -57.711825 
L 288.274685 -57.82497 
L 286.915181 -57.889504 
L 285.555676 -57.894158 
L 284.196171 -57.834522 
L 282.836667 -57.713068 
L 281.477162 -57.538254 
L 280.117658 -57.322928 
L 278.758153 -57.082356 
L 277.398648 -56.832204 
L 276.039144 -56.586786 
L 274.679639 -56.357769 
L 273.320135 -56.153455 
L 271.96063 -55.97861 
L 270.601125 -55.834757 
L 269.241621 -55.720799 
L 267.882116 -55.633786 
L 266.522612 -55.569706 
L 265.163107 -55.524168 
L 263.803602 -55.492934 
L 262.444098 -55.472253 
L 261.084593 -55.459034 
L 259.725089 -55.450875 
z
" style="stroke: #ff0000"/>
    </defs>
    <g clip-path="url(#p521a68ba05)">
     <use xlink:href="#m33831f62df" x="0" y="504" style="fill: #ff0000; fill-opacity: 0.25; stroke: #ff0000"/>
    </g>
   </g>
   <g id="PolyCollection_2">
    <defs>
     <path id="ma8459c27a4" d="M 325.392081 -55.443505 
L 325.392081 -55.44 
L 327.305701 -55.44 
L 329.219321 -55.44 
L 331.132941 -55.44 
L 333.046561 -55.44 
L 334.960181 -55.44 
L 336.873801 -55.44 
L 338.787421 -55.44 
L 340.701042 -55.44 
L 342.614662 -55.44 
L 344.528282 -55.44 
L 346.441902 -55.44 
L 348.355522 -55.44 
L 350.269142 -55.44 
L 352.182762 -55.44 
L 354.096382 -55.44 
L 356.010002 -55.44 
L 357.923622 -55.44 
L 359.837242 -55.44 
L 361.750862 -55.44 
L 363.664482 -55.44 
L 365.578102 -55.44 
L 367.491722 -55.44 
L 369.405342 -55.44 
L 371.318963 -55.44 
L 373.232583 -55.44 
L 375.146203 -55.44 
L 377.059823 -55.44 
L 378.973443 -55.44 
L 380.887063 -55.44 
L 382.800683 -55.44 
L 384.714303 -55.44 
L 386.627923 -55.44 
L 388.541543 -55.44 
L 390.455163 -55.44 
L 392.368783 -55.44 
L 394.282403 -55.44 
L 396.196023 -55.44 
L 398.109643 -55.44 
L 400.023264 -55.44 
L 401.936884 -55.44 
L 403.850504 -55.44 
L 405.764124 -55.44 
L 407.677744 -55.44 
L 409.591364 -55.44 
L 411.504984 -55.44 
L 413.418604 -55.44 
L 415.332224 -55.44 
L 417.245844 -55.44 
L 419.159464 -55.44 
L 421.073084 -55.44 
L 422.986704 -55.44 
L 424.900324 -55.44 
L 426.813944 -55.44 
L 428.727564 -55.44 
L 430.641185 -55.44 
L 432.554805 -55.44 
L 434.468425 -55.44 
L 436.382045 -55.44 
L 438.295665 -55.44 
L 440.209285 -55.44 
L 442.122905 -55.44 
L 444.036525 -55.44 
L 445.950145 -55.44 
L 447.863765 -55.44 
L 449.777385 -55.44 
L 451.691005 -55.44 
L 453.604625 -55.44 
L 455.518245 -55.44 
L 457.431865 -55.44 
L 459.345485 -55.44 
L 461.259106 -55.44 
L 463.172726 -55.44 
L 465.086346 -55.44 
L 466.999966 -55.44 
L 468.913586 -55.44 
L 470.827206 -55.44 
L 472.740826 -55.44 
L 474.654446 -55.44 
L 476.568066 -55.44 
L 478.481686 -55.44 
L 480.395306 -55.44 
L 482.308926 -55.44 
L 484.222546 -55.44 
L 486.136166 -55.44 
L 488.049786 -55.44 
L 489.963406 -55.44 
L 491.877027 -55.44 
L 493.790647 -55.44 
L 495.704267 -55.44 
L 497.617887 -55.44 
L 499.531507 -55.44 
L 501.445127 -55.44 
L 503.358747 -55.44 
L 505.272367 -55.44 
L 507.185987 -55.44 
L 509.099607 -55.44 
L 511.013227 -55.44 
L 512.926847 -55.44 
L 514.840467 -55.44 
L 516.754087 -55.44 
L 518.667707 -55.44 
L 520.581328 -55.44 
L 522.494948 -55.44 
L 524.408568 -55.44 
L 526.322188 -55.44 
L 528.235808 -55.44 
L 530.149428 -55.44 
L 532.063048 -55.44 
L 533.976668 -55.44 
L 535.890288 -55.44 
L 537.803908 -55.44 
L 539.717528 -55.44 
L 541.631148 -55.44 
L 543.544768 -55.44 
L 545.458388 -55.44 
L 547.372008 -55.44 
L 549.285628 -55.44 
L 551.199249 -55.44 
L 553.112869 -55.44 
L 555.026489 -55.44 
L 556.940109 -55.44 
L 558.853729 -55.44 
L 560.767349 -55.44 
L 562.680969 -55.44 
L 564.594589 -55.44 
L 566.508209 -55.44 
L 568.421829 -55.44 
L 570.335449 -55.44 
L 572.249069 -55.44 
L 574.162689 -55.44 
L 576.076309 -55.44 
L 577.989929 -55.44 
L 579.903549 -55.44 
L 581.81717 -55.44 
L 583.73079 -55.44 
L 585.64441 -55.44 
L 587.55803 -55.44 
L 589.47165 -55.44 
L 591.38527 -55.44 
L 593.29889 -55.44 
L 595.21251 -55.44 
L 597.12613 -55.44 
L 599.03975 -55.44 
L 600.95337 -55.44 
L 602.86699 -55.44 
L 604.78061 -55.44 
L 606.69423 -55.44 
L 608.60785 -55.44 
L 610.52147 -55.44 
L 612.435091 -55.44 
L 614.348711 -55.44 
L 616.262331 -55.44 
L 618.175951 -55.44 
L 620.089571 -55.44 
L 622.003191 -55.44 
L 623.916811 -55.44 
L 625.830431 -55.44 
L 627.744051 -55.44 
L 629.657671 -55.44 
L 631.571291 -55.44 
L 633.484911 -55.44 
L 635.398531 -55.44 
L 637.312151 -55.44 
L 639.225771 -55.44 
L 641.139392 -55.44 
L 643.053012 -55.44 
L 644.966632 -55.44 
L 646.880252 -55.44 
L 648.793872 -55.44 
L 650.707492 -55.44 
L 652.621112 -55.44 
L 654.534732 -55.44 
L 656.448352 -55.44 
L 658.361972 -55.44 
L 660.275592 -55.44 
L 662.189212 -55.44 
L 664.102832 -55.44 
L 666.016452 -55.44 
L 667.930072 -55.44 
L 669.843692 -55.44 
L 671.757313 -55.44 
L 673.670933 -55.44 
L 675.584553 -55.44 
L 677.498173 -55.44 
L 679.411793 -55.44 
L 681.325413 -55.44 
L 683.239033 -55.44 
L 685.152653 -55.44 
L 687.066273 -55.44 
L 688.979893 -55.44 
L 690.893513 -55.44 
L 692.807133 -55.44 
L 694.720753 -55.44 
L 696.634373 -55.44 
L 698.547993 -55.44 
L 700.461613 -55.44 
L 702.375234 -55.44 
L 704.288854 -55.44 
L 706.202474 -55.44 
L 706.202474 -55.440683 
L 706.202474 -55.440683 
L 704.288854 -55.442384 
L 702.375234 -55.44679 
L 700.461613 -55.45579 
L 698.547993 -55.469981 
L 696.634373 -55.48648 
L 694.720753 -55.498835 
L 692.807133 -55.50081 
L 690.893513 -55.491337 
L 688.979893 -55.475495 
L 687.066273 -55.460526 
L 685.152653 -55.45148 
L 683.239033 -55.450529 
L 681.325413 -55.458843 
L 679.411793 -55.477264 
L 677.498173 -55.504206 
L 675.584553 -55.533284 
L 673.670933 -55.554785 
L 671.757313 -55.561665 
L 669.843692 -55.554943 
L 667.930072 -55.542336 
L 666.016452 -55.530751 
L 664.102832 -55.520601 
L 662.189212 -55.507938 
L 660.275592 -55.490908 
L 658.361972 -55.472453 
L 656.448352 -55.457206 
L 654.534732 -55.447508 
L 652.621112 -55.442687 
L 650.707492 -55.440802 
L 648.793872 -55.440289 
L 646.880252 -55.440532 
L 644.966632 -55.441999 
L 643.053012 -55.446618 
L 641.139392 -55.458175 
L 639.225771 -55.481395 
L 637.312151 -55.518448 
L 635.398531 -55.56437 
L 633.484911 -55.606719 
L 631.571291 -55.63346 
L 629.657671 -55.644268 
L 627.744051 -55.653331 
L 625.830431 -55.677842 
L 623.916811 -55.721607 
L 622.003191 -55.769648 
L 620.089571 -55.79909 
L 618.175951 -55.796266 
L 616.262331 -55.766319 
L 614.348711 -55.729613 
L 612.435091 -55.707896 
L 610.52147 -55.708951 
L 608.60785 -55.722056 
L 606.69423 -55.730503 
L 604.78061 -55.730053 
L 602.86699 -55.733853 
L 600.95337 -55.758837 
L 599.03975 -55.807986 
L 597.12613 -55.864389 
L 595.21251 -55.900964 
L 593.29889 -55.898871 
L 591.38527 -55.861945 
L 589.47165 -55.814959 
L 587.55803 -55.784832 
L 585.64441 -55.780539 
L 583.73079 -55.791451 
L 581.81717 -55.806105 
L 579.903549 -55.83082 
L 577.989929 -55.887167 
L 576.076309 -55.991251 
L 574.162689 -56.137326 
L 572.249069 -56.301344 
L 570.335449 -56.459212 
L 568.421829 -56.601591 
L 566.508209 -56.729437 
L 564.594589 -56.833103 
L 562.680969 -56.881339 
L 560.767349 -56.842336 
L 558.853729 -56.719898 
L 556.940109 -56.563464 
L 555.026489 -56.438138 
L 553.112869 -56.384365 
L 551.199249 -56.402369 
L 549.285628 -56.46707 
L 547.372008 -56.554086 
L 545.458388 -56.654591 
L 543.544768 -56.770033 
L 541.631148 -56.896935 
L 539.717528 -57.022473 
L 537.803908 -57.139172 
L 535.890288 -57.261485 
L 533.976668 -57.419466 
L 532.063048 -57.628983 
L 530.149428 -57.86732 
L 528.235808 -58.082524 
L 526.322188 -58.233282 
L 524.408568 -58.325506 
L 522.494948 -58.413141 
L 520.581328 -58.563351 
L 518.667707 -58.815201 
L 516.754087 -59.156718 
L 514.840467 -59.525908 
L 512.926847 -59.836939 
L 511.013227 -60.027995 
L 509.099607 -60.102588 
L 507.185987 -60.126542 
L 505.272367 -60.178915 
L 503.358747 -60.299384 
L 501.445127 -60.477762 
L 499.531507 -60.693798 
L 497.617887 -60.968892 
L 495.704267 -61.37424 
L 493.790647 -61.980949 
L 491.877027 -62.807002 
L 489.963406 -63.825017 
L 488.049786 -65.01574 
L 486.136166 -66.390855 
L 484.222546 -67.959916 
L 482.308926 -69.699674 
L 480.395306 -71.565038 
L 478.481686 -73.500721 
L 476.568066 -75.420324 
L 474.654446 -77.205263 
L 472.740826 -78.779054 
L 470.827206 -80.203223 
L 468.913586 -81.677464 
L 466.999966 -83.40641 
L 465.086346 -85.440701 
L 463.172726 -87.658449 
L 461.259106 -89.923279 
L 459.345485 -92.240695 
L 457.431865 -94.716209 
L 455.518245 -97.365678 
L 453.604625 -100.030471 
L 451.691005 -102.529854 
L 449.777385 -104.878893 
L 447.863765 -107.301652 
L 445.950145 -110.017791 
L 444.036525 -113.0549 
L 442.122905 -116.285792 
L 440.209285 -119.604481 
L 438.295665 -123.00595 
L 436.382045 -126.483827 
L 434.468425 -129.903708 
L 432.554805 -133.032373 
L 430.641185 -135.686238 
L 428.727564 -137.827122 
L 426.813944 -139.548274 
L 424.900324 -141.032773 
L 422.986704 -142.533228 
L 421.073084 -144.333881 
L 419.159464 -146.665813 
L 417.245844 -149.62022 
L 415.332224 -153.148347 
L 413.418604 -157.19311 
L 411.504984 -161.865582 
L 409.591364 -167.479704 
L 407.677744 -174.364721 
L 405.764124 -182.638349 
L 403.850504 -192.215965 
L 401.936884 -203.064409 
L 400.023264 -215.381601 
L 398.109643 -229.436623 
L 396.196023 -245.214781 
L 394.282403 -262.291213 
L 392.368783 -280.151104 
L 390.455163 -298.673876 
L 388.541543 -318.238998 
L 386.627923 -339.214824 
L 384.714303 -361.201623 
L 382.800683 -382.703437 
L 380.887063 -401.551496 
L 378.973443 -415.711067 
L 377.059823 -423.797033 
L 375.146203 -425.04 
L 373.232583 -419.070647 
L 371.318963 -405.949129 
L 369.405342 -386.360982 
L 367.491722 -361.608107 
L 365.578102 -333.294737 
L 363.664482 -302.929078 
L 361.750862 -271.668171 
L 359.837242 -240.324374 
L 357.923622 -209.608697 
L 356.010002 -180.376743 
L 354.096382 -153.611306 
L 352.182762 -130.146923 
L 350.269142 -110.409505 
L 348.355522 -94.399804 
L 346.441902 -81.872176 
L 344.528282 -72.489954 
L 342.614662 -65.848049 
L 340.701042 -61.445281 
L 338.787421 -58.716587 
L 336.873801 -57.126399 
L 334.960181 -56.250279 
L 333.046561 -55.796478 
L 331.132941 -55.580152 
L 329.219321 -55.488096 
L 327.305701 -55.454131 
L 325.392081 -55.443505 
z
" style="stroke: #0000ff"/>
    </defs>
    <g clip-path="url(#p521a68ba05)">
     <use xlink:href="#ma8459c27a4" x="0" y="504" style="fill: #0000ff; fill-opacity: 0.25; stroke: #0000ff"/>
    </g>
   </g>
   <g id="matplotlib.axis_1">
    <g id="xtick_1">
     <g id="line2d_1">
      <defs>
       <path id="mbbeec74df4" d="M 0 0 
L 0 10 
" style="stroke: #000000; stroke-width: 2"/>
      </defs>
      <g>
       <use xlink:href="#mbbeec74df4" x="255.592105" y="448.56" style="stroke: #000000; stroke-width: 2"/>
      </g>
     </g>
     <g id="text_1">
      <!-- 1.5 -->
      <g transform="translate(238.098668 478.776563) scale(0.22 -0.22)">
       <defs>
        <path id="DejaVuSans-31" d="M 794 531 
L 1825 531 
L 1825 4091 
L 703 3866 
L 703 4441 
L 1819 4666 
L 2450 4666 
L 2450 531 
L 3481 531 
L 3481 0 
L 794 0 
L 794 531 
z
" transform="scale(0.015625)"/>
        <path id="DejaVuSans-2e" d="M 684 794 
L 1344 794 
L 1344 0 
L 684 0 
L 684 794 
z
" transform="scale(0.015625)"/>
        <path id="DejaVuSans-35" d="M 691 4666 
L 3169 4666 
L 3169 4134 
L 1269 4134 
L 1269 2991 
Q 1406 3038 1543 3061 
Q 1681 3084 1819 3084 
Q 2600 3084 3056 2656 
Q 3513 2228 3513 1497 
Q 3513 744 3044 326 
Q 2575 -91 1722 -91 
Q 1428 -91 1123 -41 
Q 819 9 494 109 
L 494 744 
Q 775 591 1075 516 
Q 1375 441 1709 441 
Q 2250 441 2565 725 
Q 2881 1009 2881 1497 
Q 2881 1984 2565 2268 
Q 2250 2553 1709 2553 
Q 1456 2553 1204 2497 
Q 953 2441 691 2322 
L 691 4666 
z
" transform="scale(0.015625)"/>
       </defs>
       <use xlink:href="#DejaVuSans-31"/>
       <use xlink:href="#DejaVuSans-2e" x="63.623047"/>
       <use xlink:href="#DejaVuSans-35" x="95.410156"/>
      </g>
     </g>
    </g>
    <g id="xtick_2">
     <g id="line2d_2">
      <g>
       <use xlink:href="#mbbeec74df4" x="306.578947" y="448.56" style="stroke: #000000; stroke-width: 2"/>
      </g>
     </g>
     <g id="text_2">
      <!-- 2.0 -->
      <g transform="translate(289.08551 478.776563) scale(0.22 -0.22)">
       <defs>
        <path id="DejaVuSans-32" d="M 1228 531 
L 3431 531 
L 3431 0 
L 469 0 
L 469 531 
Q 828 903 1448 1529 
Q 2069 2156 2228 2338 
Q 2531 2678 2651 2914 
Q 2772 3150 2772 3378 
Q 2772 3750 2511 3984 
Q 2250 4219 1831 4219 
Q 1534 4219 1204 4116 
Q 875 4013 500 3803 
L 500 4441 
Q 881 4594 1212 4672 
Q 1544 4750 1819 4750 
Q 2544 4750 2975 4387 
Q 3406 4025 3406 3419 
Q 3406 3131 3298 2873 
Q 3191 2616 2906 2266 
Q 2828 2175 2409 1742 
Q 1991 1309 1228 531 
z
" transform="scale(0.015625)"/>
        <path id="DejaVuSans-30" d="M 2034 4250 
Q 1547 4250 1301 3770 
Q 1056 3291 1056 2328 
Q 1056 1369 1301 889 
Q 1547 409 2034 409 
Q 2525 409 2770 889 
Q 3016 1369 3016 2328 
Q 3016 3291 2770 3770 
Q 2525 4250 2034 4250 
z
M 2034 4750 
Q 2819 4750 3233 4129 
Q 3647 3509 3647 2328 
Q 3647 1150 3233 529 
Q 2819 -91 2034 -91 
Q 1250 -91 836 529 
Q 422 1150 422 2328 
Q 422 3509 836 4129 
Q 1250 4750 2034 4750 
z
" transform="scale(0.015625)"/>
       </defs>
       <use xlink:href="#DejaVuSans-32"/>
       <use xlink:href="#DejaVuSans-2e" x="63.623047"/>
       <use xlink:href="#DejaVuSans-30" x="95.410156"/>
      </g>
     </g>
    </g>
    <g id="xtick_3">
     <g id="line2d_3">
      <g>
       <use xlink:href="#mbbeec74df4" x="357.565789" y="448.56" style="stroke: #000000; stroke-width: 2"/>
      </g>
     </g>
     <g id="text_3">
      <!-- 2.5 -->
      <g transform="translate(340.072352 478.776563) scale(0.22 -0.22)">
       <use xlink:href="#DejaVuSans-32"/>
       <use xlink:href="#DejaVuSans-2e" x="63.623047"/>
       <use xlink:href="#DejaVuSans-35" x="95.410156"/>
      </g>
     </g>
    </g>
    <g id="xtick_4">
     <g id="line2d_4">
      <g>
       <use xlink:href="#mbbeec74df4" x="408.552632" y="448.56" style="stroke: #000000; stroke-width: 2"/>
      </g>
     </g>
     <g id="text_4">
      <!-- 3.0 -->
      <g transform="translate(391.059194 478.776563) scale(0.22 -0.22)">
       <defs>
        <path id="DejaVuSans-33" d="M 2597 2516 
Q 3050 2419 3304 2112 
Q 3559 1806 3559 1356 
Q 3559 666 3084 287 
Q 2609 -91 1734 -91 
Q 1441 -91 1130 -33 
Q 819 25 488 141 
L 488 750 
Q 750 597 1062 519 
Q 1375 441 1716 441 
Q 2309 441 2620 675 
Q 2931 909 2931 1356 
Q 2931 1769 2642 2001 
Q 2353 2234 1838 2234 
L 1294 2234 
L 1294 2753 
L 1863 2753 
Q 2328 2753 2575 2939 
Q 2822 3125 2822 3475 
Q 2822 3834 2567 4026 
Q 2313 4219 1838 4219 
Q 1578 4219 1281 4162 
Q 984 4106 628 3988 
L 628 4550 
Q 988 4650 1302 4700 
Q 1616 4750 1894 4750 
Q 2613 4750 3031 4423 
Q 3450 4097 3450 3541 
Q 3450 3153 3228 2886 
Q 3006 2619 2597 2516 
z
" transform="scale(0.015625)"/>
       </defs>
       <use xlink:href="#DejaVuSans-33"/>
       <use xlink:href="#DejaVuSans-2e" x="63.623047"/>
       <use xlink:href="#DejaVuSans-30" x="95.410156"/>
      </g>
     </g>
    </g>
    <g id="xtick_5">
     <g id="line2d_5">
      <g>
       <use xlink:href="#mbbeec74df4" x="459.539474" y="448.56" style="stroke: #000000; stroke-width: 2"/>
      </g>
     </g>
     <g id="text_5">
      <!-- 3.5 -->
      <g transform="translate(442.046036 478.776563) scale(0.22 -0.22)">
       <use xlink:href="#DejaVuSans-33"/>
       <use xlink:href="#DejaVuSans-2e" x="63.623047"/>
       <use xlink:href="#DejaVuSans-35" x="95.410156"/>
      </g>
     </g>
    </g>
    <g id="xtick_6">
     <g id="line2d_6">
      <g>
       <use xlink:href="#mbbeec74df4" x="510.526316" y="448.56" style="stroke: #000000; stroke-width: 2"/>
      </g>
     </g>
     <g id="text_6">
      <!-- 4.0 -->
      <g transform="translate(493.032878 478.776563) scale(0.22 -0.22)">
       <defs>
        <path id="DejaVuSans-34" d="M 2419 4116 
L 825 1625 
L 2419 1625 
L 2419 4116 
z
M 2253 4666 
L 3047 4666 
L 3047 1625 
L 3713 1625 
L 3713 1100 
L 3047 1100 
L 3047 0 
L 2419 0 
L 2419 1100 
L 313 1100 
L 313 1709 
L 2253 4666 
z
" transform="scale(0.015625)"/>
       </defs>
       <use xlink:href="#DejaVuSans-34"/>
       <use xlink:href="#DejaVuSans-2e" x="63.623047"/>
       <use xlink:href="#DejaVuSans-30" x="95.410156"/>
      </g>
     </g>
    </g>
    <g id="xtick_7">
     <g id="line2d_7">
      <g>
       <use xlink:href="#mbbeec74df4" x="561.513158" y="448.56" style="stroke: #000000; stroke-width: 2"/>
      </g>
     </g>
     <g id="text_7">
      <!-- 4.5 -->
      <g transform="translate(553.561595 469.658437) scale(0.1 -0.1)">
       <use xlink:href="#DejaVuSans-34"/>
       <use xlink:href="#DejaVuSans-2e" x="63.623047"/>
       <use xlink:href="#DejaVuSans-35" x="95.410156"/>
      </g>
     </g>
    </g>
   </g>
   <g id="matplotlib.axis_2">
    <g id="ytick_1">
     <g id="line2d_8">
      <defs>
       <path id="me00d0c8017" d="M 0 0 
L -10 0 
" style="stroke: #000000; stroke-width: 2"/>
      </defs>
      <g>
       <use xlink:href="#me00d0c8017" x="225" y="448.56" style="stroke: #000000; stroke-width: 2"/>
      </g>
     </g>
     <g id="text_8">
      <!-- 0.0 -->
      <g transform="translate(176.513125 456.918281) scale(0.22 -0.22)">
       <use xlink:href="#DejaVuSans-30"/>
       <use xlink:href="#DejaVuSans-2e" x="63.623047"/>
       <use xlink:href="#DejaVuSans-30" x="95.410156"/>
      </g>
     </g>
    </g>
    <g id="ytick_2">
     <g id="line2d_9">
      <g>
       <use xlink:href="#me00d0c8017" x="225" y="357.944928" style="stroke: #000000; stroke-width: 2"/>
      </g>
     </g>
     <g id="text_9">
      <!-- 0.5 -->
      <g transform="translate(176.513125 366.303209) scale(0.22 -0.22)">
       <use xlink:href="#DejaVuSans-30"/>
       <use xlink:href="#DejaVuSans-2e" x="63.623047"/>
       <use xlink:href="#DejaVuSans-35" x="95.410156"/>
      </g>
     </g>
    </g>
    <g id="ytick_3">
     <g id="line2d_10">
      <g>
       <use xlink:href="#me00d0c8017" x="225" y="267.329856" style="stroke: #000000; stroke-width: 2"/>
      </g>
     </g>
     <g id="text_10">
      <!-- 1.0 -->
      <g transform="translate(176.513125 275.688137) scale(0.22 -0.22)">
       <use xlink:href="#DejaVuSans-31"/>
       <use xlink:href="#DejaVuSans-2e" x="63.623047"/>
       <use xlink:href="#DejaVuSans-30" x="95.410156"/>
      </g>
     </g>
    </g>
    <g id="ytick_4">
     <g id="line2d_11">
      <g>
       <use xlink:href="#me00d0c8017" x="225" y="176.714784" style="stroke: #000000; stroke-width: 2"/>
      </g>
     </g>
     <g id="text_11">
      <!-- 1.5 -->
      <g transform="translate(176.513125 185.073065) scale(0.22 -0.22)">
       <use xlink:href="#DejaVuSans-31"/>
       <use xlink:href="#DejaVuSans-2e" x="63.623047"/>
       <use xlink:href="#DejaVuSans-35" x="95.410156"/>
      </g>
     </g>
    </g>
    <g id="ytick_5">
     <g id="line2d_12">
      <g>
       <use xlink:href="#me00d0c8017" x="225" y="86.099711" style="stroke: #000000; stroke-width: 2"/>
      </g>
     </g>
     <g id="text_12">
      <!-- 2.0 -->
      <g transform="translate(176.513125 94.457993) scale(0.22 -0.22)">
       <use xlink:href="#DejaVuSans-32"/>
       <use xlink:href="#DejaVuSans-2e" x="63.623047"/>
       <use xlink:href="#DejaVuSans-30" x="95.410156"/>
      </g>
     </g>
    </g>
    <g id="text_13">
     <!-- Density -->
     <g transform="translate(170.433437 273.528594) rotate(-90) scale(0.1 -0.1)">
      <defs>
       <path id="DejaVuSans-44" d="M 1259 4147 
L 1259 519 
L 2022 519 
Q 2988 519 3436 956 
Q 3884 1394 3884 2338 
Q 3884 3275 3436 3711 
Q 2988 4147 2022 4147 
L 1259 4147 
z
M 628 4666 
L 1925 4666 
Q 3281 4666 3915 4102 
Q 4550 3538 4550 2338 
Q 4550 1131 3912 565 
Q 3275 0 1925 0 
L 628 0 
L 628 4666 
z
" transform="scale(0.015625)"/>
       <path id="DejaVuSans-65" d="M 3597 1894 
L 3597 1613 
L 953 1613 
Q 991 1019 1311 708 
Q 1631 397 2203 397 
Q 2534 397 2845 478 
Q 3156 559 3463 722 
L 3463 178 
Q 3153 47 2828 -22 
Q 2503 -91 2169 -91 
Q 1331 -91 842 396 
Q 353 884 353 1716 
Q 353 2575 817 3079 
Q 1281 3584 2069 3584 
Q 2775 3584 3186 3129 
Q 3597 2675 3597 1894 
z
M 3022 2063 
Q 3016 2534 2758 2815 
Q 2500 3097 2075 3097 
Q 1594 3097 1305 2825 
Q 1016 2553 972 2059 
L 3022 2063 
z
" transform="scale(0.015625)"/>
       <path id="DejaVuSans-6e" d="M 3513 2113 
L 3513 0 
L 2938 0 
L 2938 2094 
Q 2938 2591 2744 2837 
Q 2550 3084 2163 3084 
Q 1697 3084 1428 2787 
Q 1159 2491 1159 1978 
L 1159 0 
L 581 0 
L 581 3500 
L 1159 3500 
L 1159 2956 
Q 1366 3272 1645 3428 
Q 1925 3584 2291 3584 
Q 2894 3584 3203 3211 
Q 3513 2838 3513 2113 
z
" transform="scale(0.015625)"/>
       <path id="DejaVuSans-73" d="M 2834 3397 
L 2834 2853 
Q 2591 2978 2328 3040 
Q 2066 3103 1784 3103 
Q 1356 3103 1142 2972 
Q 928 2841 928 2578 
Q 928 2378 1081 2264 
Q 1234 2150 1697 2047 
L 1894 2003 
Q 2506 1872 2764 1633 
Q 3022 1394 3022 966 
Q 3022 478 2636 193 
Q 2250 -91 1575 -91 
Q 1294 -91 989 -36 
Q 684 19 347 128 
L 347 722 
Q 666 556 975 473 
Q 1284 391 1588 391 
Q 1994 391 2212 530 
Q 2431 669 2431 922 
Q 2431 1156 2273 1281 
Q 2116 1406 1581 1522 
L 1381 1569 
Q 847 1681 609 1914 
Q 372 2147 372 2553 
Q 372 3047 722 3315 
Q 1072 3584 1716 3584 
Q 2034 3584 2315 3537 
Q 2597 3491 2834 3397 
z
" transform="scale(0.015625)"/>
       <path id="DejaVuSans-69" d="M 603 3500 
L 1178 3500 
L 1178 0 
L 603 0 
L 603 3500 
z
M 603 4863 
L 1178 4863 
L 1178 4134 
L 603 4134 
L 603 4863 
z
" transform="scale(0.015625)"/>
       <path id="DejaVuSans-74" d="M 1172 4494 
L 1172 3500 
L 2356 3500 
L 2356 3053 
L 1172 3053 
L 1172 1153 
Q 1172 725 1289 603 
Q 1406 481 1766 481 
L 2356 481 
L 2356 0 
L 1766 0 
Q 1100 0 847 248 
Q 594 497 594 1153 
L 594 3053 
L 172 3053 
L 172 3500 
L 594 3500 
L 594 4494 
L 1172 4494 
z
" transform="scale(0.015625)"/>
       <path id="DejaVuSans-79" d="M 2059 -325 
Q 1816 -950 1584 -1140 
Q 1353 -1331 966 -1331 
L 506 -1331 
L 506 -850 
L 844 -850 
Q 1081 -850 1212 -737 
Q 1344 -625 1503 -206 
L 1606 56 
L 191 3500 
L 800 3500 
L 1894 763 
L 2988 3500 
L 3597 3500 
L 2059 -325 
z
" transform="scale(0.015625)"/>
      </defs>
      <use xlink:href="#DejaVuSans-44"/>
      <use xlink:href="#DejaVuSans-65" x="77.001953"/>
      <use xlink:href="#DejaVuSans-6e" x="138.525391"/>
      <use xlink:href="#DejaVuSans-73" x="201.904297"/>
      <use xlink:href="#DejaVuSans-69" x="254.003906"/>
      <use xlink:href="#DejaVuSans-74" x="281.787109"/>
      <use xlink:href="#DejaVuSans-79" x="320.996094"/>
     </g>
    </g>
   </g>
   <g id="patch_3">
    <path d="M 225 448.56 
L 225 60.48 
" style="fill: none; stroke: #000000; stroke-width: 0.8; stroke-linejoin: miter; stroke-linecap: square"/>
   </g>
   <g id="patch_4">
    <path d="M 592.105263 448.56 
L 592.105263 60.48 
" style="fill: none; stroke: #000000; stroke-width: 0.8; stroke-linejoin: miter; stroke-linecap: square"/>
   </g>
   <g id="patch_5">
    <path d="M 225 448.56 
L 592.105263 448.56 
" style="fill: none; stroke: #000000; stroke-width: 0.8; stroke-linejoin: miter; stroke-linecap: square"/>
   </g>
   <g id="patch_6">
    <path d="M 225 60.48 
L 592.105263 60.48 
" style="fill: none; stroke: #000000; stroke-width: 0.8; stroke-linejoin: miter; stroke-linecap: square"/>
   </g>
  </g>
  <g id="axes_2">
   <g id="patch_7">
    <path d="M 738.947368 448.56 
L 1106.052632 448.56 
L 1106.052632 60.48 
L 738.947368 60.48 
z
" style="fill: #ffffff"/>
   </g>
   <g id="PolyCollection_3">
    <defs>
     <path id="m6fa08fde9b" d="M 606.293587 -55.446669 
L 606.293587 -55.44 
L 608.947884 -55.44 
L 611.602181 -55.44 
L 614.256478 -55.44 
L 616.910775 -55.44 
L 619.565072 -55.44 
L 622.219369 -55.44 
L 624.873666 -55.44 
L 627.527963 -55.44 
L 630.18226 -55.44 
L 632.836557 -55.44 
L 635.490854 -55.44 
L 638.145151 -55.44 
L 640.799448 -55.44 
L 643.453745 -55.44 
L 646.108042 -55.44 
L 648.762339 -55.44 
L 651.416636 -55.44 
L 654.070933 -55.44 
L 656.72523 -55.44 
L 659.379527 -55.44 
L 662.033824 -55.44 
L 664.688121 -55.44 
L 667.342418 -55.44 
L 669.996715 -55.44 
L 672.651012 -55.44 
L 675.305309 -55.44 
L 677.959606 -55.44 
L 680.613903 -55.44 
L 683.2682 -55.44 
L 685.922497 -55.44 
L 688.576794 -55.44 
L 691.231091 -55.44 
L 693.885388 -55.44 
L 696.539685 -55.44 
L 699.193982 -55.44 
L 701.848279 -55.44 
L 704.502576 -55.44 
L 707.156873 -55.44 
L 709.81117 -55.44 
L 712.465467 -55.44 
L 715.119764 -55.44 
L 717.774061 -55.44 
L 720.428358 -55.44 
L 723.082655 -55.44 
L 725.736952 -55.44 
L 728.391249 -55.44 
L 731.045546 -55.44 
L 733.699843 -55.44 
L 736.35414 -55.44 
L 739.008437 -55.44 
L 741.662734 -55.44 
L 744.317031 -55.44 
L 746.971328 -55.44 
L 749.625625 -55.44 
L 752.279922 -55.44 
L 754.934219 -55.44 
L 757.588516 -55.44 
L 760.242813 -55.44 
L 762.89711 -55.44 
L 765.551407 -55.44 
L 768.205704 -55.44 
L 770.860001 -55.44 
L 773.514298 -55.44 
L 776.168595 -55.44 
L 778.822892 -55.44 
L 781.477189 -55.44 
L 784.131486 -55.44 
L 786.785783 -55.44 
L 789.44008 -55.44 
L 792.094377 -55.44 
L 794.748674 -55.44 
L 797.402971 -55.44 
L 800.057268 -55.44 
L 802.711565 -55.44 
L 805.365862 -55.44 
L 808.020159 -55.44 
L 810.674456 -55.44 
L 813.328753 -55.44 
L 815.98305 -55.44 
L 818.637347 -55.44 
L 821.291644 -55.44 
L 823.945941 -55.44 
L 826.600238 -55.44 
L 829.254535 -55.44 
L 831.908832 -55.44 
L 834.563129 -55.44 
L 837.217426 -55.44 
L 839.871723 -55.44 
L 842.52602 -55.44 
L 845.180317 -55.44 
L 847.834614 -55.44 
L 850.488911 -55.44 
L 853.143208 -55.44 
L 855.797505 -55.44 
L 858.451802 -55.44 
L 861.106099 -55.44 
L 863.760396 -55.44 
L 866.414693 -55.44 
L 869.06899 -55.44 
L 871.723287 -55.44 
L 874.377584 -55.44 
L 877.031881 -55.44 
L 879.686178 -55.44 
L 882.340475 -55.44 
L 884.994772 -55.44 
L 887.649069 -55.44 
L 890.303366 -55.44 
L 892.957663 -55.44 
L 895.61196 -55.44 
L 898.266257 -55.44 
L 900.920554 -55.44 
L 903.574851 -55.44 
L 906.229148 -55.44 
L 908.883445 -55.44 
L 911.537742 -55.44 
L 914.192039 -55.44 
L 916.846336 -55.44 
L 919.500633 -55.44 
L 922.15493 -55.44 
L 924.809227 -55.44 
L 927.463524 -55.44 
L 930.117821 -55.44 
L 932.772118 -55.44 
L 935.426415 -55.44 
L 938.080712 -55.44 
L 940.735009 -55.44 
L 943.389306 -55.44 
L 946.043603 -55.44 
L 948.6979 -55.44 
L 951.352197 -55.44 
L 954.006494 -55.44 
L 956.660791 -55.44 
L 959.315088 -55.44 
L 961.969385 -55.44 
L 964.623682 -55.44 
L 967.277979 -55.44 
L 969.932276 -55.44 
L 972.586573 -55.44 
L 975.24087 -55.44 
L 977.895167 -55.44 
L 980.549464 -55.44 
L 983.203761 -55.44 
L 985.858058 -55.44 
L 988.512355 -55.44 
L 991.166652 -55.44 
L 993.820949 -55.44 
L 996.475246 -55.44 
L 999.129543 -55.44 
L 1001.78384 -55.44 
L 1004.438137 -55.44 
L 1007.092434 -55.44 
L 1009.746731 -55.44 
L 1012.401028 -55.44 
L 1015.055325 -55.44 
L 1017.709622 -55.44 
L 1020.363919 -55.44 
L 1023.018216 -55.44 
L 1025.672513 -55.44 
L 1028.32681 -55.44 
L 1030.981107 -55.44 
L 1033.635404 -55.44 
L 1036.289701 -55.44 
L 1038.943998 -55.44 
L 1041.598295 -55.44 
L 1044.252592 -55.44 
L 1046.906889 -55.44 
L 1049.561186 -55.44 
L 1052.215483 -55.44 
L 1054.86978 -55.44 
L 1057.524077 -55.44 
L 1060.178374 -55.44 
L 1062.832671 -55.44 
L 1065.486968 -55.44 
L 1068.141265 -55.44 
L 1070.795562 -55.44 
L 1073.449859 -55.44 
L 1076.104156 -55.44 
L 1078.758453 -55.44 
L 1081.41275 -55.44 
L 1084.067047 -55.44 
L 1086.721344 -55.44 
L 1089.375641 -55.44 
L 1092.029938 -55.44 
L 1094.684235 -55.44 
L 1097.338532 -55.44 
L 1099.992829 -55.44 
L 1102.647126 -55.44 
L 1105.301423 -55.44 
L 1107.95572 -55.44 
L 1110.610017 -55.44 
L 1113.264314 -55.44 
L 1115.918611 -55.44 
L 1118.572908 -55.44 
L 1121.227205 -55.44 
L 1123.881502 -55.44 
L 1126.535799 -55.44 
L 1129.190096 -55.44 
L 1131.844393 -55.44 
L 1134.49869 -55.44 
L 1134.49869 -55.446669 
L 1134.49869 -55.446669 
L 1131.844393 -55.451739 
L 1129.190096 -55.459894 
L 1126.535799 -55.472458 
L 1123.881502 -55.490985 
L 1121.227205 -55.517105 
L 1118.572908 -55.552266 
L 1115.918611 -55.597375 
L 1113.264314 -55.652398 
L 1110.610017 -55.715995 
L 1107.95572 -55.7853 
L 1105.301423 -55.855968 
L 1102.647126 -55.922539 
L 1099.992829 -55.979132 
L 1097.338532 -56.020358 
L 1094.684235 -56.04231 
L 1092.029938 -56.043396 
L 1089.375641 -56.024871 
L 1086.721344 -55.990927 
L 1084.067047 -55.948376 
L 1081.41275 -55.906027 
L 1078.758453 -55.873921 
L 1076.104156 -55.862643 
L 1073.449859 -55.882836 
L 1070.795562 -55.945019 
L 1068.141265 -56.059689 
L 1065.486968 -56.237623 
L 1062.832671 -56.490246 
L 1060.178374 -56.829854 
L 1057.524077 -57.26952 
L 1054.86978 -57.82251 
L 1052.215483 -58.50116 
L 1049.561186 -59.315338 
L 1046.906889 -60.270841 
L 1044.252592 -61.368276 
L 1041.598295 -62.603085 
L 1038.943998 -63.967265 
L 1036.289701 -65.452995 
L 1033.635404 -67.057856 
L 1030.981107 -68.790745 
L 1028.32681 -70.677133 
L 1025.672513 -72.762208 
L 1023.018216 -75.110668 
L 1020.363919 -77.802622 
L 1017.709622 -80.925865 
L 1015.055325 -84.565712 
L 1012.401028 -88.794244 
L 1009.746731 -93.661107 
L 1007.092434 -99.18787 
L 1004.438137 -105.367236 
L 1001.78384 -112.167325 
L 999.129543 -119.539946 
L 996.475246 -127.430543 
L 993.820949 -135.786839 
L 991.166652 -144.56329 
L 988.512355 -153.719546 
L 985.858058 -163.212869 
L 983.203761 -172.986414 
L 980.549464 -182.956761 
L 977.895167 -193.004483 
L 975.24087 -202.970734 
L 972.586573 -212.661045 
L 969.932276 -221.855486 
L 967.277979 -230.322739 
L 964.623682 -237.835133 
L 961.969385 -244.182283 
L 959.315088 -249.182313 
L 956.660791 -252.691018 
L 954.006494 -254.609995 
L 951.352197 -254.89454 
L 948.6979 -253.56093 
L 946.043603 -250.691411 
L 943.389306 -246.434363 
L 940.735009 -240.997358 
L 938.080712 -234.632223 
L 935.426415 -227.61335 
L 932.772118 -220.212575 
L 930.117821 -212.67523 
L 927.463524 -205.201938 
L 924.809227 -197.939394 
L 922.15493 -190.981155 
L 919.500633 -184.377121 
L 916.846336 -178.148446 
L 914.192039 -172.303756 
L 911.537742 -166.852707 
L 908.883445 -161.814052 
L 906.229148 -157.217162 
L 903.574851 -153.097757 
L 900.920554 -149.490124 
L 898.266257 -146.41888 
L 895.61196 -143.893195 
L 892.957663 -141.905408 
L 890.303366 -140.434409 
L 887.649069 -139.452474 
L 884.994772 -138.932946 
L 882.340475 -138.855699 
L 879.686178 -139.20781 
L 877.031881 -139.978305 
L 874.377584 -141.147719 
L 871.723287 -142.675105 
L 869.06899 -144.486259 
L 866.414693 -146.467148 
L 863.760396 -148.465451 
L 861.106099 -150.301236 
L 858.451802 -151.785446 
L 855.797505 -152.742849 
L 853.143208 -153.034885 
L 850.488911 -152.577774 
L 847.834614 -151.352328 
L 845.180317 -149.403703 
L 842.52602 -146.831389 
L 839.871723 -143.771584 
L 837.217426 -140.375251 
L 834.563129 -136.785694 
L 831.908832 -133.119229 
L 829.254535 -129.451828 
L 826.600238 -125.813506 
L 823.945941 -122.190914 
L 821.291644 -118.53732 
L 818.637347 -114.787939 
L 815.98305 -110.877788 
L 813.328753 -106.758871 
L 810.674456 -102.413756 
L 808.020159 -97.863341 
L 805.365862 -93.167762 
L 802.711565 -88.420589 
L 800.057268 -83.737647 
L 797.402971 -79.242603 
L 794.748674 -75.05188 
L 792.094377 -71.261404 
L 789.44008 -67.93716 
L 786.785783 -65.110721 
L 784.131486 -62.779917 
L 781.477189 -60.913865 
L 778.822892 -59.460915 
L 776.168595 -58.357738 
L 773.514298 -57.537911 
L 770.860001 -56.938741 
L 768.205704 -56.505723 
L 765.551407 -56.194577 
L 762.89711 -55.971326 
L 760.242813 -55.811047 
L 757.588516 -55.696021 
L 754.934219 -55.613808 
L 752.279922 -55.555613 
L 749.625625 -55.515069 
L 746.971328 -55.487429 
L 744.317031 -55.469084 
L 741.662734 -55.457274 
L 739.008437 -55.449922 
L 736.35414 -55.445505 
L 733.699843 -55.442948 
L 731.045546 -55.441523 
L 728.391249 -55.440758 
L 725.736952 -55.440364 
L 723.082655 -55.440168 
L 720.428358 -55.440075 
L 717.774061 -55.440033 
L 715.119764 -55.440016 
L 712.465467 -55.440011 
L 709.81117 -55.440017 
L 707.156873 -55.440038 
L 704.502576 -55.440086 
L 701.848279 -55.440191 
L 699.193982 -55.44041 
L 696.539685 -55.440847 
L 693.885388 -55.441683 
L 691.231091 -55.44322 
L 688.576794 -55.445932 
L 685.922497 -55.450521 
L 683.2682 -55.457965 
L 680.613903 -55.469534 
L 677.959606 -55.486743 
L 675.305309 -55.511226 
L 672.651012 -55.54449 
L 669.996715 -55.587583 
L 667.342418 -55.640686 
L 664.688121 -55.702735 
L 662.033824 -55.77116 
L 659.379527 -55.841863 
L 656.72523 -55.909502 
L 654.070933 -55.968102 
L 651.416636 -56.011897 
L 648.762339 -56.036263 
L 646.108042 -56.038519 
L 643.453745 -56.018413 
L 640.799448 -55.978168 
L 638.145151 -55.922078 
L 635.490854 -55.855755 
L 632.836557 -55.785205 
L 630.18226 -55.715954 
L 627.527963 -55.652382 
L 624.873666 -55.597368 
L 622.219369 -55.552263 
L 619.565072 -55.517104 
L 616.910775 -55.490984 
L 614.256478 -55.472458 
L 611.602181 -55.459894 
L 608.947884 -55.451739 
L 606.293587 -55.446669 
z
" style="stroke: #ff0000"/>
    </defs>
    <g clip-path="url(#p6c8dab40ca)">
     <use xlink:href="#m6fa08fde9b" x="0" y="504" style="fill: #ff0000; fill-opacity: 0.25; stroke: #ff0000"/>
    </g>
   </g>
   <g id="PolyCollection_4">
    <defs>
     <path id="md0e115f83d" d="M 818.20732 -55.444151 
L 818.20732 -55.44 
L 819.362606 -55.44 
L 820.517892 -55.44 
L 821.673178 -55.44 
L 822.828465 -55.44 
L 823.983751 -55.44 
L 825.139037 -55.44 
L 826.294323 -55.44 
L 827.449609 -55.44 
L 828.604895 -55.44 
L 829.760181 -55.44 
L 830.915467 -55.44 
L 832.070754 -55.44 
L 833.22604 -55.44 
L 834.381326 -55.44 
L 835.536612 -55.44 
L 836.691898 -55.44 
L 837.847184 -55.44 
L 839.00247 -55.44 
L 840.157756 -55.44 
L 841.313043 -55.44 
L 842.468329 -55.44 
L 843.623615 -55.44 
L 844.778901 -55.44 
L 845.934187 -55.44 
L 847.089473 -55.44 
L 848.244759 -55.44 
L 849.400045 -55.44 
L 850.555332 -55.44 
L 851.710618 -55.44 
L 852.865904 -55.44 
L 854.02119 -55.44 
L 855.176476 -55.44 
L 856.331762 -55.44 
L 857.487048 -55.44 
L 858.642334 -55.44 
L 859.797621 -55.44 
L 860.952907 -55.44 
L 862.108193 -55.44 
L 863.263479 -55.44 
L 864.418765 -55.44 
L 865.574051 -55.44 
L 866.729337 -55.44 
L 867.884623 -55.44 
L 869.03991 -55.44 
L 870.195196 -55.44 
L 871.350482 -55.44 
L 872.505768 -55.44 
L 873.661054 -55.44 
L 874.81634 -55.44 
L 875.971626 -55.44 
L 877.126912 -55.44 
L 878.282199 -55.44 
L 879.437485 -55.44 
L 880.592771 -55.44 
L 881.748057 -55.44 
L 882.903343 -55.44 
L 884.058629 -55.44 
L 885.213915 -55.44 
L 886.369201 -55.44 
L 887.524488 -55.44 
L 888.679774 -55.44 
L 889.83506 -55.44 
L 890.990346 -55.44 
L 892.145632 -55.44 
L 893.300918 -55.44 
L 894.456204 -55.44 
L 895.61149 -55.44 
L 896.766777 -55.44 
L 897.922063 -55.44 
L 899.077349 -55.44 
L 900.232635 -55.44 
L 901.387921 -55.44 
L 902.543207 -55.44 
L 903.698493 -55.44 
L 904.853779 -55.44 
L 906.009066 -55.44 
L 907.164352 -55.44 
L 908.319638 -55.44 
L 909.474924 -55.44 
L 910.63021 -55.44 
L 911.785496 -55.44 
L 912.940782 -55.44 
L 914.096068 -55.44 
L 915.251355 -55.44 
L 916.406641 -55.44 
L 917.561927 -55.44 
L 918.717213 -55.44 
L 919.872499 -55.44 
L 921.027785 -55.44 
L 922.183071 -55.44 
L 923.338357 -55.44 
L 924.493644 -55.44 
L 925.64893 -55.44 
L 926.804216 -55.44 
L 927.959502 -55.44 
L 929.114788 -55.44 
L 930.270074 -55.44 
L 931.42536 -55.44 
L 932.580646 -55.44 
L 933.735933 -55.44 
L 934.891219 -55.44 
L 936.046505 -55.44 
L 937.201791 -55.44 
L 938.357077 -55.44 
L 939.512363 -55.44 
L 940.667649 -55.44 
L 941.822935 -55.44 
L 942.978222 -55.44 
L 944.133508 -55.44 
L 945.288794 -55.44 
L 946.44408 -55.44 
L 947.599366 -55.44 
L 948.754652 -55.44 
L 949.909938 -55.44 
L 951.065224 -55.44 
L 952.220511 -55.44 
L 953.375797 -55.44 
L 954.531083 -55.44 
L 955.686369 -55.44 
L 956.841655 -55.44 
L 957.996941 -55.44 
L 959.152227 -55.44 
L 960.307513 -55.44 
L 961.4628 -55.44 
L 962.618086 -55.44 
L 963.773372 -55.44 
L 964.928658 -55.44 
L 966.083944 -55.44 
L 967.23923 -55.44 
L 968.394516 -55.44 
L 969.549802 -55.44 
L 970.705089 -55.44 
L 971.860375 -55.44 
L 973.015661 -55.44 
L 974.170947 -55.44 
L 975.326233 -55.44 
L 976.481519 -55.44 
L 977.636805 -55.44 
L 978.792091 -55.44 
L 979.947378 -55.44 
L 981.102664 -55.44 
L 982.25795 -55.44 
L 983.413236 -55.44 
L 984.568522 -55.44 
L 985.723808 -55.44 
L 986.879094 -55.44 
L 988.03438 -55.44 
L 989.189667 -55.44 
L 990.344953 -55.44 
L 991.500239 -55.44 
L 992.655525 -55.44 
L 993.810811 -55.44 
L 994.966097 -55.44 
L 996.121383 -55.44 
L 997.276669 -55.44 
L 998.431956 -55.44 
L 999.587242 -55.44 
L 1000.742528 -55.44 
L 1001.897814 -55.44 
L 1003.0531 -55.44 
L 1004.208386 -55.44 
L 1005.363672 -55.44 
L 1006.518958 -55.44 
L 1007.674245 -55.44 
L 1008.829531 -55.44 
L 1009.984817 -55.44 
L 1011.140103 -55.44 
L 1012.295389 -55.44 
L 1013.450675 -55.44 
L 1014.605961 -55.44 
L 1015.761247 -55.44 
L 1016.916534 -55.44 
L 1018.07182 -55.44 
L 1019.227106 -55.44 
L 1020.382392 -55.44 
L 1021.537678 -55.44 
L 1022.692964 -55.44 
L 1023.84825 -55.44 
L 1025.003536 -55.44 
L 1026.158823 -55.44 
L 1027.314109 -55.44 
L 1028.469395 -55.44 
L 1029.624681 -55.44 
L 1030.779967 -55.44 
L 1031.935253 -55.44 
L 1033.090539 -55.44 
L 1034.245825 -55.44 
L 1035.401112 -55.44 
L 1036.556398 -55.44 
L 1037.711684 -55.44 
L 1038.86697 -55.44 
L 1040.022256 -55.44 
L 1041.177542 -55.44 
L 1042.332828 -55.44 
L 1043.488114 -55.44 
L 1044.643401 -55.44 
L 1045.798687 -55.44 
L 1046.953973 -55.44 
L 1048.109259 -55.44 
L 1048.109259 -55.440989 
L 1048.109259 -55.440989 
L 1046.953973 -55.442363 
L 1045.798687 -55.44516 
L 1044.643401 -55.450315 
L 1043.488114 -55.458935 
L 1042.332828 -55.472063 
L 1041.177542 -55.490443 
L 1040.022256 -55.5145 
L 1038.86697 -55.544729 
L 1037.711684 -55.582328 
L 1036.556398 -55.629503 
L 1035.401112 -55.688745 
L 1034.245825 -55.760942 
L 1033.090539 -55.84324 
L 1031.935253 -55.928362 
L 1030.779967 -56.006708 
L 1029.624681 -56.070927 
L 1028.469395 -56.120728 
L 1027.314109 -56.165002 
L 1026.158823 -56.219434 
L 1025.003536 -56.300215 
L 1023.84825 -56.416661 
L 1022.692964 -56.566316 
L 1021.537678 -56.735009 
L 1020.382392 -56.901958 
L 1019.227106 -57.047648 
L 1018.07182 -57.16101 
L 1016.916534 -57.242961 
L 1015.761247 -57.305274 
L 1014.605961 -57.365859 
L 1013.450675 -57.442952 
L 1012.295389 -57.550844 
L 1011.140103 -57.698833 
L 1009.984817 -57.893391 
L 1008.829531 -58.141718 
L 1007.674245 -58.453793 
L 1006.518958 -58.840392 
L 1005.363672 -59.306589 
L 1004.208386 -59.843265 
L 1003.0531 -60.421507 
L 1001.897814 -60.994816 
L 1000.742528 -61.511128 
L 999.587242 -61.931831 
L 998.431956 -62.250632 
L 997.276669 -62.503512 
L 996.121383 -62.763503 
L 994.966097 -63.119976 
L 993.810811 -63.649329 
L 992.655525 -64.38932 
L 991.500239 -65.329712 
L 990.344953 -66.425951 
L 989.189667 -67.631418 
L 988.03438 -68.932076 
L 986.879094 -70.362134 
L 985.723808 -71.986777 
L 984.568522 -73.857544 
L 983.413236 -75.967716 
L 982.25795 -78.24316 
L 981.102664 -80.587047 
L 979.947378 -82.959599 
L 978.792091 -85.439722 
L 977.636805 -88.21294 
L 976.481519 -91.470829 
L 975.326233 -95.271119 
L 974.170947 -99.45062 
L 973.015661 -103.667256 
L 971.860375 -107.571603 
L 970.705089 -111.016816 
L 969.549802 -114.17303 
L 968.394516 -117.457295 
L 967.23923 -121.303388 
L 966.083944 -125.905902 
L 964.928658 -131.102657 
L 963.773372 -136.480852 
L 962.618086 -141.650114 
L 961.4628 -146.511198 
L 960.307513 -151.341172 
L 959.152227 -156.626418 
L 957.996941 -162.73709 
L 956.841655 -169.646791 
L 955.686369 -176.884895 
L 954.531083 -183.770471 
L 953.375797 -189.799188 
L 952.220511 -194.950183 
L 951.065224 -199.719632 
L 949.909938 -204.852252 
L 948.754652 -210.928477 
L 947.599366 -218.053639 
L 946.44408 -225.828701 
L 945.288794 -233.604329 
L 944.133508 -240.847471 
L 942.978222 -247.392526 
L 941.822935 -253.439002 
L 940.667649 -259.327666 
L 939.512363 -265.262759 
L 938.357077 -271.165392 
L 937.201791 -276.742406 
L 936.046505 -281.709999 
L 934.891219 -286.016891 
L 933.735933 -289.923351 
L 932.580646 -293.894008 
L 931.42536 -298.381031 
L 930.270074 -303.631733 
L 929.114788 -309.621547 
L 927.959502 -316.123523 
L 926.804216 -322.844295 
L 925.64893 -329.532152 
L 924.493644 -336.000882 
L 923.338357 -342.081216 
L 922.183071 -347.564766 
L 921.027785 -352.209225 
L 919.872499 -355.82331 
L 918.717213 -358.377719 
L 917.561927 -360.049997 
L 916.406641 -361.145972 
L 915.251355 -361.930066 
L 914.096068 -362.471542 
L 912.940782 -362.610923 
L 911.785496 -362.072025 
L 910.63021 -360.651345 
L 909.474924 -358.371256 
L 908.319638 -355.505969 
L 907.164352 -352.457442 
L 906.009066 -349.538025 
L 904.853779 -346.776359 
L 903.698493 -343.872903 
L 902.543207 -340.369868 
L 901.387921 -335.979485 
L 900.232635 -330.895492 
L 899.077349 -325.878284 
L 897.922063 -322.000033 
L 896.766777 -320.126689 
L 895.61149 -320.392976 
L 894.456204 -321.978032 
L 893.300918 -323.36009 
L 892.145632 -322.971882 
L 890.990346 -319.935876 
L 889.83506 -314.48212 
L 888.679774 -307.805853 
L 887.524488 -301.430224 
L 886.369201 -296.420525 
L 885.213915 -292.877437 
L 884.058629 -289.966626 
L 882.903343 -286.426757 
L 881.748057 -281.232518 
L 880.592771 -274.032132 
L 879.437485 -265.152947 
L 878.282199 -255.250653 
L 877.126912 -244.880678 
L 875.971626 -234.269896 
L 874.81634 -223.384208 
L 873.661054 -212.169223 
L 872.505768 -200.745124 
L 871.350482 -189.414384 
L 870.195196 -178.509363 
L 869.03991 -168.22603 
L 867.884623 -158.577268 
L 866.729337 -149.483806 
L 865.574051 -140.907257 
L 864.418765 -132.907652 
L 863.263479 -125.584786 
L 862.108193 -118.967223 
L 860.952907 -112.957052 
L 859.797621 -107.388851 
L 858.642334 -102.161609 
L 857.487048 -97.336301 
L 856.331762 -93.113146 
L 855.176476 -89.693751 
L 854.02119 -87.121628 
L 852.865904 -85.212794 
L 851.710618 -83.625222 
L 850.555332 -82.021135 
L 849.400045 -80.217653 
L 848.244759 -78.236309 
L 847.089473 -76.233768 
L 845.934187 -74.371403 
L 844.778901 -72.710976 
L 843.623615 -71.194541 
L 842.468329 -69.705978 
L 841.313043 -68.162128 
L 840.157756 -66.571951 
L 839.00247 -65.031217 
L 837.847184 -63.663752 
L 836.691898 -62.550063 
L 835.536612 -61.685657 
L 834.381326 -60.988675 
L 833.22604 -60.346425 
L 832.070754 -59.670876 
L 830.915467 -58.933384 
L 829.760181 -58.165307 
L 828.604895 -57.431591 
L 827.449609 -56.796377 
L 826.294323 -56.298451 
L 825.139037 -55.944131 
L 823.983751 -55.714482 
L 822.828465 -55.578489 
L 821.673178 -55.504725 
L 820.517892 -55.468008 
L 819.362606 -55.451214 
L 818.20732 -55.444151 
z
" style="stroke: #0000ff"/>
    </defs>
    <g clip-path="url(#p6c8dab40ca)">
     <use xlink:href="#md0e115f83d" x="0" y="504" style="fill: #0000ff; fill-opacity: 0.25; stroke: #0000ff"/>
    </g>
   </g>
   <g id="matplotlib.axis_3">
    <g id="xtick_8">
     <g id="line2d_13">
      <g>
       <use xlink:href="#mbbeec74df4" x="769.539474" y="448.56" style="stroke: #000000; stroke-width: 2"/>
      </g>
     </g>
     <g id="text_14">
      <!-- 200 -->
      <g transform="translate(748.543224 478.776563) scale(0.22 -0.22)">
       <use xlink:href="#DejaVuSans-32"/>
       <use xlink:href="#DejaVuSans-30" x="63.623047"/>
       <use xlink:href="#DejaVuSans-30" x="127.246094"/>
      </g>
     </g>
    </g>
    <g id="xtick_9">
     <g id="line2d_14">
      <g>
       <use xlink:href="#mbbeec74df4" x="830.723684" y="448.56" style="stroke: #000000; stroke-width: 2"/>
      </g>
     </g>
     <g id="text_15">
      <!-- 300 -->
      <g transform="translate(809.727434 478.776563) scale(0.22 -0.22)">
       <use xlink:href="#DejaVuSans-33"/>
       <use xlink:href="#DejaVuSans-30" x="63.623047"/>
       <use xlink:href="#DejaVuSans-30" x="127.246094"/>
      </g>
     </g>
    </g>
    <g id="xtick_10">
     <g id="line2d_15">
      <g>
       <use xlink:href="#mbbeec74df4" x="891.907895" y="448.56" style="stroke: #000000; stroke-width: 2"/>
      </g>
     </g>
     <g id="text_16">
      <!-- 400 -->
      <g transform="translate(870.911645 478.776563) scale(0.22 -0.22)">
       <use xlink:href="#DejaVuSans-34"/>
       <use xlink:href="#DejaVuSans-30" x="63.623047"/>
       <use xlink:href="#DejaVuSans-30" x="127.246094"/>
      </g>
     </g>
    </g>
    <g id="xtick_11">
     <g id="line2d_16">
      <g>
       <use xlink:href="#mbbeec74df4" x="953.092105" y="448.56" style="stroke: #000000; stroke-width: 2"/>
      </g>
     </g>
     <g id="text_17">
      <!-- 500 -->
      <g transform="translate(932.095855 478.776563) scale(0.22 -0.22)">
       <use xlink:href="#DejaVuSans-35"/>
       <use xlink:href="#DejaVuSans-30" x="63.623047"/>
       <use xlink:href="#DejaVuSans-30" x="127.246094"/>
      </g>
     </g>
    </g>
    <g id="xtick_12">
     <g id="line2d_17">
      <g>
       <use xlink:href="#mbbeec74df4" x="1014.276316" y="448.56" style="stroke: #000000; stroke-width: 2"/>
      </g>
     </g>
     <g id="text_18">
      <!-- 600 -->
      <g transform="translate(993.280066 478.776563) scale(0.22 -0.22)">
       <defs>
        <path id="DejaVuSans-36" d="M 2113 2584 
Q 1688 2584 1439 2293 
Q 1191 2003 1191 1497 
Q 1191 994 1439 701 
Q 1688 409 2113 409 
Q 2538 409 2786 701 
Q 3034 994 3034 1497 
Q 3034 2003 2786 2293 
Q 2538 2584 2113 2584 
z
M 3366 4563 
L 3366 3988 
Q 3128 4100 2886 4159 
Q 2644 4219 2406 4219 
Q 1781 4219 1451 3797 
Q 1122 3375 1075 2522 
Q 1259 2794 1537 2939 
Q 1816 3084 2150 3084 
Q 2853 3084 3261 2657 
Q 3669 2231 3669 1497 
Q 3669 778 3244 343 
Q 2819 -91 2113 -91 
Q 1303 -91 875 529 
Q 447 1150 447 2328 
Q 447 3434 972 4092 
Q 1497 4750 2381 4750 
Q 2619 4750 2861 4703 
Q 3103 4656 3366 4563 
z
" transform="scale(0.015625)"/>
       </defs>
       <use xlink:href="#DejaVuSans-36"/>
       <use xlink:href="#DejaVuSans-30" x="63.623047"/>
       <use xlink:href="#DejaVuSans-30" x="127.246094"/>
      </g>
     </g>
    </g>
    <g id="xtick_13">
     <g id="line2d_18">
      <g>
       <use xlink:href="#mbbeec74df4" x="1075.460526" y="448.56" style="stroke: #000000; stroke-width: 2"/>
      </g>
     </g>
     <g id="text_19">
      <!-- 700 -->
      <g transform="translate(1054.464276 478.776563) scale(0.22 -0.22)">
       <defs>
        <path id="DejaVuSans-37" d="M 525 4666 
L 3525 4666 
L 3525 4397 
L 1831 0 
L 1172 0 
L 2766 4134 
L 525 4134 
L 525 4666 
z
" transform="scale(0.015625)"/>
       </defs>
       <use xlink:href="#DejaVuSans-37"/>
       <use xlink:href="#DejaVuSans-30" x="63.623047"/>
       <use xlink:href="#DejaVuSans-30" x="127.246094"/>
      </g>
     </g>
    </g>
   </g>
   <g id="matplotlib.axis_4">
    <g id="ytick_6">
     <g id="line2d_19">
      <g>
       <use xlink:href="#me00d0c8017" x="738.947368" y="448.56" style="stroke: #000000; stroke-width: 2"/>
      </g>
     </g>
     <g id="text_20">
      <!-- 0.000 -->
      <g transform="translate(662.465493 456.918281) scale(0.22 -0.22)">
       <use xlink:href="#DejaVuSans-30"/>
       <use xlink:href="#DejaVuSans-2e" x="63.623047"/>
       <use xlink:href="#DejaVuSans-30" x="95.410156"/>
       <use xlink:href="#DejaVuSans-30" x="159.033203"/>
       <use xlink:href="#DejaVuSans-30" x="222.65625"/>
      </g>
     </g>
    </g>
    <g id="ytick_7">
     <g id="line2d_20">
      <g>
       <use xlink:href="#me00d0c8017" x="738.947368" y="370.944" style="stroke: #000000; stroke-width: 2"/>
      </g>
     </g>
     <g id="text_21">
      <!-- 0.002 -->
      <g transform="translate(662.465493 379.302281) scale(0.22 -0.22)">
       <use xlink:href="#DejaVuSans-30"/>
       <use xlink:href="#DejaVuSans-2e" x="63.623047"/>
       <use xlink:href="#DejaVuSans-30" x="95.410156"/>
       <use xlink:href="#DejaVuSans-30" x="159.033203"/>
       <use xlink:href="#DejaVuSans-32" x="222.65625"/>
      </g>
     </g>
    </g>
    <g id="ytick_8">
     <g id="line2d_21">
      <g>
       <use xlink:href="#me00d0c8017" x="738.947368" y="293.328" style="stroke: #000000; stroke-width: 2"/>
      </g>
     </g>
     <g id="text_22">
      <!-- 0.004 -->
      <g transform="translate(662.465493 301.686281) scale(0.22 -0.22)">
       <use xlink:href="#DejaVuSans-30"/>
       <use xlink:href="#DejaVuSans-2e" x="63.623047"/>
       <use xlink:href="#DejaVuSans-30" x="95.410156"/>
       <use xlink:href="#DejaVuSans-30" x="159.033203"/>
       <use xlink:href="#DejaVuSans-34" x="222.65625"/>
      </g>
     </g>
    </g>
    <g id="ytick_9">
     <g id="line2d_22">
      <g>
       <use xlink:href="#me00d0c8017" x="738.947368" y="215.712" style="stroke: #000000; stroke-width: 2"/>
      </g>
     </g>
     <g id="text_23">
      <!-- 0.006 -->
      <g transform="translate(662.465493 224.070281) scale(0.22 -0.22)">
       <use xlink:href="#DejaVuSans-30"/>
       <use xlink:href="#DejaVuSans-2e" x="63.623047"/>
       <use xlink:href="#DejaVuSans-30" x="95.410156"/>
       <use xlink:href="#DejaVuSans-30" x="159.033203"/>
       <use xlink:href="#DejaVuSans-36" x="222.65625"/>
      </g>
     </g>
    </g>
    <g id="ytick_10">
     <g id="line2d_23">
      <g>
       <use xlink:href="#me00d0c8017" x="738.947368" y="138.096" style="stroke: #000000; stroke-width: 2"/>
      </g>
     </g>
     <g id="text_24">
      <!-- 0.008 -->
      <g transform="translate(662.465493 146.454281) scale(0.22 -0.22)">
       <defs>
        <path id="DejaVuSans-38" d="M 2034 2216 
Q 1584 2216 1326 1975 
Q 1069 1734 1069 1313 
Q 1069 891 1326 650 
Q 1584 409 2034 409 
Q 2484 409 2743 651 
Q 3003 894 3003 1313 
Q 3003 1734 2745 1975 
Q 2488 2216 2034 2216 
z
M 1403 2484 
Q 997 2584 770 2862 
Q 544 3141 544 3541 
Q 544 4100 942 4425 
Q 1341 4750 2034 4750 
Q 2731 4750 3128 4425 
Q 3525 4100 3525 3541 
Q 3525 3141 3298 2862 
Q 3072 2584 2669 2484 
Q 3125 2378 3379 2068 
Q 3634 1759 3634 1313 
Q 3634 634 3220 271 
Q 2806 -91 2034 -91 
Q 1263 -91 848 271 
Q 434 634 434 1313 
Q 434 1759 690 2068 
Q 947 2378 1403 2484 
z
M 1172 3481 
Q 1172 3119 1398 2916 
Q 1625 2713 2034 2713 
Q 2441 2713 2670 2916 
Q 2900 3119 2900 3481 
Q 2900 3844 2670 4047 
Q 2441 4250 2034 4250 
Q 1625 4250 1398 4047 
Q 1172 3844 1172 3481 
z
" transform="scale(0.015625)"/>
       </defs>
       <use xlink:href="#DejaVuSans-30"/>
       <use xlink:href="#DejaVuSans-2e" x="63.623047"/>
       <use xlink:href="#DejaVuSans-30" x="95.410156"/>
       <use xlink:href="#DejaVuSans-30" x="159.033203"/>
       <use xlink:href="#DejaVuSans-38" x="222.65625"/>
      </g>
     </g>
    </g>
    <g id="ytick_11">
     <g id="line2d_24">
      <g>
       <use xlink:href="#me00d0c8017" x="738.947368" y="60.48" style="stroke: #000000; stroke-width: 2"/>
      </g>
     </g>
     <g id="text_25">
      <!-- 0.010 -->
      <g transform="translate(662.465493 68.838281) scale(0.22 -0.22)">
       <use xlink:href="#DejaVuSans-30"/>
       <use xlink:href="#DejaVuSans-2e" x="63.623047"/>
       <use xlink:href="#DejaVuSans-30" x="95.410156"/>
       <use xlink:href="#DejaVuSans-31" x="159.033203"/>
       <use xlink:href="#DejaVuSans-30" x="222.65625"/>
      </g>
     </g>
    </g>
    <g id="text_26">
     <!-- Density -->
     <g transform="translate(656.385806 273.528594) rotate(-90) scale(0.1 -0.1)">
      <use xlink:href="#DejaVuSans-44"/>
      <use xlink:href="#DejaVuSans-65" x="77.001953"/>
      <use xlink:href="#DejaVuSans-6e" x="138.525391"/>
      <use xlink:href="#DejaVuSans-73" x="201.904297"/>
      <use xlink:href="#DejaVuSans-69" x="254.003906"/>
      <use xlink:href="#DejaVuSans-74" x="281.787109"/>
      <use xlink:href="#DejaVuSans-79" x="320.996094"/>
     </g>
    </g>
   </g>
   <g id="patch_8">
    <path d="M 738.947368 448.56 
L 738.947368 60.48 
" style="fill: none; stroke: #000000; stroke-width: 0.8; stroke-linejoin: miter; stroke-linecap: square"/>
   </g>
   <g id="patch_9">
    <path d="M 1106.052632 448.56 
L 1106.052632 60.48 
" style="fill: none; stroke: #000000; stroke-width: 0.8; stroke-linejoin: miter; stroke-linecap: square"/>
   </g>
   <g id="patch_10">
    <path d="M 738.947368 448.56 
L 1106.052632 448.56 
" style="fill: none; stroke: #000000; stroke-width: 0.8; stroke-linejoin: miter; stroke-linecap: square"/>
   </g>
   <g id="patch_11">
    <path d="M 738.947368 60.48 
L 1106.052632 60.48 
" style="fill: none; stroke: #000000; stroke-width: 0.8; stroke-linejoin: miter; stroke-linecap: square"/>
   </g>
  </g>
  <g id="axes_3">
   <g id="patch_12">
    <path d="M 1252.894737 448.56 
L 1620 448.56 
L 1620 60.48 
L 1252.894737 60.48 
z
" style="fill: #ffffff"/>
   </g>
   <g id="PolyCollection_5">
    <defs>
     <path id="m2651d9e6c9" d="M 1269.58134 -55.462165 
L 1269.58134 -55.44 
L 1271.189487 -55.44 
L 1272.797634 -55.44 
L 1274.40578 -55.44 
L 1276.013927 -55.44 
L 1277.622074 -55.44 
L 1279.230221 -55.44 
L 1280.838368 -55.44 
L 1282.446515 -55.44 
L 1284.054662 -55.44 
L 1285.662809 -55.44 
L 1287.270956 -55.44 
L 1288.879102 -55.44 
L 1290.487249 -55.44 
L 1292.095396 -55.44 
L 1293.703543 -55.44 
L 1295.31169 -55.44 
L 1296.919837 -55.44 
L 1298.527984 -55.44 
L 1300.136131 -55.44 
L 1301.744278 -55.44 
L 1303.352424 -55.44 
L 1304.960571 -55.44 
L 1306.568718 -55.44 
L 1308.176865 -55.44 
L 1309.785012 -55.44 
L 1311.393159 -55.44 
L 1313.001306 -55.44 
L 1314.609453 -55.44 
L 1316.2176 -55.44 
L 1317.825747 -55.44 
L 1319.433893 -55.44 
L 1321.04204 -55.44 
L 1322.650187 -55.44 
L 1324.258334 -55.44 
L 1325.866481 -55.44 
L 1327.474628 -55.44 
L 1329.082775 -55.44 
L 1330.690922 -55.44 
L 1332.299069 -55.44 
L 1333.907215 -55.44 
L 1335.515362 -55.44 
L 1337.123509 -55.44 
L 1338.731656 -55.44 
L 1340.339803 -55.44 
L 1341.94795 -55.44 
L 1343.556097 -55.44 
L 1345.164244 -55.44 
L 1346.772391 -55.44 
L 1348.380538 -55.44 
L 1349.988684 -55.44 
L 1351.596831 -55.44 
L 1353.204978 -55.44 
L 1354.813125 -55.44 
L 1356.421272 -55.44 
L 1358.029419 -55.44 
L 1359.637566 -55.44 
L 1361.245713 -55.44 
L 1362.85386 -55.44 
L 1364.462006 -55.44 
L 1366.070153 -55.44 
L 1367.6783 -55.44 
L 1369.286447 -55.44 
L 1370.894594 -55.44 
L 1372.502741 -55.44 
L 1374.110888 -55.44 
L 1375.719035 -55.44 
L 1377.327182 -55.44 
L 1378.935329 -55.44 
L 1380.543475 -55.44 
L 1382.151622 -55.44 
L 1383.759769 -55.44 
L 1385.367916 -55.44 
L 1386.976063 -55.44 
L 1388.58421 -55.44 
L 1390.192357 -55.44 
L 1391.800504 -55.44 
L 1393.408651 -55.44 
L 1395.016797 -55.44 
L 1396.624944 -55.44 
L 1398.233091 -55.44 
L 1399.841238 -55.44 
L 1401.449385 -55.44 
L 1403.057532 -55.44 
L 1404.665679 -55.44 
L 1406.273826 -55.44 
L 1407.881973 -55.44 
L 1409.490119 -55.44 
L 1411.098266 -55.44 
L 1412.706413 -55.44 
L 1414.31456 -55.44 
L 1415.922707 -55.44 
L 1417.530854 -55.44 
L 1419.139001 -55.44 
L 1420.747148 -55.44 
L 1422.355295 -55.44 
L 1423.963442 -55.44 
L 1425.571588 -55.44 
L 1427.179735 -55.44 
L 1428.787882 -55.44 
L 1430.396029 -55.44 
L 1432.004176 -55.44 
L 1433.612323 -55.44 
L 1435.22047 -55.44 
L 1436.828617 -55.44 
L 1438.436764 -55.44 
L 1440.04491 -55.44 
L 1441.653057 -55.44 
L 1443.261204 -55.44 
L 1444.869351 -55.44 
L 1446.477498 -55.44 
L 1448.085645 -55.44 
L 1449.693792 -55.44 
L 1451.301939 -55.44 
L 1452.910086 -55.44 
L 1454.518233 -55.44 
L 1456.126379 -55.44 
L 1457.734526 -55.44 
L 1459.342673 -55.44 
L 1460.95082 -55.44 
L 1462.558967 -55.44 
L 1464.167114 -55.44 
L 1465.775261 -55.44 
L 1467.383408 -55.44 
L 1468.991555 -55.44 
L 1470.599701 -55.44 
L 1472.207848 -55.44 
L 1473.815995 -55.44 
L 1475.424142 -55.44 
L 1477.032289 -55.44 
L 1478.640436 -55.44 
L 1480.248583 -55.44 
L 1481.85673 -55.44 
L 1483.464877 -55.44 
L 1485.073023 -55.44 
L 1486.68117 -55.44 
L 1488.289317 -55.44 
L 1489.897464 -55.44 
L 1491.505611 -55.44 
L 1493.113758 -55.44 
L 1494.721905 -55.44 
L 1496.330052 -55.44 
L 1497.938199 -55.44 
L 1499.546346 -55.44 
L 1501.154492 -55.44 
L 1502.762639 -55.44 
L 1504.370786 -55.44 
L 1505.978933 -55.44 
L 1507.58708 -55.44 
L 1509.195227 -55.44 
L 1510.803374 -55.44 
L 1512.411521 -55.44 
L 1514.019668 -55.44 
L 1515.627814 -55.44 
L 1517.235961 -55.44 
L 1518.844108 -55.44 
L 1520.452255 -55.44 
L 1522.060402 -55.44 
L 1523.668549 -55.44 
L 1525.276696 -55.44 
L 1526.884843 -55.44 
L 1528.49299 -55.44 
L 1530.101137 -55.44 
L 1531.709283 -55.44 
L 1533.31743 -55.44 
L 1534.925577 -55.44 
L 1536.533724 -55.44 
L 1538.141871 -55.44 
L 1539.750018 -55.44 
L 1541.358165 -55.44 
L 1542.966312 -55.44 
L 1544.574459 -55.44 
L 1546.182605 -55.44 
L 1547.790752 -55.44 
L 1549.398899 -55.44 
L 1551.007046 -55.44 
L 1552.615193 -55.44 
L 1554.22334 -55.44 
L 1555.831487 -55.44 
L 1557.439634 -55.44 
L 1559.047781 -55.44 
L 1560.655928 -55.44 
L 1562.264074 -55.44 
L 1563.872221 -55.44 
L 1565.480368 -55.44 
L 1567.088515 -55.44 
L 1568.696662 -55.44 
L 1570.304809 -55.44 
L 1571.912956 -55.44 
L 1573.521103 -55.44 
L 1575.12925 -55.44 
L 1576.737396 -55.44 
L 1578.345543 -55.44 
L 1579.95369 -55.44 
L 1581.561837 -55.44 
L 1583.169984 -55.44 
L 1584.778131 -55.44 
L 1586.386278 -55.44 
L 1587.994425 -55.44 
L 1589.602572 -55.44 
L 1589.602572 -55.453549 
L 1589.602572 -55.453549 
L 1587.994425 -55.461826 
L 1586.386278 -55.474232 
L 1584.778131 -55.492276 
L 1583.169984 -55.51773 
L 1581.561837 -55.552533 
L 1579.95369 -55.59863 
L 1578.345543 -55.657722 
L 1576.737396 -55.730959 
L 1575.12925 -55.818599 
L 1573.521103 -55.919677 
L 1571.912956 -56.031766 
L 1570.304809 -56.150883 
L 1568.696662 -56.271609 
L 1567.088515 -56.38745 
L 1565.480368 -56.49144 
L 1563.872221 -56.576915 
L 1562.264074 -56.638395 
L 1560.655928 -56.672433 
L 1559.047781 -56.678317 
L 1557.439634 -56.65854 
L 1555.831487 -56.618978 
L 1554.22334 -56.568775 
L 1552.615193 -56.519981 
L 1551.007046 -56.487041 
L 1549.398899 -56.486212 
L 1547.790752 -56.534996 
L 1546.182605 -56.651636 
L 1544.574459 -56.854692 
L 1542.966312 -57.162662 
L 1541.358165 -57.593611 
L 1539.750018 -58.164746 
L 1538.141871 -58.891883 
L 1536.533724 -59.788798 
L 1534.925577 -60.866418 
L 1533.31743 -62.131902 
L 1531.709283 -63.587626 
L 1530.101137 -65.230151 
L 1528.49299 -67.04928 
L 1526.884843 -69.027356 
L 1525.276696 -71.138977 
L 1523.668549 -73.351366 
L 1522.060402 -75.625595 
L 1520.452255 -77.918803 
L 1518.844108 -80.187431 
L 1517.235961 -82.391317 
L 1515.627814 -84.498264 
L 1514.019668 -86.48855 
L 1512.411521 -88.358709 
L 1510.803374 -90.123925 
L 1509.195227 -91.81851 
L 1507.58708 -93.494164 
L 1505.978933 -95.216035 
L 1504.370786 -97.056881 
L 1502.762639 -99.089909 
L 1501.154492 -101.381016 
L 1499.546346 -103.981254 
L 1497.938199 -106.920318 
L 1496.330052 -110.201818 
L 1494.721905 -113.800991 
L 1493.113758 -117.665377 
L 1491.505611 -121.718755 
L 1489.897464 -125.868315 
L 1488.289317 -130.01462 
L 1486.68117 -134.063386 
L 1485.073023 -137.937661 
L 1483.464877 -141.588645 
L 1481.85673 -145.003386 
L 1480.248583 -148.20793 
L 1478.640436 -151.265185 
L 1477.032289 -154.267693 
L 1475.424142 -157.326446 
L 1473.815995 -160.557586 
L 1472.207848 -164.069197 
L 1470.599701 -167.95017 
L 1468.991555 -172.262612 
L 1467.383408 -177.03837 
L 1465.775261 -182.279462 
L 1464.167114 -187.961545 
L 1462.558967 -194.039281 
L 1460.95082 -200.45251 
L 1459.342673 -207.132442 
L 1457.734526 -214.007414 
L 1456.126379 -221.008044 
L 1454.518233 -228.071707 
L 1452.910086 -235.146204 
L 1451.301939 -242.192364 
L 1449.693792 -249.185266 
L 1448.085645 -256.113828 
L 1446.477498 -262.97873 
L 1444.869351 -269.788937 
L 1443.261204 -276.557427 
L 1441.653057 -283.296874 
L 1440.04491 -290.016102 
L 1438.436764 -296.717969 
L 1436.828617 -303.399084 
L 1435.22047 -310.051421 
L 1433.612323 -316.665598 
L 1432.004176 -323.235241 
L 1430.396029 -329.761593 
L 1428.787882 -336.257314 
L 1427.179735 -342.748292 
L 1425.571588 -349.272376 
L 1423.963442 -355.874278 
L 1422.355295 -362.596511 
L 1420.747148 -369.467103 
L 1419.139001 -376.485749 
L 1417.530854 -383.610843 
L 1415.922707 -390.750189 
L 1414.31456 -397.757966 
L 1412.706413 -404.439628 
L 1411.098266 -410.565041 
L 1409.490119 -415.888532 
L 1407.881973 -420.173048 
L 1406.273826 -423.214724 
L 1404.665679 -424.863985 
L 1403.057532 -425.04 
L 1401.449385 -423.736628 
L 1399.841238 -421.019616 
L 1398.233091 -417.016276 
L 1396.624944 -411.899875 
L 1395.016797 -405.871326 
L 1393.408651 -399.140495 
L 1391.800504 -391.908831 
L 1390.192357 -384.354347 
L 1388.58421 -376.619494 
L 1386.976063 -368.802335 
L 1385.367916 -360.951498 
L 1383.759769 -353.065527 
L 1382.151622 -345.097191 
L 1380.543475 -336.962893 
L 1378.935329 -328.556607 
L 1377.327182 -319.766875 
L 1375.719035 -310.494645 
L 1374.110888 -300.669363 
L 1372.502741 -290.260928 
L 1370.894594 -279.285863 
L 1369.286447 -267.807131 
L 1367.6783 -255.928231 
L 1366.070153 -243.783144 
L 1364.462006 -231.524256 
L 1362.85386 -219.310354 
L 1361.245713 -207.296395 
L 1359.637566 -195.625989 
L 1358.029419 -184.426738 
L 1356.421272 -173.807962 
L 1354.813125 -163.859872 
L 1353.204978 -154.653272 
L 1351.596831 -146.239 
L 1349.988684 -138.646804 
L 1348.380538 -131.883738 
L 1346.772391 -125.932648 
L 1345.164244 -120.751487 
L 1343.556097 -116.274256 
L 1341.94795 -112.414118 
L 1340.339803 -109.068839 
L 1338.731656 -106.128195 
L 1337.123509 -103.482542 
L 1335.515362 -101.031387 
L 1333.907215 -98.690755 
L 1332.299069 -96.398315 
L 1330.690922 -94.115596 
L 1329.082775 -91.827213 
L 1327.474628 -89.537487 
L 1325.866481 -87.265255 
L 1324.258334 -85.037878 
L 1322.650187 -82.885369 
L 1321.04204 -80.835405 
L 1319.433893 -78.909643 
L 1317.825747 -77.121485 
L 1316.2176 -75.475187 
L 1314.609453 -73.966124 
L 1313.001306 -72.58193 
L 1311.393159 -71.304333 
L 1309.785012 -70.111451 
L 1308.176865 -68.980368 
L 1306.568718 -67.889754 
L 1304.960571 -66.82225 
L 1303.352424 -65.766333 
L 1301.744278 -64.717405 
L 1300.136131 -63.677935 
L 1298.527984 -62.656657 
L 1296.919837 -61.666951 
L 1295.31169 -60.724696 
L 1293.703543 -59.845956 
L 1292.095396 -59.044848 
L 1290.487249 -58.331906 
L 1288.879102 -57.713094 
L 1287.270956 -57.189547 
L 1285.662809 -56.757926 
L 1284.054662 -56.41125 
L 1282.446515 -56.139989 
L 1280.838368 -55.933219 
L 1279.230221 -55.779674 
L 1277.622074 -55.66859 
L 1276.013927 -55.590291 
L 1274.40578 -55.536517 
L 1272.797634 -55.500534 
L 1271.189487 -55.477072 
L 1269.58134 -55.462165 
z
" style="stroke: #ff0000"/>
    </defs>
    <g clip-path="url(#pb54971adee)">
     <use xlink:href="#m2651d9e6c9" x="0" y="504" style="fill: #ff0000; fill-opacity: 0.25; stroke: #ff0000"/>
    </g>
   </g>
   <g id="PolyCollection_6">
    <defs>
     <path id="m497a55b7c8" d="M 1288.437147 -55.441114 
L 1288.437147 -55.44 
L 1290.01944 -55.44 
L 1291.601733 -55.44 
L 1293.184025 -55.44 
L 1294.766318 -55.44 
L 1296.348611 -55.44 
L 1297.930903 -55.44 
L 1299.513196 -55.44 
L 1301.095489 -55.44 
L 1302.677782 -55.44 
L 1304.260074 -55.44 
L 1305.842367 -55.44 
L 1307.42466 -55.44 
L 1309.006952 -55.44 
L 1310.589245 -55.44 
L 1312.171538 -55.44 
L 1313.753831 -55.44 
L 1315.336123 -55.44 
L 1316.918416 -55.44 
L 1318.500709 -55.44 
L 1320.083001 -55.44 
L 1321.665294 -55.44 
L 1323.247587 -55.44 
L 1324.82988 -55.44 
L 1326.412172 -55.44 
L 1327.994465 -55.44 
L 1329.576758 -55.44 
L 1331.15905 -55.44 
L 1332.741343 -55.44 
L 1334.323636 -55.44 
L 1335.905929 -55.44 
L 1337.488221 -55.44 
L 1339.070514 -55.44 
L 1340.652807 -55.44 
L 1342.235099 -55.44 
L 1343.817392 -55.44 
L 1345.399685 -55.44 
L 1346.981978 -55.44 
L 1348.56427 -55.44 
L 1350.146563 -55.44 
L 1351.728856 -55.44 
L 1353.311148 -55.44 
L 1354.893441 -55.44 
L 1356.475734 -55.44 
L 1358.058027 -55.44 
L 1359.640319 -55.44 
L 1361.222612 -55.44 
L 1362.804905 -55.44 
L 1364.387197 -55.44 
L 1365.96949 -55.44 
L 1367.551783 -55.44 
L 1369.134076 -55.44 
L 1370.716368 -55.44 
L 1372.298661 -55.44 
L 1373.880954 -55.44 
L 1375.463246 -55.44 
L 1377.045539 -55.44 
L 1378.627832 -55.44 
L 1380.210125 -55.44 
L 1381.792417 -55.44 
L 1383.37471 -55.44 
L 1384.957003 -55.44 
L 1386.539295 -55.44 
L 1388.121588 -55.44 
L 1389.703881 -55.44 
L 1391.286174 -55.44 
L 1392.868466 -55.44 
L 1394.450759 -55.44 
L 1396.033052 -55.44 
L 1397.615344 -55.44 
L 1399.197637 -55.44 
L 1400.77993 -55.44 
L 1402.362223 -55.44 
L 1403.944515 -55.44 
L 1405.526808 -55.44 
L 1407.109101 -55.44 
L 1408.691393 -55.44 
L 1410.273686 -55.44 
L 1411.855979 -55.44 
L 1413.438272 -55.44 
L 1415.020564 -55.44 
L 1416.602857 -55.44 
L 1418.18515 -55.44 
L 1419.767442 -55.44 
L 1421.349735 -55.44 
L 1422.932028 -55.44 
L 1424.514321 -55.44 
L 1426.096613 -55.44 
L 1427.678906 -55.44 
L 1429.261199 -55.44 
L 1430.843491 -55.44 
L 1432.425784 -55.44 
L 1434.008077 -55.44 
L 1435.59037 -55.44 
L 1437.172662 -55.44 
L 1438.754955 -55.44 
L 1440.337248 -55.44 
L 1441.91954 -55.44 
L 1443.501833 -55.44 
L 1445.084126 -55.44 
L 1446.666419 -55.44 
L 1448.248711 -55.44 
L 1449.831004 -55.44 
L 1451.413297 -55.44 
L 1452.995589 -55.44 
L 1454.577882 -55.44 
L 1456.160175 -55.44 
L 1457.742468 -55.44 
L 1459.32476 -55.44 
L 1460.907053 -55.44 
L 1462.489346 -55.44 
L 1464.071638 -55.44 
L 1465.653931 -55.44 
L 1467.236224 -55.44 
L 1468.818517 -55.44 
L 1470.400809 -55.44 
L 1471.983102 -55.44 
L 1473.565395 -55.44 
L 1475.147687 -55.44 
L 1476.72998 -55.44 
L 1478.312273 -55.44 
L 1479.894566 -55.44 
L 1481.476858 -55.44 
L 1483.059151 -55.44 
L 1484.641444 -55.44 
L 1486.223736 -55.44 
L 1487.806029 -55.44 
L 1489.388322 -55.44 
L 1490.970614 -55.44 
L 1492.552907 -55.44 
L 1494.1352 -55.44 
L 1495.717493 -55.44 
L 1497.299785 -55.44 
L 1498.882078 -55.44 
L 1500.464371 -55.44 
L 1502.046663 -55.44 
L 1503.628956 -55.44 
L 1505.211249 -55.44 
L 1506.793542 -55.44 
L 1508.375834 -55.44 
L 1509.958127 -55.44 
L 1511.54042 -55.44 
L 1513.122712 -55.44 
L 1514.705005 -55.44 
L 1516.287298 -55.44 
L 1517.869591 -55.44 
L 1519.451883 -55.44 
L 1521.034176 -55.44 
L 1522.616469 -55.44 
L 1524.198761 -55.44 
L 1525.781054 -55.44 
L 1527.363347 -55.44 
L 1528.94564 -55.44 
L 1530.527932 -55.44 
L 1532.110225 -55.44 
L 1533.692518 -55.44 
L 1535.27481 -55.44 
L 1536.857103 -55.44 
L 1538.439396 -55.44 
L 1540.021689 -55.44 
L 1541.603981 -55.44 
L 1543.186274 -55.44 
L 1544.768567 -55.44 
L 1546.350859 -55.44 
L 1547.933152 -55.44 
L 1549.515445 -55.44 
L 1551.097738 -55.44 
L 1552.68003 -55.44 
L 1554.262323 -55.44 
L 1555.844616 -55.44 
L 1557.426908 -55.44 
L 1559.009201 -55.44 
L 1560.591494 -55.44 
L 1562.173787 -55.44 
L 1563.756079 -55.44 
L 1565.338372 -55.44 
L 1566.920665 -55.44 
L 1568.502957 -55.44 
L 1570.08525 -55.44 
L 1571.667543 -55.44 
L 1573.249836 -55.44 
L 1574.832128 -55.44 
L 1576.414421 -55.44 
L 1577.996714 -55.44 
L 1579.579006 -55.44 
L 1581.161299 -55.44 
L 1582.743592 -55.44 
L 1584.325885 -55.44 
L 1585.908177 -55.44 
L 1587.49047 -55.44 
L 1589.072763 -55.44 
L 1590.655055 -55.44 
L 1592.237348 -55.44 
L 1593.819641 -55.44 
L 1595.401934 -55.44 
L 1596.984226 -55.44 
L 1598.566519 -55.44 
L 1600.148812 -55.44 
L 1601.731104 -55.44 
L 1603.313397 -55.44 
L 1603.313397 -55.441114 
L 1603.313397 -55.441114 
L 1601.731104 -55.442778 
L 1600.148812 -55.446247 
L 1598.566519 -55.452664 
L 1596.984226 -55.463148 
L 1595.401934 -55.478158 
L 1593.819641 -55.496746 
L 1592.237348 -55.516196 
L 1590.655055 -55.532583 
L 1589.072763 -55.542334 
L 1587.49047 -55.544204 
L 1585.908177 -55.540555 
L 1584.325885 -55.537096 
L 1582.743592 -55.541062 
L 1581.161299 -55.55872 
L 1579.579006 -55.593498 
L 1577.996714 -55.645755 
L 1576.414421 -55.714392 
L 1574.832128 -55.79953 
L 1573.249836 -55.904762 
L 1571.667543 -56.037601 
L 1570.08525 -56.207656 
L 1568.502957 -56.42319 
L 1566.920665 -56.687478 
L 1565.338372 -56.996557 
L 1563.756079 -57.33986 
L 1562.173787 -57.704497 
L 1560.591494 -58.082234 
L 1559.009201 -58.476006 
L 1557.426908 -58.902126 
L 1555.844616 -59.386418 
L 1554.262323 -59.956083 
L 1552.68003 -60.631228 
L 1551.097738 -61.41912 
L 1549.515445 -62.312227 
L 1547.933152 -63.290534 
L 1546.350859 -64.329499 
L 1544.768567 -65.414036 
L 1543.186274 -66.553743 
L 1541.603981 -67.789114 
L 1540.021689 -69.180151 
L 1538.439396 -70.780594 
L 1536.857103 -72.614224 
L 1535.27481 -74.670743 
L 1533.692518 -76.923831 
L 1532.110225 -79.355603 
L 1530.527932 -81.967596 
L 1528.94564 -84.772595 
L 1527.363347 -87.779945 
L 1525.781054 -90.991155 
L 1524.198761 -94.409682 
L 1522.616469 -98.052993 
L 1521.034176 -101.952899 
L 1519.451883 -106.142842 
L 1517.869591 -110.644406 
L 1516.287298 -115.466012 
L 1514.705005 -120.615206 
L 1513.122712 -126.114172 
L 1511.54042 -132.005624 
L 1509.958127 -138.342212 
L 1508.375834 -145.161007 
L 1506.793542 -152.452504 
L 1505.211249 -160.13977 
L 1503.628956 -168.083734 
L 1502.046663 -176.119596 
L 1500.464371 -184.109578 
L 1498.882078 -191.983374 
L 1497.299785 -199.745065 
L 1495.717493 -207.450873 
L 1494.1352 -215.181975 
L 1492.552907 -223.029495 
L 1490.970614 -231.082676 
L 1489.388322 -239.398809 
L 1487.806029 -247.95501 
L 1486.223736 -256.617848 
L 1484.641444 -265.174305 
L 1483.059151 -273.427584 
L 1481.476858 -281.304658 
L 1479.894566 -288.901301 
L 1478.312273 -296.427069 
L 1476.72998 -304.078756 
L 1475.147687 -311.917314 
L 1473.565395 -319.82158 
L 1471.983102 -327.54776 
L 1470.400809 -334.862319 
L 1468.818517 -341.669483 
L 1467.236224 -348.051018 
L 1465.653931 -354.184685 
L 1464.071638 -360.185092 
L 1462.489346 -365.967652 
L 1460.907053 -371.232676 
L 1459.32476 -375.600777 
L 1457.742468 -378.839099 
L 1456.160175 -381.050982 
L 1454.577882 -382.701412 
L 1452.995589 -384.429775 
L 1451.413297 -386.727533 
L 1449.831004 -389.657084 
L 1448.248711 -392.78504 
L 1446.666419 -395.383193 
L 1445.084126 -396.784078 
L 1443.501833 -396.680962 
L 1441.91954 -395.207514 
L 1440.337248 -392.786931 
L 1438.754955 -389.886575 
L 1437.172662 -386.846962 
L 1435.59037 -383.863984 
L 1434.008077 -381.074272 
L 1432.425784 -378.625781 
L 1430.843491 -376.649053 
L 1429.261199 -375.14157 
L 1427.678906 -373.861889 
L 1426.096613 -372.34094 
L 1424.514321 -370.045526 
L 1422.932028 -366.620549 
L 1421.349735 -362.067874 
L 1419.767442 -356.743938 
L 1418.18515 -351.164516 
L 1416.602857 -345.723542 
L 1415.020564 -340.485702 
L 1413.438272 -335.167701 
L 1411.855979 -329.312458 
L 1410.273686 -322.553252 
L 1408.691393 -314.821531 
L 1407.109101 -306.390514 
L 1405.526808 -297.738899 
L 1403.944515 -289.313627 
L 1402.362223 -281.319676 
L 1400.77993 -273.644275 
L 1399.197637 -265.94462 
L 1397.615344 -257.83812 
L 1396.033052 -249.086822 
L 1394.450759 -239.687788 
L 1392.868466 -229.846802 
L 1391.286174 -219.875642 
L 1389.703881 -210.07813 
L 1388.121588 -200.675738 
L 1386.539295 -191.789914 
L 1384.957003 -183.465848 
L 1383.37471 -175.704144 
L 1381.792417 -168.470212 
L 1380.210125 -161.67595 
L 1378.627832 -155.159509 
L 1377.045539 -148.701668 
L 1375.463246 -142.096088 
L 1373.880954 -135.247224 
L 1372.298661 -128.237296 
L 1370.716368 -121.311621 
L 1369.134076 -114.779345 
L 1367.551783 -108.881591 
L 1365.96949 -103.700863 
L 1364.387197 -99.157701 
L 1362.804905 -95.084199 
L 1361.222612 -91.320287 
L 1359.640319 -87.776292 
L 1358.058027 -84.438753 
L 1356.475734 -81.335833 
L 1354.893441 -78.496407 
L 1353.311148 -75.927919 
L 1351.728856 -73.616887 
L 1350.146563 -71.540611 
L 1348.56427 -69.676918 
L 1346.981978 -68.006359 
L 1345.399685 -66.509227 
L 1343.817392 -65.16256 
L 1342.235099 -63.940508 
L 1340.652807 -62.818361 
L 1339.070514 -61.778275 
L 1337.488221 -60.813587 
L 1335.905929 -59.928949 
L 1334.323636 -59.135596 
L 1332.741343 -58.443975 
L 1331.15905 -57.857549 
L 1329.576758 -57.370579 
L 1327.994465 -56.970166 
L 1326.412172 -56.640738 
L 1324.82988 -56.368593 
L 1323.247587 -56.14463 
L 1321.665294 -55.964377 
L 1320.083001 -55.825589 
L 1318.500709 -55.725017 
L 1316.918416 -55.656461 
L 1315.336123 -55.611372 
L 1313.753831 -55.581428 
L 1312.171538 -55.56106 
L 1310.589245 -55.548098 
L 1309.006952 -55.542217 
L 1307.42466 -55.5425 
L 1305.842367 -55.545966 
L 1304.260074 -55.548049 
L 1302.677782 -55.54456 
L 1301.095489 -55.533681 
L 1299.513196 -55.516669 
L 1297.930903 -55.496925 
L 1296.348611 -55.478219 
L 1294.766318 -55.463166 
L 1293.184025 -55.452668 
L 1291.601733 -55.446248 
L 1290.01944 -55.442778 
L 1288.437147 -55.441114 
z
" style="stroke: #0000ff"/>
    </defs>
    <g clip-path="url(#pb54971adee)">
     <use xlink:href="#m497a55b7c8" x="0" y="504" style="fill: #0000ff; fill-opacity: 0.25; stroke: #0000ff"/>
    </g>
   </g>
   <g id="matplotlib.axis_5">
    <g id="xtick_14">
     <g id="line2d_25">
      <g>
       <use xlink:href="#mbbeec74df4" x="1307.751324" y="448.56" style="stroke: #000000; stroke-width: 2"/>
      </g>
     </g>
     <g id="text_27">
      <!-- 0 -->
      <g transform="translate(1300.752574 478.776563) scale(0.22 -0.22)">
       <use xlink:href="#DejaVuSans-30"/>
      </g>
     </g>
    </g>
    <g id="xtick_15">
     <g id="line2d_26">
      <g>
       <use xlink:href="#mbbeec74df4" x="1379.893969" y="448.56" style="stroke: #000000; stroke-width: 2"/>
      </g>
     </g>
     <g id="text_28">
      <!-- 2 -->
      <g transform="translate(1372.895219 478.776563) scale(0.22 -0.22)">
       <use xlink:href="#DejaVuSans-32"/>
      </g>
     </g>
    </g>
    <g id="xtick_16">
     <g id="line2d_27">
      <g>
       <use xlink:href="#mbbeec74df4" x="1452.036615" y="448.56" style="stroke: #000000; stroke-width: 2"/>
      </g>
     </g>
     <g id="text_29">
      <!-- 4 -->
      <g transform="translate(1445.037865 478.776563) scale(0.22 -0.22)">
       <use xlink:href="#DejaVuSans-34"/>
      </g>
     </g>
    </g>
    <g id="xtick_17">
     <g id="line2d_28">
      <g>
       <use xlink:href="#mbbeec74df4" x="1524.17926" y="448.56" style="stroke: #000000; stroke-width: 2"/>
      </g>
     </g>
     <g id="text_30">
      <!-- 6 -->
      <g transform="translate(1517.18051 478.776563) scale(0.22 -0.22)">
       <use xlink:href="#DejaVuSans-36"/>
      </g>
     </g>
    </g>
    <g id="xtick_18">
     <g id="line2d_29">
      <g>
       <use xlink:href="#mbbeec74df4" x="1596.321906" y="448.56" style="stroke: #000000; stroke-width: 2"/>
      </g>
     </g>
     <g id="text_31">
      <!-- 8 -->
      <g transform="translate(1589.323156 478.776563) scale(0.22 -0.22)">
       <use xlink:href="#DejaVuSans-38"/>
      </g>
     </g>
    </g>
   </g>
   <g id="matplotlib.axis_6">
    <g id="ytick_12">
     <g id="line2d_30">
      <g>
       <use xlink:href="#me00d0c8017" x="1252.894737" y="448.56" style="stroke: #000000; stroke-width: 2"/>
      </g>
     </g>
     <g id="text_32">
      <!-- 0.0 -->
      <g transform="translate(1204.407862 456.918281) scale(0.22 -0.22)">
       <use xlink:href="#DejaVuSans-30"/>
       <use xlink:href="#DejaVuSans-2e" x="63.623047"/>
       <use xlink:href="#DejaVuSans-30" x="95.410156"/>
      </g>
     </g>
    </g>
    <g id="ytick_13">
     <g id="line2d_31">
      <g>
       <use xlink:href="#me00d0c8017" x="1252.894737" y="351.949362" style="stroke: #000000; stroke-width: 2"/>
      </g>
     </g>
     <g id="text_33">
      <!-- 0.1 -->
      <g transform="translate(1204.407862 360.307643) scale(0.22 -0.22)">
       <use xlink:href="#DejaVuSans-30"/>
       <use xlink:href="#DejaVuSans-2e" x="63.623047"/>
       <use xlink:href="#DejaVuSans-31" x="95.410156"/>
      </g>
     </g>
    </g>
    <g id="ytick_14">
     <g id="line2d_32">
      <g>
       <use xlink:href="#me00d0c8017" x="1252.894737" y="255.338723" style="stroke: #000000; stroke-width: 2"/>
      </g>
     </g>
     <g id="text_34">
      <!-- 0.2 -->
      <g transform="translate(1204.407862 263.697005) scale(0.22 -0.22)">
       <use xlink:href="#DejaVuSans-30"/>
       <use xlink:href="#DejaVuSans-2e" x="63.623047"/>
       <use xlink:href="#DejaVuSans-32" x="95.410156"/>
      </g>
     </g>
    </g>
    <g id="ytick_15">
     <g id="line2d_33">
      <g>
       <use xlink:href="#me00d0c8017" x="1252.894737" y="158.728085" style="stroke: #000000; stroke-width: 2"/>
      </g>
     </g>
     <g id="text_35">
      <!-- 0.3 -->
      <g transform="translate(1204.407862 167.086366) scale(0.22 -0.22)">
       <use xlink:href="#DejaVuSans-30"/>
       <use xlink:href="#DejaVuSans-2e" x="63.623047"/>
       <use xlink:href="#DejaVuSans-33" x="95.410156"/>
      </g>
     </g>
    </g>
    <g id="ytick_16">
     <g id="line2d_34">
      <g>
       <use xlink:href="#me00d0c8017" x="1252.894737" y="62.117447" style="stroke: #000000; stroke-width: 2"/>
      </g>
     </g>
     <g id="text_36">
      <!-- 0.4 -->
      <g transform="translate(1204.407862 70.475728) scale(0.22 -0.22)">
       <use xlink:href="#DejaVuSans-30"/>
       <use xlink:href="#DejaVuSans-2e" x="63.623047"/>
       <use xlink:href="#DejaVuSans-34" x="95.410156"/>
      </g>
     </g>
    </g>
    <g id="text_37">
     <!-- Density -->
     <g transform="translate(1198.328174 273.528594) rotate(-90) scale(0.1 -0.1)">
      <use xlink:href="#DejaVuSans-44"/>
      <use xlink:href="#DejaVuSans-65" x="77.001953"/>
      <use xlink:href="#DejaVuSans-6e" x="138.525391"/>
      <use xlink:href="#DejaVuSans-73" x="201.904297"/>
      <use xlink:href="#DejaVuSans-69" x="254.003906"/>
      <use xlink:href="#DejaVuSans-74" x="281.787109"/>
      <use xlink:href="#DejaVuSans-79" x="320.996094"/>
     </g>
    </g>
   </g>
   <g id="patch_13">
    <path d="M 1252.894737 448.56 
L 1252.894737 60.48 
" style="fill: none; stroke: #000000; stroke-width: 0.8; stroke-linejoin: miter; stroke-linecap: square"/>
   </g>
   <g id="patch_14">
    <path d="M 1620 448.56 
L 1620 60.48 
" style="fill: none; stroke: #000000; stroke-width: 0.8; stroke-linejoin: miter; stroke-linecap: square"/>
   </g>
   <g id="patch_15">
    <path d="M 1252.894737 448.56 
L 1620 448.56 
" style="fill: none; stroke: #000000; stroke-width: 0.8; stroke-linejoin: miter; stroke-linecap: square"/>
   </g>
   <g id="patch_16">
    <path d="M 1252.894737 60.48 
L 1620 60.48 
" style="fill: none; stroke: #000000; stroke-width: 0.8; stroke-linejoin: miter; stroke-linecap: square"/>
   </g>
  </g>
 </g>
 <defs>
  <clipPath id="p521a68ba05">
   <rect x="225" y="60.48" width="367.105263" height="388.08"/>
  </clipPath>
  <clipPath id="p6c8dab40ca">
   <rect x="738.947368" y="60.48" width="367.105263" height="388.08"/>
  </clipPath>
  <clipPath id="pb54971adee">
   <rect x="1252.894737" y="60.48" width="367.105263" height="388.08"/>
  </clipPath>
 </defs>
</svg>
